<?xml version="1.0" encoding="utf-8"?>
<!-- Generator: Adobe Illustrator 22.0.0, SVG Export Plug-In . SVG Version: 6.00 Build 0)  -->
<svg version="1.1" id="Layer_1" xmlns="http://www.w3.org/2000/svg" xmlns:xlink="http://www.w3.org/1999/xlink" x="0px" y="0px"
	 viewBox="0 0 894 172" style="enable-background:new 0 0 894 172;" xml:space="preserve">
<style type="text/css">
	.st0{fill: #757A89}
</style>
<g>
	<path class="st0" d="M65.6,79.2H60c-2.4,0-4.1-0.6-5.1-1.8c-1.1-1.2-1.6-2.8-1.6-4.8c0-4.4,3.3-6.7,10-6.7c6.2,0,10.9,0.9,14.1,2.8
		l-2.7,2c-2.2-1-6-1.5-11.4-1.5c-2.7,0-4.4,0.3-5.3,0.9c-0.9,0.6-1.4,1.4-1.4,2.5c0,1.1,0.2,1.9,0.7,2.5c0.5,0.6,1.4,0.9,2.7,0.9
		h5.7c4.2,0,7.9,0.7,11.3,2.1c3.4,1.4,6.1,3.4,8.3,5.8c2.2,2.5,3.8,5.3,5,8.5c1.1,3.2,1.7,6.6,1.7,10.3c0,3-0.4,5.8-1.3,8.4
		c-0.8,2.7-2.1,5.1-3.8,7.3c-1.7,2.2-3.7,4.1-6.1,5.8s-5.2,2.9-8.4,3.8c-3.3,0.9-6.8,1.4-10.6,1.4c-6,0-11.5-0.9-16.7-2.7
		c-5.2-1.8-9.5-4.3-13-7.6l2.7-2c3.1,2.8,7.1,5,11.8,6.6c4.7,1.6,9.8,2.3,15.2,2.3c4.2,0,8.1-0.6,11.5-1.8c3.4-1.2,6.2-2.9,8.4-5
		c2.2-2.1,3.9-4.6,5.1-7.4c1.2-2.8,1.8-5.8,1.8-9.1c0-4.3-0.9-8.2-2.6-11.6c-1.7-3.5-4.4-6.3-7.9-8.5C74.6,80.3,70.4,79.2,65.6,79.2
		z M60,95.9h5.1c2.4,0,4.1,0.6,5.1,1.9c1,1.2,1.6,2.8,1.6,4.8c0,4.4-3.3,6.7-10,6.7c-6.3,0-11-0.9-14.1-2.8l2.7-2
		c2.2,1,6,1.5,11.4,1.5c2.7,0,4.4-0.3,5.3-0.9c0.9-0.6,1.4-1.4,1.4-2.5c0-1-0.3-1.8-0.8-2.4c-0.5-0.6-1.4-0.9-2.8-0.9h-5
		c-4.3,0-8.1-0.7-11.6-2.1c-3.4-1.4-6.3-3.3-8.5-5.7c-2.2-2.4-3.9-5.3-5.1-8.5c-1.2-3.2-1.8-6.7-1.8-10.4c0-3,0.4-5.8,1.3-8.4
		c0.8-2.7,2.1-5.1,3.8-7.3c1.7-2.2,3.7-4.1,6.1-5.8c2.4-1.6,5.2-2.9,8.4-3.8c3.3-0.9,6.8-1.4,10.6-1.4c6,0,11.5,0.9,16.7,2.7
		c5.2,1.8,9.5,4.3,13,7.6l-2.7,2c-3.1-2.8-7.1-5-11.8-6.6c-4.7-1.6-9.8-2.3-15.2-2.3c-4.2,0-8.1,0.6-11.5,1.8
		c-3.4,1.2-6.2,2.9-8.4,5c-2.2,2.1-3.9,4.6-5.1,7.4c-1.2,2.8-1.8,5.8-1.8,9.1c0,4.4,0.9,8.3,2.6,11.8c1.8,3.5,4.4,6.3,8.1,8.4
		C50.8,94.8,55,95.9,60,95.9z M60,82.5h5.3c6.3,0,11.2,1.9,14.7,5.7c3.5,3.8,5.3,8.6,5.3,14.3c0,5.8-2.1,10.6-6.2,14.3
		c-4.1,3.8-9.9,5.7-17.3,5.7c-4.9,0-9.6-0.7-13.8-2c-4.3-1.4-7.9-3.3-10.7-5.7l2.6-2.1c2.5,2.1,5.7,3.7,9.6,4.8
		c3.8,1.1,8,1.7,12.4,1.7c6.5,0,11.5-1.6,14.9-4.7c3.4-3.1,5.2-7.1,5.2-12c0-4.8-1.4-8.8-4.3-12c-2.9-3.1-7-4.7-12.4-4.7H60
		c-4.5,0-7.9-1.2-10.1-3.7c-2.3-2.5-3.4-5.7-3.4-9.6c0-4,1.4-7.2,4.2-9.6c2.8-2.5,7-3.7,12.6-3.7c3.9,0,7.6,0.5,10.9,1.4
		c3.4,0.9,6.1,2.2,8.3,3.9l-2.6,2c-3.9-2.7-9.4-4-16.6-4c-4.7,0-8.1,0.9-10.2,2.8c-2.1,1.8-3.2,4.3-3.2,7.2c0,3,0.8,5.5,2.4,7.3
		C53.8,81.6,56.4,82.5,60,82.5z M60,89.2h5.1c4.5,0,7.9,1.3,10.1,3.8c2.3,2.5,3.4,5.7,3.4,9.6c0,4-1.4,7.2-4.2,9.6
		c-2.8,2.5-7,3.7-12.6,3.7c-3.9,0-7.6-0.5-11-1.4s-6.2-2.2-8.4-3.9l2.6-2c3.9,2.7,9.4,4,16.7,4c4.7,0,8.1-0.9,10.2-2.8
		c2.1-1.8,3.2-4.3,3.2-7.2c0-3-0.8-5.4-2.4-7.2c-1.6-1.8-4.2-2.8-7.8-2.8h-5c-6.3,0-11.3-1.9-14.8-5.7c-3.6-3.8-5.4-8.6-5.4-14.3
		c0-5.8,2.1-10.6,6.2-14.3c4.1-3.8,9.9-5.7,17.3-5.7c4.9,0,9.5,0.7,13.8,2c4.3,1.4,7.8,3.3,10.7,5.7l-2.6,2.1
		c-2.5-2.1-5.7-3.7-9.5-4.8c-3.8-1.1-8-1.7-12.4-1.7c-6.5,0-11.5,1.6-14.9,4.7c-3.4,3.1-5.2,7.1-5.2,12c0,4.8,1.5,8.8,4.4,12
		C50.4,87.6,54.5,89.2,60,89.2z"/>
	<path class="st0" d="M125.2,102.9h19.4c3.3,0,6.5-0.7,9.5-2c3-1.3,5.7-3.1,7.9-5.3c2.2-2.2,4-5,5.3-8.2c1.3-3.2,2-6.6,2-10.2
		c0-4.3-1.1-8.4-3.4-12.2c-2.3-3.8-5.3-6.9-9.1-9.1c-3.8-2.3-7.9-3.4-12.3-3.4h-42v73.4h-3.3V49.2h45.3c4.9,0,9.6,1.3,13.9,3.9
		c4.3,2.6,7.8,6,10.3,10.4c2.6,4.3,3.8,8.9,3.8,13.8c0,4.4-0.8,8.4-2.3,12.1c-1.5,3.7-3.6,6.8-6.1,9.2c-2.6,2.4-5.5,4.3-8.9,5.7
		c-3.4,1.3-7,2-10.7,2h-19.4V102.9z M125.2,96.2h19.4c3.2,0,6.2-0.8,8.9-2.3c2.7-1.6,4.9-3.8,6.6-6.7c1.7-2.9,2.5-6.2,2.5-9.9
		c0-4.8-1.8-9-5.4-12.6c-3.6-3.6-7.8-5.5-12.6-5.5h-35.3v66.7H106v-70h38.6c3.7,0,7.3,1,10.6,3c3.3,2,5.9,4.6,7.9,7.9
		c2,3.3,2.9,6.8,2.9,10.5c0,4.2-1,8-3,11.5c-2,3.4-4.6,6.1-7.9,8c-3.3,1.9-6.8,2.8-10.6,2.8h-19.4V96.2z M125.2,89.6h19.4
		c3.2,0,5.9-1.1,8.1-3.2c2.2-2.1,3.3-5.2,3.3-9.1c0-2.9-1.2-5.6-3.5-7.9c-2.3-2.3-5-3.5-7.9-3.5H116v60h-3.3V62.5h32
		c3.9,0,7.3,1.5,10.3,4.5c3,3,4.4,6.4,4.4,10.2c0,4.7-1.4,8.5-4.3,11.4c-2.9,2.9-6.3,4.3-10.4,4.3h-19.4V89.6z M122.6,125.9h-3.3
		V69.2h25.3c2.2,0,4.1,0.8,5.7,2.4c1.6,1.6,2.4,3.5,2.4,5.7c0,6-2.7,9-8.1,9h-19.4v-3.3h19.4c1.5,0,2.6-0.4,3.5-1.3
		c0.8-0.8,1.3-2.3,1.3-4.4c0-1.4-0.5-2.5-1.4-3.4c-0.9-0.9-2-1.3-3.4-1.3h-22V125.9z"/>
	<path class="st0" d="M167.5,125.9h-3.6l30.3-76.7h3.6l30.3,76.7h-3.6l-28.5-72.2L167.5,125.9z M196.5,61.6l1.9,4.3l-23.7,60h-3.6
		L196.5,61.6z M200.2,70.4L202,75l-20.1,50.9h-3.6L200.2,70.4z M203.7,79.6l1.8,4.7L189,125.9h-3.6L203.7,79.6z M194.6,116.7
		l1.3-3.3h21.9l1.4,3.3H194.6z M197.2,110.1l1.3-3.3h16.6l1.4,3.3H197.2z M199.8,103.4l1.3-3.3h11.4l1.3,3.3H199.8z M205,49.2
		l30.3,76.7h-3.6l-30.3-76.7H205z M212.2,49.2l30.3,76.7H239l-30.3-76.7H212.2z M249.7,125.9h-3.6l-30.3-76.7h3.6L249.7,125.9z"/>
	<path class="st0" d="M321.4,64.1l-2.8,1.8c-3.5-5.2-8.1-9.2-13.6-12.2c-5.6-3-11.6-4.5-18-4.5c-5.2,0-10.2,1-14.9,3
		c-4.7,2-8.8,4.7-12.3,8.2s-6.2,7.5-8.2,12.3c-2,4.7-3,9.7-3,14.9s1,10.2,3,14.9c2,4.7,4.7,8.8,8.2,12.3s7.5,6.2,12.3,8.2
		s9.7,3,14.9,3c6.5,0,12.5-1.5,18.1-4.5c5.6-3,10.1-7.1,13.7-12.3l2.7,2c-3.8,5.6-8.8,10-14.8,13.2c-6.1,3.3-12.6,4.9-19.6,4.9
		c-5.7,0-11-1.1-16.2-3.3c-5.1-2.2-9.6-5.2-13.3-8.9c-3.7-3.7-6.7-8.2-8.9-13.3c-2.2-5.1-3.3-10.5-3.3-16.2s1.1-11,3.3-16.2
		c2.2-5.1,5.2-9.6,8.9-13.3c3.7-3.7,8.2-6.7,13.3-8.9c5.1-2.2,10.5-3.3,16.2-3.3c7,0,13.6,1.6,19.6,4.9
		C312.6,54,317.5,58.5,321.4,64.1z M315.9,67.9l-2.8,1.8c-2.9-4.3-6.7-7.6-11.3-10.1c-4.6-2.5-9.6-3.7-14.9-3.7
		c-4.3,0-8.4,0.8-12.3,2.5c-3.9,1.7-7.3,3.9-10.1,6.7c-2.8,2.8-5.1,6.2-6.7,10.1c-1.7,3.9-2.5,8-2.5,12.3c0,4.3,0.8,8.4,2.5,12.3
		c1.7,3.9,3.9,7.3,6.7,10.1c2.8,2.8,6.2,5.1,10.1,6.7c3.9,1.7,8,2.5,12.3,2.5c5.4,0,10.4-1.3,15-3.8c4.6-2.5,8.4-5.9,11.3-10.1
		l2.7,2c-3.2,4.7-7.4,8.4-12.4,11.1c-5.1,2.7-10.6,4.1-16.5,4.1c-6.3,0-12.2-1.6-17.6-4.7s-9.6-7.4-12.8-12.8
		c-3.1-5.4-4.7-11.2-4.7-17.6c0-6.3,1.6-12.2,4.7-17.6c3.1-5.4,7.4-9.6,12.8-12.8c5.4-3.1,11.2-4.7,17.6-4.7
		c5.9,0,11.4,1.4,16.5,4.1C308.5,59.4,312.7,63.2,315.9,67.9z M310.3,71.6l-2.8,1.8c-2.3-3.3-5.2-6-8.9-7.9c-3.6-2-7.6-2.9-11.8-2.9
		c-4.5,0-8.7,1.1-12.6,3.4c-3.8,2.2-6.9,5.3-9.1,9.1c-2.2,3.8-3.4,8-3.4,12.6s1.1,8.7,3.4,12.6c2.2,3.8,5.3,6.9,9.1,9.1
		c3.8,2.2,8,3.4,12.6,3.4c4.2,0,8.2-1,11.8-3c3.6-2,6.6-4.6,8.9-8l2.7,1.9c-2.6,3.8-6,6.9-10.1,9.1c-4.1,2.2-8.6,3.3-13.4,3.3
		c-5.1,0-9.9-1.3-14.2-3.8s-7.8-6-10.3-10.3c-2.5-4.4-3.8-9.1-3.8-14.2c0-5.1,1.3-9.9,3.8-14.2s6-7.8,10.3-10.3
		c4.4-2.5,9.1-3.8,14.2-3.8c4.8,0,9.2,1.1,13.4,3.3C304.4,64.8,307.7,67.8,310.3,71.6z M304.8,75.4l-2.7,1.8
		c-1.7-2.5-3.8-4.4-6.5-5.9c-2.7-1.4-5.6-2.2-8.7-2.2c-5.1,0-9.4,1.8-13,5.4c-3.6,3.6-5.4,7.9-5.4,13c0,5.1,1.8,9.4,5.4,13
		c3.6,3.6,7.9,5.4,13,5.4c3.1,0,6-0.7,8.7-2.2s4.8-3.4,6.5-5.9l2.7,1.9c-2,2.9-4.5,5.2-7.7,6.9c-3.2,1.7-6.5,2.5-10.2,2.5
		c-2.9,0-5.7-0.6-8.4-1.7c-2.7-1.1-5-2.7-6.9-4.6c-1.9-1.9-3.5-4.3-4.6-6.9c-1.1-2.7-1.7-5.5-1.7-8.4c0-2.9,0.6-5.7,1.7-8.4
		c1.1-2.7,2.7-5,4.6-6.9s4.3-3.5,6.9-4.6c2.7-1.1,5.5-1.7,8.4-1.7c3.7,0,7.1,0.9,10.2,2.6S302.8,72.5,304.8,75.4z"/>
	<path class="st0" d="M329.2,125.9h-3.3V49.2h3.3V125.9z M335.9,125.9h-3.3V49.2h3.3V125.9z M342.5,125.9h-3.3V49.2h3.3V125.9z
		 M349.2,109.2h35.5v3.3h-35.5v3.3h35.5v3.3h-35.5v3.3h35.5v3.3h-38.8V49.2h38.8v3.3h-35.5v3.3h35.5v3.3h-35.5v3.3h35.5v3.3h-35.5
		v13.3h18.2v3.3h-18.2v3.3h18.2v3.3h-18.2v3.3h18.2v3.3h-18.2V109.2z"/>
	<path class="st0" d="M402.5,49.2h3.6l28.5,72.2l28.5-72.2h3.6l-30.3,76.7h-3.6L402.5,49.2z M436.9,109.2l-1.9,4.3l-25.4-64.3h3.6
		L436.9,109.2z M440.5,100.1l-1.8,4.6l-21.9-55.5h3.6L440.5,100.1z M444,90.8l-1.8,4.7L424,49.2h3.6L444,90.8z M470.3,49.2h3.6
		l-30.3,76.7H440L470.3,49.2z M477.5,49.2h3.6l-30.3,76.7h-3.6L477.5,49.2z M484.6,49.2h3.6l-30.3,76.7h-3.6L484.6,49.2z"/>
	<path class="st0" d="M494.3,49.2h3.3v76.7h-3.3V49.2z M501,49.2h3.3v76.7H501V49.2z M507.6,49.2h3.3v76.7h-3.3V49.2z M514.3,49.2
		h3.3v76.7h-3.3V49.2z"/>
	<path class="st0" d="M551.6,101.1h20.1c4.3,0,8.3-1.1,12-3.2c3.7-2.1,6.7-5.1,8.9-8.9c2.2-3.8,3.3-8,3.3-12.6
		c0-4.2-1.1-8.1-3.3-11.7c-2.2-3.7-5.2-6.6-8.9-8.8c-3.7-2.2-7.8-3.3-12-3.3h-42v73.4h-3.3V49.2h45.3c4.8,0,9.4,1.2,13.7,3.7
		c4.3,2.5,7.7,5.8,10.2,10c2.5,4.2,3.8,8.7,3.8,13.4c0,5.5-1.2,10.3-3.5,14.5s-5.6,7.4-9.6,9.8l8.6,25.3h-3.5l-8.2-23.7
		c-1.2,0.5-2.2,0.8-2.8,1l7.7,22.7h-3.5l-7.5-21.9c-0.3,0.1-1.3,0.2-3,0.3l7.2,21.6h-3.5l-7.1-21.5h-3l6.8,21.5h-3.5l-6.8-21.5
		h-12.3V101.1z M551.6,94.4h20.1c4.8,0,9-1.7,12.4-5.1c3.5-3.4,5.2-7.7,5.2-13c0-4.5-1.8-8.5-5.3-12c-3.5-3.4-7.6-5.2-12.3-5.2
		h-35.3v66.7h-3.3v-70h38.6c3.7,0,7.1,0.9,10.4,2.8c3.2,1.9,5.8,4.4,7.7,7.6c1.9,3.2,2.9,6.5,2.9,10.1c0,6.1-2.1,11.2-6.2,15.3
		c-4.1,4.1-9,6.1-14.8,6.1h-20.1V94.4z M551.6,87.7h20.1c3.1,0,5.6-1,7.8-3c2.1-2,3.2-4.8,3.2-8.4c0-2.7-1.1-5.1-3.3-7.2
		c-2.2-2.1-4.8-3.2-7.6-3.2h-28.6v60h-3.3V62.5h32c3.8,0,7.1,1.4,10,4.2c2.9,2.8,4.3,6,4.3,9.6c0,4.4-1.4,8-4.2,10.7
		c-2.8,2.7-6.1,4-10.1,4h-20.1V87.7z M549.8,125.9h-3.3V69.2h25.3c2.1,0,3.9,0.7,5.3,2.1c1.5,1.4,2.2,3.1,2.2,5
		c0,5.4-2.5,8.1-7.6,8.1h-20.1v-3.3h20.1c1.3,0,2.4-0.3,3.1-1s1.1-1.9,1.1-3.7c0-1.1-0.4-2-1.2-2.7c-0.8-0.7-1.8-1.1-3-1.1h-22
		V125.9z"/>
	<path class="st0" d="M662.5,85.8v40.1c-5.9,2.2-12,3.3-18.2,3.3c-5.5,0-10.7-1-15.7-3c-5-2-9.4-4.8-13.2-8.4s-6.8-8-9.1-13.2
		s-3.4-11-3.4-17.1c0-5.7,1.1-11,3.3-16.2c2.2-5.1,5.2-9.6,8.9-13.3c3.7-3.7,8.2-6.7,13.3-8.9c5.1-2.2,10.5-3.3,16.2-3.3
		c7,0,13.6,1.6,19.6,4.9c6.1,3.3,11,7.7,14.8,13.3l-2.8,1.8c-3.5-5.2-8.1-9.2-13.6-12.2c-5.6-3-11.6-4.5-18-4.5
		c-5.2,0-10.2,1-14.9,3c-4.7,2-8.8,4.7-12.3,8.2s-6.2,7.5-8.2,12.3c-2,4.7-3,9.7-3,14.9c0,5.6,1,10.8,3.1,15.7
		c2.1,4.8,4.9,8.9,8.3,12.2c3.5,3.3,7.5,5.8,12.1,7.7c4.6,1.9,9.4,2.8,14.4,2.8c5.2,0,10.2-0.8,15.1-2.5v-3.2
		c-4.6,1.5-9.4,2.3-14.5,2.3c-3.7,0-7.2-0.5-10.7-1.6c-3.5-1-6.7-2.6-9.6-4.6c-2.9-2-5.5-4.4-7.7-7.2c-2.2-2.8-3.9-6.1-5.2-9.8
		s-1.9-7.7-1.9-11.9c0-6.3,1.6-12.2,4.7-17.6c3.1-5.4,7.4-9.6,12.8-12.8c5.4-3.1,11.2-4.7,17.6-4.7c5.9,0,11.4,1.4,16.5,4.1
		c5.1,2.8,9.2,6.5,12.5,11.2l-2.8,1.8c-2.9-4.3-6.7-7.6-11.3-10.1c-4.6-2.5-9.6-3.7-14.9-3.7c-4.3,0-8.4,0.8-12.3,2.5
		c-3.9,1.7-7.3,3.9-10.1,6.7c-2.8,2.8-5.1,6.2-6.7,10.1c-1.7,3.9-2.5,8-2.5,12.3c0,3.9,0.6,7.5,1.7,10.9c1.1,3.4,2.7,6.3,4.7,8.8
		c2,2.5,4.3,4.7,7,6.5c2.7,1.8,5.5,3.2,8.7,4.1c3.1,0.9,6.4,1.4,9.7,1.4c5.1,0,10-0.9,14.6-2.6v-3.3c-4.6,1.8-9.3,2.6-14.3,2.6
		c-3.8,0-7.4-0.6-10.8-1.9s-6.5-3.1-9.1-5.4s-4.8-5.3-6.4-9c-1.6-3.6-2.4-7.7-2.4-12c0-5.1,1.3-9.9,3.8-14.2s6-7.8,10.3-10.3
		c4.4-2.5,9.1-3.8,14.2-3.8c4.8,0,9.2,1.1,13.4,3.3c4.1,2.2,7.5,5.2,10.1,9.1l-2.8,1.8c-2.3-3.3-5.2-6-8.9-7.9
		c-3.6-2-7.6-2.9-11.8-2.9c-4.5,0-8.7,1.1-12.6,3.4c-3.8,2.2-6.9,5.3-9.1,9.1c-2.2,3.8-3.4,8-3.4,12.6c0,3.1,0.4,6.1,1.3,8.8
		c0.9,2.7,2.1,5.1,3.7,7c1.6,2,3.4,3.7,5.5,5c2.1,1.4,4.4,2.4,6.8,3.1c2.4,0.7,5,1,7.6,1c5.2,0,10.1-1,14.6-3.1v-3.2
		c-4.4,1.9-9.1,2.9-14.2,2.9c-2.9,0-5.7-0.4-8.3-1.3c-2.6-0.9-4.9-2.2-7-3.9c-2.1-1.7-3.7-4-5-6.8c-1.2-2.8-1.8-6-1.8-9.6
		c0-2.9,0.6-5.7,1.7-8.4c1.1-2.7,2.7-5,4.6-6.9s4.3-3.5,6.9-4.6c2.7-1.1,5.5-1.7,8.4-1.7c3.7,0,7.1,0.9,10.2,2.6s5.7,4,7.7,7
		l-2.7,1.8c-1.7-2.5-3.8-4.4-6.5-5.9c-2.7-1.4-5.6-2.2-8.7-2.2c-5.1,0-9.4,1.8-13,5.4c-3.6,3.6-5.4,7.9-5.4,13
		c0,3.1,0.5,5.9,1.5,8.3c1,2.4,2.4,4.3,4.2,5.7s3.8,2.5,5.9,3.2c2.2,0.7,4.5,1.1,7,1.1c5.1,0,9.9-1.1,14.3-3.2V85.8H662.5z
		 M665.9,85.8h3.3v40.1h-3.3V85.8z M672.5,85.8h3.3v40.1h-3.3V85.8z M679.2,85.8h3.3v40.1h-3.3V85.8z"/>
	<path class="st0" d="M690.7,49.2h3.3v76.7h-3.3V49.2z M697.4,49.2h3.3v76.7h-3.3V49.2z M704.1,49.2h3.3v76.7h-3.3V49.2z
		 M710.8,49.2h3.3v76.7h-3.3V49.2z"/>
	<path class="st0" d="M726.2,54.6v71.3h-3.3V49.2h4l47,76.7H770L726.2,54.6z M729.6,64.1l3.3,5.7v56.1h-3.3V64.1z M730.7,49.2h3.9
		l47.2,76.7h-3.9L730.7,49.2z M736.2,75.2l3.3,5.6v45.1h-3.3V75.2z M738.6,49.2h3.9l47.1,76.7h-4L738.6,49.2z M742.9,86.1l3.3,5.5
		v34.3h-3.3V86.1z M746.4,49.2h3.9l43.7,71.3V49.2h3.3v76.7h-3.9L746.4,49.2z M777.4,89l-3.3-5.5V49.2h3.3V89z M784,99.9l-3.3-5.6
		V49.2h3.3V99.9z M790.7,111l-3.3-5.7V49.2h3.3V111z"/>
	<path class="st0" d="M837.2,79.2h-5.6c-2.4,0-4.1-0.6-5.1-1.8c-1-1.2-1.6-2.8-1.6-4.8c0-4.4,3.3-6.7,10-6.7
		c6.2,0,10.9,0.9,14.1,2.8l-2.7,2c-2.2-1-6-1.5-11.4-1.5c-2.7,0-4.4,0.3-5.3,0.9c-0.9,0.6-1.4,1.4-1.4,2.5c0,1.1,0.2,1.9,0.7,2.5
		c0.5,0.6,1.4,0.9,2.7,0.9h5.7c4.2,0,7.9,0.7,11.3,2.1c3.4,1.4,6.1,3.4,8.3,5.8c2.2,2.5,3.8,5.3,5,8.5s1.7,6.6,1.7,10.3
		c0,3-0.4,5.8-1.2,8.4c-0.8,2.7-2.1,5.1-3.8,7.3c-1.7,2.2-3.7,4.1-6.1,5.8s-5.2,2.9-8.4,3.8c-3.3,0.9-6.8,1.4-10.6,1.4
		c-6,0-11.5-0.9-16.7-2.7c-5.2-1.8-9.5-4.3-13-7.6l2.7-2c3.1,2.8,7.1,5,11.8,6.6c4.7,1.6,9.8,2.3,15.2,2.3c4.2,0,8.1-0.6,11.5-1.8
		c3.4-1.2,6.2-2.9,8.4-5c2.2-2.1,3.9-4.6,5.1-7.4c1.2-2.8,1.8-5.8,1.8-9.1c0-4.3-0.9-8.2-2.6-11.6c-1.7-3.5-4.4-6.3-7.9-8.5
		C846.1,80.3,842,79.2,837.2,79.2z M831.5,95.9h5.1c2.4,0,4.1,0.6,5.1,1.9c1,1.2,1.6,2.8,1.6,4.8c0,4.4-3.3,6.7-10,6.7
		c-6.3,0-11-0.9-14.1-2.8l2.7-2c2.2,1,6,1.5,11.4,1.5c2.7,0,4.4-0.3,5.3-0.9c0.9-0.6,1.4-1.4,1.4-2.5c0-1-0.3-1.8-0.8-2.4
		c-0.5-0.6-1.4-0.9-2.8-0.9h-5c-4.3,0-8.1-0.7-11.6-2.1c-3.4-1.4-6.3-3.3-8.5-5.7c-2.2-2.4-3.9-5.3-5.1-8.5
		c-1.2-3.2-1.8-6.7-1.8-10.4c0-3,0.4-5.8,1.3-8.4c0.8-2.7,2.1-5.1,3.8-7.3s3.7-4.1,6.1-5.8s5.2-2.9,8.4-3.8
		c3.3-0.9,6.8-1.4,10.6-1.4c6,0,11.5,0.9,16.7,2.7c5.2,1.8,9.5,4.3,13,7.6l-2.7,2c-3.1-2.8-7.1-5-11.8-6.6
		c-4.7-1.6-9.8-2.3-15.2-2.3c-4.2,0-8.1,0.6-11.5,1.8c-3.4,1.2-6.2,2.9-8.4,5c-2.2,2.1-3.9,4.6-5.1,7.4c-1.2,2.8-1.8,5.8-1.8,9.1
		c0,4.4,0.9,8.3,2.6,11.8c1.8,3.5,4.4,6.3,8.1,8.4C822.3,94.8,826.6,95.9,831.5,95.9z M831.5,82.5h5.3c6.3,0,11.2,1.9,14.7,5.7
		c3.5,3.8,5.3,8.6,5.3,14.3c0,5.8-2.1,10.6-6.2,14.3s-9.9,5.7-17.3,5.7c-4.9,0-9.6-0.7-13.8-2c-4.3-1.4-7.9-3.3-10.7-5.7l2.6-2.1
		c2.5,2.1,5.7,3.7,9.6,4.8c3.8,1.1,8,1.7,12.4,1.7c6.5,0,11.5-1.6,14.9-4.7c3.4-3.1,5.2-7.1,5.2-12c0-4.8-1.4-8.8-4.3-12
		c-2.9-3.1-7-4.7-12.4-4.7h-5.2c-4.5,0-7.9-1.2-10.1-3.7c-2.3-2.5-3.4-5.7-3.4-9.6c0-4,1.4-7.2,4.2-9.6c2.8-2.5,7-3.7,12.6-3.7
		c3.9,0,7.6,0.5,10.9,1.4c3.4,0.9,6.1,2.2,8.3,3.9l-2.6,2c-3.9-2.7-9.4-4-16.6-4c-4.7,0-8.1,0.9-10.2,2.8c-2.1,1.8-3.2,4.3-3.2,7.2
		c0,3,0.8,5.5,2.4,7.3C825.3,81.6,827.9,82.5,831.5,82.5z M831.5,89.2h5.1c4.5,0,7.9,1.3,10.1,3.8c2.3,2.5,3.4,5.7,3.4,9.6
		c0,4-1.4,7.2-4.2,9.6c-2.8,2.5-7,3.7-12.6,3.7c-3.9,0-7.6-0.5-11-1.4c-3.4-0.9-6.2-2.2-8.4-3.9l2.6-2c3.9,2.7,9.4,4,16.7,4
		c4.7,0,8.1-0.9,10.2-2.8c2.1-1.8,3.2-4.3,3.2-7.2c0-3-0.8-5.4-2.4-7.2c-1.6-1.8-4.2-2.8-7.8-2.8h-5c-6.3,0-11.3-1.9-14.8-5.7
		c-3.6-3.8-5.3-8.6-5.3-14.3c0-5.8,2.1-10.6,6.2-14.3c4.1-3.8,9.9-5.7,17.3-5.7c4.9,0,9.5,0.7,13.8,2c4.3,1.4,7.8,3.3,10.7,5.7
		l-2.6,2.1c-2.5-2.1-5.7-3.7-9.5-4.8c-3.8-1.1-8-1.7-12.4-1.7c-6.5,0-11.5,1.6-14.9,4.7c-3.4,3.1-5.2,7.1-5.2,12
		c0,4.8,1.5,8.8,4.4,12C821.9,87.6,826.1,89.2,831.5,89.2z"/>
</g>
</svg>
