<svg id="art" xmlns="http://www.w3.org/2000/svg" viewBox="0 0 274.52 454.52"><defs><style>.cls-1,.cls-2,.cls-3{fill:none;stroke:#fff;}.cls-1,.cls-3{stroke-miterlimit:10;}.cls-2{stroke-linejoin:round;}.cls-3{stroke-dasharray:9 2;}</style></defs><title>SV-elemental-alters</title><rect class="cls-1" x="121.55" y="42.84" width="48.11" height="58.85"/><circle class="cls-1" cx="144.88" cy="62.63" r="2"/><ellipse class="cls-1" cx="144.88" cy="89.8" rx="8.81" ry="6.37"/><path class="cls-1" d="M150.55,62.63a5.67,5.67,0,0,0-11.34,0"/><circle class="cls-1" cx="134.63" cy="69.76" r="2.38"/><path class="cls-1" d="M155.87,89.8a7.54,7.54,0,0,0-3.1-5.88,1.6,1.6,0,0,0,.38-1,1.57,1.57,0,0,0-1.57-1.57,1.55,1.55,0,0,0-1.47,1,13.92,13.92,0,0,0-10.46,0,1.59,1.59,0,0,0-1.47-1A1.56,1.56,0,0,0,137,83.92a7.12,7.12,0,0,0,0,11.74,1.53,1.53,0,0,0-.36,1,1.57,1.57,0,0,0,3,.59,14,14,0,0,0,10.5,0,1.56,1.56,0,1,0,2.66-1.57A7.53,7.53,0,0,0,155.87,89.8Z"/><circle class="cls-1" cx="154.04" cy="69.76" r="2.38"/><path class="cls-1" d="M121.39,81.68c-1.69,0-3,1.81-3,4s1.36,4,3,4"/><path class="cls-1" d="M169.92,89.76c1.69,0,3.05-1.81,3.05-4s-1.36-4-3.05-4"/><polyline class="cls-1" points="120.01 106.68 115.51 102.51 101.01 102.51 111.87 112.47"/><polyline class="cls-1" points="102.78 104.45 89.73 104.45 104.87 117.34"/><polyline class="cls-1" points="91.43 106.22 80.47 106.22 97.76 122.05"/><path class="cls-1" d="M144.51,103.85H124.58l-30,20.81,12,9.73s1.26-1.07,3.37-2.68c5.32-4.06,16-11.54,25.33-13.89h8.77"/><path class="cls-1" d="M72,165.17c-2,7.79-3,15.23-.79,23.93"/><path class="cls-1" d="M81.67,140.51c-2.83,6.2-6.19,13.18-8.54,20.73"/><path class="cls-1" d="M94.62,124.66s-5.4,1.87-10.94,11.87"/><path class="cls-1" d="M76.88,119.11c4.45-4.77,8.24-8.56,8.24-8.56"/><path class="cls-1" d="M60.09,143.26a34.4,34.4,0,0,1,3.5-8.39c1.7-3,6.55-8.85,10.92-13.53"/><path class="cls-1" d="M58.28,150c-.72,2.86-1.1,4.86-1.1,4.86-1.5,7.29-2,21.26-1.9,28.74,0,0-.3,3,3.07,2.76s5.29-.59,8.37.44c3.56,1.18,7.44,3.57,8.18,5.63s2,4.65-.25,7.63"/><path class="cls-1" d="M67.65,221.92,56.78,195a30.59,30.59,0,0,1-1.26-6.84"/><path class="cls-1" d="M80,115.86s5.63-1.07,8.39,1.25l2.77,2.33"/><path class="cls-1" d="M77.25,118.72s5.62-1.07,8.39,1.25l2.77,2.32"/><path class="cls-1" d="M80.54,123.12s2.23-.54,3.32.62L85,124.89"/><path class="cls-1" d="M70.85,125.14a8.06,8.06,0,0,1,2.3.13l.76.24"/><path class="cls-1" d="M67.75,129.35s5.63-1.07,8.4,1.25"/><path class="cls-1" d="M64.43,133.69s5.63-1.07,8.4,1.25"/><path class="cls-1" d="M61.61,139s5.63-1.07,8.4,1.25"/><path class="cls-1" d="M60,143.16s5.63-1.07,8.39,1.25"/><path class="cls-1" d="M56.41,161.23s5.72-1.07,8.75-.26"/><path class="cls-1" d="M56.05,167s5.72-1.07,8.76-.27"/><path class="cls-1" d="M55.54,172.36S60.87,170,64,170.11"/><path class="cls-1" d="M55.2,178s4.95-3.91,8.36-2.64"/><path class="cls-1" d="M57.87,197.35a7.1,7.1,0,0,1,6.5-3.18"/><path class="cls-1" d="M60,202.9s2.44-5.48,6.7-4.4"/><path class="cls-1" d="M61.93,207.3s2.44-5.48,6.7-4.4"/><path class="cls-1" d="M63.08,211.23s2.44-5.49,6.7-4.4"/><ellipse class="cls-1" cx="61.02" cy="239.15" rx="2.46" ry="3.84"/><line class="cls-1" x1="61.11" y1="235.31" x2="66.18" y2="235.31"/><line class="cls-1" x1="60.97" y1="242.99" x2="67.62" y2="243.06"/><line class="cls-1" x1="86.13" y1="242.99" x2="89.82" y2="242.99"/><polyline class="cls-1" points="166.85 106.68 171.35 102.51 185.85 102.51 174.99 112.47"/><polyline class="cls-1" points="184.08 104.45 197.13 104.45 181.99 117.34"/><polyline class="cls-1" points="195.43 106.22 206.39 106.22 189.09 122.05"/><path class="cls-1" d="M142.34,103.85h19.94l30,20.81-12,9.73s-15.7-13.29-28.71-16.57h-8.76"/><path class="cls-1" d="M178.89,132.61A41,41,0,0,1,189.51,160c0,16.68-10.2,31.11-25,38.06,0,0-3.15,1.32-4,1.57"/><path class="cls-1" d="M110.84,131.84A41,41,0,0,0,99.51,160c0,16.68,10.19,31.12,25,38.06a32.51,32.51,0,0,0,3.78,1.63,72.85,72.85,0,0,0,32-.13V209.7"/><line class="cls-1" x1="128.61" y1="209.7" x2="128.61" y2="199.37"/><line class="cls-1" x1="130.45" y1="202.31" x2="130.45" y2="209.7"/><line class="cls-1" x1="132.29" y1="204.4" x2="132.29" y2="210.86"/><line class="cls-1" x1="134.63" y1="206.65" x2="134.63" y2="210.29"/><line class="cls-1" x1="158.31" y1="207.3" x2="158.31" y2="199.91"/><line class="cls-1" x1="156.47" y1="204.57" x2="156.47" y2="200.57"/><line class="cls-1" x1="154.14" y1="203.23" x2="154.14" y2="200.85"/><rect class="cls-1" x="98.81" y="216.54" width="90.61" height="5.3"/><path class="cls-1" d="M159,120.68s-16.5,4-28.84-.67"/><path class="cls-1" d="M133.23,121.68s-12.07,10.5-14.7,33.16,3.51,33.34,15.79,43.34c0,0,2.2,2.2,9.1,3.25"/><path class="cls-1" d="M136.15,122.18A54.68,54.68,0,0,0,123.48,155c-1,20.5,6,34.67,8.83,38.17a25.07,25.07,0,0,0,5.17,5,45,45,0,0,0,5.33,2.79"/><path class="cls-1" d="M138.72,122.22a54.72,54.72,0,0,0-12.67,32.84c-1,20.5,6,34.66,8.84,38.16a24.9,24.9,0,0,0,5.16,5,23.51,23.51,0,0,0,5.93,2.54"/><circle class="cls-1" cx="118.86" cy="117.51" r="2.76"/><circle class="cls-1" cx="108.67" cy="123.86" r="2.76"/><circle class="cls-1" cx="167.52" cy="117.51" r="2.76"/><circle class="cls-1" cx="177.71" cy="123.86" r="2.76"/><rect class="cls-1" x="66.28" y="394.32" width="150.42" height="4.4"/><polyline class="cls-1" points="95.78 390.21 66.28 390.21 66.28 385.81 96.64 385.81"/><polyline class="cls-1" points="96.31 385.8 76.02 385.8 76.02 376.65 98.55 376.65"/><line class="cls-1" x1="164.11" y1="390.21" x2="119.92" y2="390.21"/><polyline class="cls-1" points="187.37 385.81 216.7 385.81 216.7 390.21 188.39 390.21"/><polyline class="cls-1" points="148.13 385.81 148.84 385.81 164.23 385.81"/><polyline class="cls-1" points="120.03 385.81 138.32 385.81 138.5 385.81"/><polyline class="cls-1" points="87.15 353.61 87.15 350.97 88.83 350.97"/><line class="cls-1" x1="87.15" y1="376.69" x2="87.15" y2="357.54"/><polyline class="cls-1" points="193.34 304.4 196.95 304.4 196.95 343.72"/><polyline class="cls-1" points="87.15 343.62 87.15 304.4 92.01 304.4"/><line class="cls-1" x1="119.51" y1="290.51" x2="97.71" y2="394.15"/><line class="cls-1" x1="119.96" y1="335.02" x2="119.96" y2="394.39"/><polyline class="cls-1" points="95 394.04 116.74 290.51 119.96 290.51 119.96 326.23"/><ellipse class="cls-1" cx="111.95" cy="373.5" rx="5.66" ry="5.3"/><ellipse class="cls-1" cx="113.44" cy="356.32" rx="4.5" ry="4.21"/><ellipse class="cls-1" cx="143.25" cy="384.11" rx="6.36" ry="2.63"/><ellipse class="cls-1" cx="114.96" cy="337.45" rx="3.16" ry="2.96"/><polyline class="cls-1" points="187.91 385.8 208.21 385.8 208.21 376.65 185.67 376.65"/><line class="cls-1" x1="164.72" y1="290.51" x2="186.52" y2="394.15"/><polyline class="cls-1" points="189.23 394.04 172.3 313.42 167.49 290.51 164.27 290.51 164.27 394.39"/><ellipse class="cls-1" cx="172.27" cy="373.5" rx="5.66" ry="5.3"/><ellipse class="cls-1" cx="170.79" cy="356.32" rx="4.5" ry="4.21"/><ellipse class="cls-1" cx="169.26" cy="337.45" rx="3.16" ry="2.96"/><path class="cls-1" d="M86.74,351a3.92,3.92,0,1,1,0-7.82"/><path class="cls-1" d="M89.89,225.73V249l-.07.93H88.07a3.92,3.92,0,1,0,0,7.83,4.91,4.91,0,0,0,2.64-1s4.46,4.71,8.12,6.86a19.68,19.68,0,0,0,10,2.48c1.9-.12,5.73-1.72,7.12-2.14s5.09-1.9,7.45-.76a5.68,5.68,0,0,1,1.77,1.47c.33.68.33,1.27,2.61,1.52s4,.25,4.67-.34.59-1.6,2.78-1.73a7.64,7.64,0,0,1,5.22,1.94,28,28,0,0,0,6.61,3.54c1.43.42,3.79,1.6,5.73,1.72a13.87,13.87,0,0,0,7.45-1.81c3.07-1.6,6.23-2.19,8.33-1.64s4.38,1.73,6.91,2.28,5.51-.85,6.4-1.31a7.4,7.4,0,0,1,3.15-1.26c1.35-.09,5.18.5,6.7,1.85a8.28,8.28,0,0,0,3.85,1.73,20.29,20.29,0,0,0,3.35.37,23.64,23.64,0,0,0,5.64-.42l.34-.16.25-7.16"/><path class="cls-1" d="M90,226.22a2.19,2.19,0,1,1,0-4.37h8.34"/><polyline class="cls-1" points="197 376.69 197 350.97 195.67 350.97"/><path class="cls-1" d="M197.41,351a3.92,3.92,0,1,0,0-7.82"/><path class="cls-1" d="M197.41,304.42a3.92,3.92,0,1,0,0-7.82h-1.78s-.06-3.18,0-3.18v-22.2"/><path class="cls-1" d="M88.52,293.42V257.78"/><path class="cls-1" d="M86.74,304.42a3.92,3.92,0,1,1,0-7.82h1.78"/><path class="cls-1" d="M194.18,226.22a2.19,2.19,0,1,0,0-4.37h-8.34"/><path class="cls-1" d="M99.39,398.74A9.13,9.13,0,0,1,85,398.68"/><path class="cls-1" d="M201.06,398.74a9.13,9.13,0,0,1-14.41-.06"/><line class="cls-1" x1="74.36" y1="390.26" x2="74.38" y2="393.94"/><line class="cls-1" x1="78.66" y1="390.26" x2="78.68" y2="393.94"/><line class="cls-1" x1="82.95" y1="390.26" x2="82.97" y2="393.94"/><line class="cls-1" x1="87.25" y1="390.26" x2="87.27" y2="393.94"/><line class="cls-1" x1="91.54" y1="390.26" x2="91.57" y2="393.94"/><line class="cls-1" x1="121.61" y1="390.26" x2="121.63" y2="393.94"/><line class="cls-1" x1="125.91" y1="390.26" x2="125.93" y2="393.94"/><line class="cls-1" x1="130.2" y1="390.26" x2="130.22" y2="393.94"/><line class="cls-1" x1="134.5" y1="390.26" x2="134.52" y2="393.94"/><line class="cls-1" x1="138.79" y1="390.26" x2="138.82" y2="393.94"/><line class="cls-1" x1="143.09" y1="390.26" x2="143.11" y2="393.94"/><line class="cls-1" x1="147.38" y1="390.26" x2="147.41" y2="393.94"/><line class="cls-1" x1="151.68" y1="390.26" x2="151.7" y2="393.94"/><line class="cls-1" x1="155.97" y1="390.26" x2="156" y2="393.94"/><line class="cls-1" x1="160.27" y1="390.26" x2="160.29" y2="393.94"/><line class="cls-1" x1="190.34" y1="390.26" x2="190.36" y2="393.94"/><line class="cls-1" x1="194.63" y1="390.26" x2="194.66" y2="393.94"/><line class="cls-1" x1="198.93" y1="390.26" x2="198.95" y2="393.94"/><line class="cls-1" x1="203.22" y1="390.26" x2="203.25" y2="393.94"/><line class="cls-1" x1="207.52" y1="390.26" x2="207.54" y2="393.94"/><path class="cls-1" d="M125.12,213.55a3.92,3.92,0,1,0-7.83,0v2.5"/><path class="cls-1" d="M125.34,213.55a3.92,3.92,0,1,1,7.82,0"/><path class="cls-1" d="M133.38,213.55a3.92,3.92,0,1,1,7.83,0"/><path class="cls-1" d="M141.43,213.55a3.92,3.92,0,1,1,7.82,0"/><path class="cls-1" d="M149.47,213.55a3.92,3.92,0,1,1,7.82,0"/><path class="cls-1" d="M157.51,213.55a3.92,3.92,0,1,1,7.83,0"/><path class="cls-1" d="M165.56,213.55a3.92,3.92,0,1,1,7.82,0v2.64"/><line class="cls-1" x1="89.66" y1="235.31" x2="85.86" y2="235.22"/><line class="cls-1" x1="163.96" y1="376.65" x2="120.25" y2="376.65"/><rect class="cls-1" x="104.08" y="212.1" width="4.23" height="4.37"/><rect class="cls-1" x="179.08" y="212.1" width="4.23" height="4.37"/><line class="cls-1" x1="136.78" y1="87.59" x2="145.13" y2="95.94"/><line class="cls-1" x1="139.9" y1="84.62" x2="149.99" y2="94.71"/><line class="cls-1" x1="144.89" y1="83.53" x2="153.09" y2="91.72"/><line class="cls-1" x1="153.09" y1="87.59" x2="144.74" y2="95.94"/><line class="cls-1" x1="149.97" y1="84.62" x2="139.88" y2="94.71"/><line class="cls-1" x1="144.98" y1="83.53" x2="136.78" y2="91.72"/><path class="cls-2" d="M135.26,177s1.38,1.9,5.31,2.29"/><circle class="cls-1" cx="143.39" cy="31.23" r="1.95"/><path class="cls-1" d="M142.14,28s.42-1.6,2.78-1.88,3.41.77,3.21,2.44-1.19,2-1.47,2.08c0,0,1.19,1.81.63,2.79a2.35,2.35,0,0,1-3,.62s-3,2.79-4.46.63.77-2.57.77-2.57a2.83,2.83,0,0,1-1.67-3C139.08,26.71,141,27.06,142.14,28Z"/><path class="cls-1" d="M144.92,37.49s0-1.94,1.54-2.15,1.46,1.46.69,2.08S144.92,37.49,144.92,37.49Z"/><path class="cls-1" d="M144.65,40.56s-.56-1.4,1.46-1.33,2.22,1.26.83,1.67A2.53,2.53,0,0,1,144.65,40.56Z"/><path class="cls-1" d="M142.84,37.88s-1.81-.89-2.16.06,2.09,2.16,2.71,1.78S142.84,37.88,142.84,37.88Z"/><line class="cls-1" x1="144.16" y1="34.71" x2="144.16" y2="42.71"/><circle class="cls-1" cx="122.8" cy="37.22" r="1.74"/><circle class="cls-1" cx="127.4" cy="33.85" r="2.37"/><circle class="cls-1" cx="134.3" cy="35.03" r="3.05"/><circle class="cls-1" cx="150.77" cy="35.61" r="1.74"/><circle class="cls-1" cx="162.39" cy="36.85" r="1.74"/><path class="cls-1" d="M161.84,42.61s-1.52-2.38-.2-4.08"/><path class="cls-1" d="M149.59,37.21s-.37.95.09,1.46,2.5,1.81,1.44,4"/><path class="cls-1" d="M124.17,42.78s1.18-.89-.69-1.84-.83-1.95-.83-1.95"/><path class="cls-1" d="M126.39,32s1.52.86.77,1.73.64,1.89,1.44,1.92"/><path class="cls-1" d="M128.34,42.67A1.36,1.36,0,0,0,129,40.6c-.84-1.5-2.62-2-2.27-2.85a13.75,13.75,0,0,1,.63-1.35"/><path class="cls-1" d="M137,35.62s0-1.43-1.9-1.66-3.19.86-3.28,2.27.35.83.35.83"/><circle class="cls-1" cx="134.7" cy="36.49" r="1.14"/><circle class="cls-1" cx="157.05" cy="33.53" r="3.05"/><path class="cls-1" d="M159.78,34.12s0-1.43-1.9-1.66-3.19.86-3.28,2.27.35.83.35.83"/><circle class="cls-1" cx="157.45" cy="34.99" r="1.14"/><path class="cls-1" d="M134.9,42.61s1.78-1-.69-2.15-3.34-1.84-3.05-2.36a4.18,4.18,0,0,1,.78-1"/><path class="cls-1" d="M157.76,42.76s.93-1.94-.69-2.81-1.88-2.13-.31-3.25"/><ellipse class="cls-1" cx="142.18" cy="162.56" rx="8.57" ry="4.28"/><path class="cls-1" d="M145.49,168.64a8.54,8.54,0,0,0,3.46,4.42"/><path class="cls-1" d="M151,166.29a12.39,12.39,0,0,1,5.53,2.35"/><line class="cls-1" x1="156.83" y1="161.73" x2="164.02" y2="161.73"/><path class="cls-1" d="M155.45,156.62a9.36,9.36,0,0,0,4-1.11"/><path class="cls-1" d="M146.88,155.23s0-1.79,2.62-2.48"/><path class="cls-1" d="M137.48,174.45s-3.87,1.65-3.73,3.87,6.77,2.62,8.15,2.35,4.7-1.52,4-2.49-1.94-.28-3.73-.42-3,0-3.46-1A23.86,23.86,0,0,0,137.48,174.45Z"/><path class="cls-1" d="M156.14,173.62a5.37,5.37,0,0,1,3.18-1.52c2.07-.28,1.65-1.52.55-3.32s-2.07-2.07-2.07-2.07,3,2.76,4,2.35,1.25-2.22,2.35-2.77,4.15-1.52,4.57.69-2.35,6.5-4.84,7.05-6.36,1.8-7,1.38S156.14,174.31,156.14,173.62Z"/><path class="cls-1" d="M150.06,160.21s11.88-.42,12.71-3-.1-2.5-2.5-4.46c-2.88-2.36-2.7,0-2.7,0s1.88.59-1.16,1-4.42-.14-5.25.83-3.87,4-3.87,4Z"/><path class="cls-1" d="M153.1,163s7.87.69,9.67,2.22,5.67,1.1,6.22-.28-.41-3.18-1.52-3.32a9.22,9.22,0,0,1-1.52-.28s4.29-1.52,4.29-4-.7-3.87-1.94-2.77-.55,3.18-2.07,2.9-2.49-1-3.46-.27-1.93,1.24-1.93,1.24"/><path class="cls-1" d="M141.76,167.67s-1.52,5.53,1.25,7.61a4.38,4.38,0,0,0,6.22-1,3.73,3.73,0,0,1,2.48-1.8c.83-.14-1-1.52-1-1.52a5.78,5.78,0,0,1-4.29-4.7"/><path class="cls-1" d="M145.53,179.44s4.11,1.5,5.77-.29,4.56-1.66,5.53-1.8,1-2.9-.69-3.73a11.57,11.57,0,0,0-4.43-1.11"/><path class="cls-1" d="M139,168.23s-5.25,1.52-6.36,6.35,1.93,1.82,1.93,1.82"/><ellipse class="cls-2" cx="140.71" cy="232.98" rx="13.18" ry="8.51"/><ellipse class="cls-2" cx="140.71" cy="232.98" rx="13.18" ry="8.51"/><path class="cls-2" d="M127.51,232.37l0,5.09c0,4.7,5.9,8.52,13.18,8.52s13.18-3.82,13.18-8.52V233"/><path class="cls-2" d="M130.76,243.07l1.5,6.69s9.91,6,18.5-1l.75-6.37"/><line class="cls-2" x1="134.07" y1="244.94" x2="134.98" y2="250.83"/><line class="cls-2" x1="136.9" y1="245.86" x2="137.61" y2="251.59"/><line class="cls-2" x1="139.76" y1="246.33" x2="140.24" y2="252.11"/><line class="cls-2" x1="149.17" y1="244.3" x2="148.25" y2="250.72"/><line class="cls-2" x1="146.34" y1="245.3" x2="145.62" y2="251.55"/><line class="cls-2" x1="143.47" y1="245.82" x2="142.99" y2="252.11"/><ellipse class="cls-2" cx="173.08" cy="233.45" rx="10.8" ry="6.98"/><ellipse class="cls-2" cx="173.08" cy="233.45" rx="10.8" ry="6.98"/><path class="cls-2" d="M162.5,235l.76,6.22c0,3.86,4.83,7,10.8,7s10.8-3.12,10.8-7l-.88-7.87"/><path class="cls-2" d="M168.57,247.29l.84,4s7,4.92,13-.82l.53-5.22"/><line class="cls-2" x1="170.76" y1="247.91" x2="171.32" y2="252.14"/><line class="cls-2" x1="172.66" y1="248.06" x2="173.16" y2="252.76"/><line class="cls-2" x1="174.67" y1="248.45" x2="175.01" y2="253.19"/><line class="cls-2" x1="181.21" y1="246.53" x2="180.63" y2="252.05"/><line class="cls-2" x1="179.28" y1="247.61" x2="178.78" y2="252.72"/><line class="cls-2" x1="177.27" y1="248.03" x2="176.94" y2="253.19"/><ellipse class="cls-2" cx="104.58" cy="233.57" rx="10.8" ry="6.98"/><ellipse class="cls-2" cx="104.58" cy="233.57" rx="10.8" ry="6.98"/><path class="cls-2" d="M94,234.93l.76,5.64c0,3.49,4.36,5.56,10.33,5.56s10.3-3.52,10.3-7l.09-5.69"/><path class="cls-2" d="M97.63,244.81l1.1,4.8s7,4.92,13-.82l.6-4.69"/><line class="cls-2" x1="100.11" y1="245.77" x2="100.64" y2="250.49"/><line class="cls-2" x1="101.98" y1="246.41" x2="102.48" y2="251.11"/><line class="cls-2" x1="104.07" y1="246.18" x2="104.33" y2="251.53"/><line class="cls-2" x1="110.52" y1="244.88" x2="109.94" y2="250.4"/><line class="cls-2" x1="108.6" y1="245.95" x2="108.1" y2="251.07"/><line class="cls-2" x1="106.59" y1="246.38" x2="106.26" y2="251.53"/><path class="cls-2" d="M131.21,266.39l2.55,10.66s8.37,5.72,17-.53l.52-5.29"/><path class="cls-2" d="M135.7,277.75c.18-.35-1.58-13.3-1.58-13.3"/><line class="cls-2" x1="137.69" y1="278.59" x2="136.94" y2="264.21"/><line class="cls-2" x1="140.23" y1="279.05" x2="140.33" y2="266.35"/><line class="cls-2" x1="144.09" y1="278.87" x2="144.41" y2="268.5"/><line class="cls-2" x1="146.42" y1="269.39" x2="146.13" y2="278.59"/><line class="cls-2" x1="148.31" y1="277.69" x2="148.38" y2="269.89"/><path class="cls-2" d="M168.34,268.33l2.2,6.41s7.5,4.4,12.16-.52l1-6.21"/><line class="cls-2" x1="171.77" y1="269.3" x2="172.22" y2="275.39"/><line class="cls-2" x1="174.38" y1="269.95" x2="174.78" y2="276.03"/><line class="cls-2" x1="177.04" y1="270.2" x2="177.17" y2="276.3"/><line class="cls-2" x1="179.24" y1="269.81" x2="179.37" y2="275.91"/><path class="cls-2" d="M99.71,264.58l2.2,6.41s7.51,4.4,12.17-.52l1-6.21"/><line class="cls-2" x1="103.14" y1="265.55" x2="103.6" y2="271.64"/><line class="cls-2" x1="105.76" y1="266.2" x2="106.16" y2="272.28"/><line class="cls-2" x1="108.42" y1="266.45" x2="108.55" y2="272.55"/><line class="cls-2" x1="110.62" y1="266.06" x2="110.75" y2="272.16"/><path class="cls-2" d="M90.18,249.93s.76-.06,2.69,1.87,2.46,2.58,4,3,1.74,2.21,2.46,2.45c.17.06,2.51-1.17,3.8.59s3.45.35,4.1-.12,2.22,0,2.69.35,2.46-.7,3.51-1.52,3.8-3.74,6.67-2.57a13.52,13.52,0,0,1,4.45,2.86s2.11-.93,2.34,1.18c0,0,2.34.81,3.45-.41s5.68-2.81,8.14-1.53,5.61,4.74,7,5.21,3.51-.47,3.69.94-.53,1.7-.53,1.7a2.14,2.14,0,0,0,2.16,1.4c1.82.06,6-.59,7.67-1.76s4.8-4,8.6-2,4.1,2.57,4.1,2.57,1.11-1.52,1.81-.88a1.44,1.44,0,0,1,.18,1.64s2.87,1,4.27-.64l0-.53a10.07,10.07,0,0,1,8.33-3.17c5,.67,10.33,2.83,13.83,4.17s6.17.83,5.34-2c0,0-.67-4.84-3.67-7s-5-7.67-3.17-8a15.81,15.81,0,0,1,3.28-.27"/><path class="cls-1" d="M200.13,237.88s-5.25-.37-4.37-2.75a39.89,39.89,0,0,1,3-5.87c.5-.88,1.19-3.08-1.31-3.08l-3,0"/><path class="cls-1" d="M143.18,158.11s-.55-2.35.83-3.48.87-4.5.87-4.5a3.29,3.29,0,0,0,3.13-.37,3.83,3.83,0,0,0,1.37-2s-.25,2.37,1.88,2.25,4,2.62,1.5,3.75"/><path class="cls-1" d="M140.38,157.92s-1.22-6.1-3.65-7.13-3.19,1.78-3.19,1.78"/><path class="cls-1" d="M135.69,156s-2-4-4.31-4.41-2.9,1.31-2.06,2.81a9.31,9.31,0,0,0,3.75,3.66"/><path class="cls-1" d="M129.79,158.67a4.18,4.18,0,0,1,1.87,1.21c.47.75-.28,1.6-1.78,1.32s-3.65-1.88-3.09-3.57.37-3.18,2.53-3.28"/><path class="cls-1" d="M126.37,165.82s2.76,1.38,4.73.25a8,8,0,0,0,2.66-2.18"/><path class="cls-1" d="M129.6,163.63s2.63.38,3.94-.46"/><path class="cls-1" d="M132.23,168.88a14,14,0,0,0,5.25-2.57"/><path class="cls-1" d="M130.73,170.1a2.68,2.68,0,0,0-1.88,3c.38,2.35,3.47,2.25,3.47,2.25"/><path class="cls-1" d="M138.51,149.2c2.53,1.87,3,8.91,3,8.91a10,10,0,0,1-.23,4.27"/><path class="cls-1" d="M143.38,147.42A68.19,68.19,0,0,0,142,158.14"/><ellipse class="cls-1" cx="137.29" cy="147.98" rx="2.81" ry="1.97" transform="translate(-59.51 192.88) rotate(-60)"/><ellipse class="cls-1" cx="144.94" cy="146.82" rx="1.66" ry="2.37" transform="translate(-60.55 128.38) rotate(-40.24)"/><ellipse class="cls-1" cx="138.41" cy="142.94" rx="1.66" ry="2.37" transform="translate(-48.59 210.92) rotate(-65.9)"/><path class="cls-1" d="M145.58,145.1a1.93,1.93,0,0,0-.6-1.48c-.88-1-2.14-1.25-2.82-.64s-.52,1.91.36,2.88l.39.39"/><path class="cls-1" d="M142.18,158.27s.2,3.13,1.61,4.75"/><path class="cls-1" d="M128.66,172.12a3.65,3.65,0,0,1-2-2.14"/><path class="cls-1" d="M120.68,195.22s-1.34-1.33-2.47-5.45c0,0-2.58,1.44-3.09-.06s.41-4.78,1-5.76,2.06-.26,2.93.46,3.82,2.63,2.58,3.55a7.29,7.29,0,0,1-1.75,1.09s.93,2.78,3,3.6a17.49,17.49,0,0,0,3,1S125.93,195.53,120.68,195.22Z"/><path class="cls-1" d="M162.69,194.88c1.26-1.16-3.93-6.25-4.87-6.87s-2.63.12-3.06.94-2.94,3.56-1.5,5a2.1,2.1,0,0,0,2.81.37l.44,1L156,198s1,1.62,2.31.62a2.71,2.71,0,0,0,.19-2.37l-.44-1.63.62-.37S161,196.45,162.69,194.88Z"/><polygon class="cls-1" points="164.57 189.88 166.13 181.51 169.82 178.88 170.76 184.07 166.69 190.88 164.57 189.88"/><polyline class="cls-1" points="164.57 189.88 161.88 188.63 161.69 180.7 166.69 175.88 169.82 178.88"/><path class="cls-1" d="M142.74,180.56v4.63s-1.45.07-2.24,2.24-.73,1.73-.73,1.73-.43-3.18-2.16-2.53-4.34,4-4.34,4"/><path class="cls-1" d="M155.82,187.79a5.75,5.75,0,0,0-3.9-2.67,7.73,7.73,0,0,0-5,.86,7.4,7.4,0,0,0-3.83-1"/><line class="cls-1" x1="148.67" y1="180.2" x2="148.74" y2="185.12"/><path class="cls-1" d="M125.44,193.32a1.76,1.76,0,0,1,2.07-1.44"/><path class="cls-1" d="M162.44,192.82s1.57.5,1.69-2.87"/><path class="cls-1" d="M168.63,187.82s3.63-.19,4.5,1.19,3.31.56,3.31.56l.63-.44"/><path class="cls-1" d="M118.7,174.76s-13.93-2.58-19.26-13.31"/><path class="cls-1" d="M118.47,169.6S104.93,167,99.76,156.29"/><path class="cls-1" d="M100.26,151.38A27.09,27.09,0,0,1,121.88,140"/><path class="cls-1" d="M100.63,157.51s1-5.13,7.75-7.5a40.47,40.47,0,0,1,11.13-2.5"/><path class="cls-1" d="M101.76,159s2.87-5,7.12-6,9.75-1.63,9.75-1.63"/><path class="cls-1" d="M102.76,160.38s3.12-4.37,7.87-5.37a41.12,41.12,0,0,1,7.63-1"/><path class="cls-1" d="M151.38,143.26a31.67,31.67,0,0,1,9.88,3.87"/><path class="cls-1" d="M174.51,154.63s4,.75,9.25,4.88"/><path class="cls-1" d="M134,140.63s-3.63-.87-5-.5"/><path class="cls-1" d="M132.13,147.63a18.55,18.55,0,0,0-5.12-.37"/><path class="cls-1" d="M153.76,121.88s5.12,3.75,6.75,7.38"/><path class="cls-1" d="M162.38,133.76a19.24,19.24,0,0,1,1.63,5.87"/><path class="cls-1" d="M162.13,123.76s2.63,3.75,2.88,5.5"/><path class="cls-1" d="M166.39,133.34s2.1,4.07,2.11,5.84"/><path class="cls-1" d="M165,143.41s.93,4.49.47,6.19"/><path class="cls-1" d="M169.32,144.47s1.49,4.33,1.25,6.08"/><path class="cls-1" d="M64.85,214.14s-.43-3.85,3.11-4.71c0,0,1.71,2,.64,4a3.06,3.06,0,0,1-2.68,1.82Z"/><path class="cls-1" d="M65.57,214.46a9.12,9.12,0,0,0,2.22-4.59"/><path class="cls-1" d="M63.38,214.91s-1.71-.62-2.68,2,1.4,4.67,1.4,4.67,3-1,3.11-3.54-.35-3.23-.35-3.23Z"/><path class="cls-1" d="M62.1,221.3s-.08-4.56,2.26-6.08"/><path class="cls-1" d="M51.14,187.69s-3.86-.36-4-4c0,0,2.33-1.27,4,.16a3.09,3.09,0,0,1,1.25,3Z"/><path class="cls-1" d="M51.6,187.05a9.19,9.19,0,0,0-4.06-3.1"/><path class="cls-1" d="M53.38,187.66s-1.71-.62-2.68,2,1.4,4.67,1.4,4.67,3-1,3.11-3.54-.35-3.23-.35-3.23Z"/><path class="cls-1" d="M52.1,194.05S52,189.49,54.36,188"/><path class="cls-1" d="M81.84,220.34s-9.83-1.33-16,2.84c0,0-.33,22.95,5.33,26.45s13,.34,14.34-3,.33-17.16-1-21.16l-2.74-5.32"/><path class="cls-1" d="M55,176.42s-2.56,1-3.22,3.05a8.34,8.34,0,0,0,.44,5.46c.49,1.09.93,2.19,2.07,2.51A66.87,66.87,0,0,0,62,189.3c2,.22,6.44,2.08,8.08,3.82s3.11,3.22,3.11,3.22l.17.53a174.08,174.08,0,0,0,7,20.2"/><path class="cls-1" d="M76.54,117.53a6.46,6.46,0,0,0,.39,2.64c.46.78,4.36,1.64,4.83,5.46s1.71,9.73,1.94,11.68-2.26-13-4.52-13.71-5.06-2.26-5.29-3.82a5.52,5.52,0,0,1,.54-3S76.93,115.5,76.54,117.53Z"/><path class="cls-1" d="M76.46,116.58a3.21,3.21,0,0,1,1.69-4.18s1.91,1,1.39,2.68a2.9,2.9,0,0,1-1.93,2Z"/><path class="cls-1" d="M77.14,116.62a6.45,6.45,0,0,0,1-3.87"/><path class="cls-1" d="M72.89,115.83s-.81-1.31-2.94.4a5.11,5.11,0,0,0-1.68,4.51,4.31,4.31,0,0,0,4.11-1.49A8.48,8.48,0,0,0,74,116.42Z"/><path class="cls-1" d="M68.42,120.51s2.51-3.8,5-4"/><path class="cls-1" d="M83.76,138.46A3.2,3.2,0,0,1,80,141s-1-1.93.36-3a2.89,2.89,0,0,1,2.72-.55Z"/><path class="cls-1" d="M83.22,138a6.55,6.55,0,0,0-3,2.66"/><path class="cls-1" d="M55.2,147s-1,4.44-4.38,4.42c0,0-.73-2.76.89-4.62s3-1.3,3-1.3Z"/><path class="cls-1" d="M54.7,146.42A12.27,12.27,0,0,0,51.13,151"/><path class="cls-1" d="M75.11,122.85s-1.54.07-1.08,2.76a5.12,5.12,0,0,0,3.12,3.66,4.29,4.29,0,0,0,.7-4.31,8.27,8.27,0,0,0-1.71-2.76Z"/><path class="cls-1" d="M77,129s-2.1-4-1.07-6.26"/><path class="cls-1" d="M83.71,136.56A3.21,3.21,0,0,0,87,139.68s1.33-1.72.17-3a2.9,2.9,0,0,0-2.58-1Z"/><path class="cls-1" d="M84.32,136.24a6.56,6.56,0,0,1,2.45,3.14"/><path class="cls-1" d="M67.73,160.2a3.2,3.2,0,0,0,0,4.5s2.16-.2,2.32-1.94a2.91,2.91,0,0,0-1-2.58Z"/><path class="cls-1" d="M68.38,160.42a6.48,6.48,0,0,1-.61,3.93"/><path class="cls-1" d="M81.49,128.71s1.44.51.23,2.95a5.11,5.11,0,0,1-4,2.61,4.3,4.3,0,0,1,.57-4.33,8.32,8.32,0,0,1,2.43-2.15Z"/><path class="cls-1" d="M77.86,134.07s3.18-3.27,2.83-5.69"/><path class="cls-1" d="M60,143.25s-2,.68-2.13,2.09a4.81,4.81,0,0,0,2.75,4.42c2.08,1.08,9.83,8.08,10.92,9.67s2.66,3.16,3,4.41,1.5,4.17-.67,5.09S71.09,170,71.09,170"/><path class="cls-1" d="M71.51,167.76s2.08.08,1.41-1.33-3.33-6.5-6.08-8.84-7.25-6.33-9.42-8.41-3-5.09-1.41-6.67,4.56-1.28,4.56-1.28"/><path class="cls-1" d="M82.29,220.41s1.77-1.22,0-2.27a10.79,10.79,0,0,0-5.15-1.78c-2-.16-7-.11-9.3-.44s-2.54-.33-2.54-.33l.49,2s.56.39,4.49.5,5.59-.56,8.19,0S82.4,219.3,82.29,220.41Z"/><path class="cls-1" d="M62.1,214.12s-3.49-1.65-2.91-4.37a4.81,4.81,0,0,1,3.67,1.57c1.27,1.66.57,2.65.57,2.65Z"/><path class="cls-1" d="M62.65,213.82a10.37,10.37,0,0,0-3.15-3.74"/><path class="cls-1" d="M70.93,214.86s-.62-1.17,1.46-2a4.05,4.05,0,0,1,3.9.67,3.58,3.58,0,0,1-2.71,2.45,6.56,6.56,0,0,1-2.66,0Z"/><path class="cls-1" d="M76.07,213.51s-3.73.26-4.83,2"/><path class="cls-1" d="M72.6,196.16s2.57,2.9.18,5.64c0,0-2.58-.68-2.81-2.87a3.06,3.06,0,0,1,1.13-3Z"/><path class="cls-1" d="M71.82,196.31a9.24,9.24,0,0,0,.84,5"/><path class="cls-1" d="M56.45,185.44s-1.69-.52-.85-3.16,3.92-2.88,3.92-2.88,1.69,2.63.24,4.65-2.24,2.36-2.24,2.36Z"/><path class="cls-1" d="M59.35,179.62s-2.83,3.57-2,6.15"/><path class="cls-1" d="M62,153.52s2.1,3.32-.64,5.64c0,0-2.43-1.11-2.35-3.33A3,3,0,0,1,60.52,153Z"/><path class="cls-1" d="M61.17,153.54a9.36,9.36,0,0,0,.09,5.15"/><path class="cls-1" d="M61.26,184.7s-.61-1.17,1.46-2a4.06,4.06,0,0,1,3.9.66,3.56,3.56,0,0,1-2.7,2.45,6.6,6.6,0,0,1-2.67,0Z"/><path class="cls-1" d="M66.4,183.34s-3.73.26-4.83,2"/><path class="cls-1" d="M55.67,189.34a3.42,3.42,0,0,0,3.11,3.75s1.71-1.62.64-3.15a3.29,3.29,0,0,0-2.68-1.45Z"/><path class="cls-1" d="M56.39,189.09a6.89,6.89,0,0,1,2.22,3.65"/><path class="cls-1" d="M74,169s-1.35.72-.41,2.74,3.53,1.67,3.53,1.67,1.16-2.45-.25-3.86S74.78,168,74.78,168Z"/><path class="cls-1" d="M76.94,173.28s-2.69-2.42-2.21-4.7"/><path class="cls-1" d="M70,193.74s-3.7.51-3.61,2.74a5.57,5.57,0,0,0,3.85-.4c1.53-1,1-1.93,1-1.93Z"/><path class="cls-1" d="M70.46,194.09a9,9,0,0,1-3.73,2.21"/><path class="cls-1" d="M74.49,162s-.36-1.21,1.86-1.66a4.11,4.11,0,0,1,3.71,1.34,3.69,3.69,0,0,1-3.18,1.83,6.87,6.87,0,0,1-2.62-.51Z"/><path class="cls-1" d="M79.84,161.62s-3.73-.43-5.18,1"/><path class="cls-1" d="M64.91,151.57s-.54-1.45,2.39-1.85a6.24,6.24,0,0,1,5,1.76,4.5,4.5,0,0,1-4.13,2,10.56,10.56,0,0,1-3.5-.73Z"/><path class="cls-1" d="M72,151.44s-5-.7-6.83.94"/><path class="cls-1" d="M59.57,147.63s-.36-1.22,1.87-1.66a4.07,4.07,0,0,1,3.7,1.34A3.67,3.67,0,0,1,62,149.13a6.8,6.8,0,0,1-2.62-.5Z"/><path class="cls-1" d="M64.92,147.29s-3.73-.43-5.18,1"/><path class="cls-1" d="M214.72,165.17c2,7.79,2.94,15.23.78,23.93"/><path class="cls-1" d="M205.06,140.51c2.83,6.2,6.19,13.18,8.54,20.73"/><path class="cls-1" d="M192.11,124.66s5.4,1.87,10.95,11.87"/><path class="cls-1" d="M209.86,119.11c-4.46-4.77-8.24-8.56-8.24-8.56"/><path class="cls-1" d="M226.64,143.26a34.38,34.38,0,0,0-3.49-8.39c-1.71-3-6.56-8.85-10.93-13.53"/><path class="cls-1" d="M228.45,150c.72,2.86,1.11,4.86,1.11,4.86,1.49,7.29,2,21.26,1.89,28.74,0,0,.31,3-3.07,2.76s-5.29-.59-8.37.44c-3.56,1.18-7.44,3.57-8.18,5.63s-2.05,4.65.25,7.63"/><path class="cls-1" d="M219.08,221.92,230,195a31.05,31.05,0,0,0,1.25-6.84"/><path class="cls-1" d="M206.74,115.86s-5.62-1.07-8.39,1.25l-2.77,2.33"/><path class="cls-1" d="M209.49,118.72s-5.63-1.07-8.4,1.25l-2.77,2.32"/><path class="cls-1" d="M206.19,123.12s-2.22-.54-3.32.62l-1.09,1.15"/><path class="cls-1" d="M215.88,125.14a8.06,8.06,0,0,0-2.3.13l-.76.24"/><path class="cls-1" d="M219,129.35s-5.63-1.07-8.4,1.25"/><path class="cls-1" d="M222.3,133.69s-5.63-1.07-8.39,1.25"/><path class="cls-1" d="M225.12,139s-5.63-1.07-8.4,1.25"/><path class="cls-1" d="M226.73,143.16s-5.62-1.07-8.39,1.25"/><path class="cls-1" d="M230.32,161.23s-5.71-1.07-8.75-.26"/><path class="cls-1" d="M230.68,167s-5.72-1.07-8.75-.27"/><path class="cls-1" d="M231.19,172.36s-5.32-2.34-8.46-2.25"/><path class="cls-1" d="M231.54,178s-5-3.91-8.37-2.64"/><path class="cls-1" d="M228.87,197.35a7.11,7.11,0,0,0-6.5-3.18"/><path class="cls-1" d="M226.7,202.9s-2.44-5.48-6.7-4.4"/><path class="cls-1" d="M224.8,207.3s-2.43-5.48-6.7-4.4"/><path class="cls-1" d="M223.65,211.23s-2.43-5.49-6.7-4.4"/><ellipse class="cls-1" cx="225.06" cy="242.71" rx="2.46" ry="4.64"/><line class="cls-1" x1="224.96" y1="238.06" x2="219.89" y2="238.06"/><line class="cls-1" x1="225.11" y1="247.36" x2="217.68" y2="247.31"/><path class="cls-1" d="M221.88,214.14s.43-3.85-3.1-4.71c0,0-1.72,2-.65,4a3.06,3.06,0,0,0,2.68,1.82Z"/><path class="cls-1" d="M221.16,214.46a9.3,9.3,0,0,1-2.22-4.59"/><path class="cls-1" d="M223.35,214.91s1.71-.62,2.69,2-1.41,4.67-1.41,4.67-3-1-3.11-3.54.35-3.23.35-3.23Z"/><path class="cls-1" d="M224.63,221.3s.08-4.56-2.25-6.08"/><path class="cls-1" d="M235.59,187.69s3.86-.36,4-4c0,0-2.33-1.27-4,.16a3.07,3.07,0,0,0-1.24,3Z"/><path class="cls-1" d="M235.13,187.05a9.26,9.26,0,0,1,4.06-3.1"/><path class="cls-1" d="M233.35,187.66s1.71-.62,2.69,2-1.41,4.67-1.41,4.67-3-1-3.11-3.54.35-3.23.35-3.23Z"/><path class="cls-1" d="M234.63,194.05s.08-4.56-2.25-6.08"/><path class="cls-1" d="M204.89,220.34s9.84-1.33,16,2.84c0,0,.34,22.95-5.33,26.45s-13,.34-14.33-3-.34-17.16,1-21.16l2.74-5.32"/><path class="cls-1" d="M231.75,176.42s2.57,1,3.22,3.05a8.21,8.21,0,0,1-.44,5.46c-.49,1.09-.92,2.19-2.07,2.51a66.87,66.87,0,0,1-7.7,1.86c-2,.22-6.44,2.08-8.08,3.82s-3.11,3.22-3.11,3.22l-.17.53a174.08,174.08,0,0,1-7,20.2"/><path class="cls-1" d="M210.2,117.53a6.64,6.64,0,0,1-.39,2.64c-.47.78-4.37,1.64-4.83,5.46s-1.72,9.73-1.95,11.68,2.26-13,4.52-13.71,5.06-2.26,5.29-3.82a5.52,5.52,0,0,0-.54-3S209.81,115.5,210.2,117.53Z"/><path class="cls-1" d="M210.28,116.58a3.21,3.21,0,0,0-1.69-4.18s-1.92,1-1.4,2.68a2.9,2.9,0,0,0,1.93,2Z"/><path class="cls-1" d="M209.59,116.62a6.52,6.52,0,0,1-1-3.87"/><path class="cls-1" d="M213.84,115.83s.81-1.31,2.94.4a5.11,5.11,0,0,1,1.68,4.51,4.29,4.29,0,0,1-4.1-1.49,8.44,8.44,0,0,1-1.59-2.83Z"/><path class="cls-1" d="M218.31,120.51s-2.51-3.8-4.95-4"/><path class="cls-1" d="M203,138.46a3.22,3.22,0,0,0,3.76,2.49s1-1.93-.37-3a2.89,2.89,0,0,0-2.72-.55Z"/><path class="cls-1" d="M203.52,138a6.59,6.59,0,0,1,3,2.66"/><path class="cls-1" d="M231.53,147s1,4.44,4.38,4.42c0,0,.73-2.76-.89-4.62s-3-1.3-3-1.3Z"/><path class="cls-1" d="M232,146.42a12.26,12.26,0,0,1,3.58,4.53"/><path class="cls-1" d="M211.62,122.85s1.54.07,1.08,2.76a5.1,5.1,0,0,1-3.12,3.66,4.29,4.29,0,0,1-.7-4.31,8.27,8.27,0,0,1,1.71-2.76Z"/><path class="cls-1" d="M209.7,129s2.1-4,1.07-6.26"/><path class="cls-1" d="M203,136.56a3.21,3.21,0,0,1-3.26,3.12s-1.32-1.72-.17-3a2.9,2.9,0,0,1,2.58-1Z"/><path class="cls-1" d="M202.42,136.24a6.44,6.44,0,0,0-2.45,3.14"/><path class="cls-1" d="M219,160.2a3.2,3.2,0,0,1,.05,4.5s-2.16-.2-2.32-1.94a2.9,2.9,0,0,1,1-2.58Z"/><path class="cls-1" d="M218.35,160.42a6.52,6.52,0,0,0,.62,3.93"/><path class="cls-1" d="M205.25,128.71s-1.45.51-.24,2.95a5.12,5.12,0,0,0,4.05,2.61,4.31,4.31,0,0,0-.58-4.33,8.32,8.32,0,0,0-2.43-2.15Z"/><path class="cls-1" d="M208.87,134.07s-3.18-3.27-2.83-5.69"/><path class="cls-1" d="M226.76,143.25s2.05.68,2.13,2.09a4.77,4.77,0,0,1-2.75,4.42c-2.08,1.08-9.83,8.08-10.91,9.67s-2.67,3.16-3,4.41-1.5,4.17.66,5.09,2.75,1.08,2.75,1.08"/><path class="cls-1" d="M215.23,167.76s-2.09.08-1.42-1.33,3.33-6.5,6.08-8.84,7.25-6.33,9.42-8.41,3-5.09,1.42-6.67-4.57-1.28-4.57-1.28"/><path class="cls-1" d="M204.45,220.41s-1.77-1.22-.06-2.27a10.82,10.82,0,0,1,5.15-1.78c2-.16,7-.11,9.3-.44s2.55-.33,2.55-.33l-.5,2s-.55.39-4.48.5-5.6-.56-8.2,0S204.34,219.3,204.45,220.41Z"/><path class="cls-1" d="M224.63,214.12s3.5-1.65,2.91-4.37a4.81,4.81,0,0,0-3.67,1.57c-1.26,1.66-.57,2.65-.57,2.65Z"/><path class="cls-1" d="M224.08,213.82a10.49,10.49,0,0,1,3.15-3.74"/><path class="cls-1" d="M215.81,214.86s.61-1.17-1.46-2a4.07,4.07,0,0,0-3.91.67,3.58,3.58,0,0,0,2.71,2.45,6.56,6.56,0,0,0,2.66,0Z"/><path class="cls-1" d="M210.67,213.51s3.72.26,4.82,2"/><path class="cls-1" d="M214.14,196.16s-2.58,2.9-.18,5.64c0,0,2.57-.68,2.81-2.87a3.08,3.08,0,0,0-1.14-3Z"/><path class="cls-1" d="M214.91,196.31a9.14,9.14,0,0,1-.84,5"/><path class="cls-1" d="M230.28,185.44s1.7-.52.86-3.16-3.93-2.88-3.93-2.88-1.69,2.63-.23,4.65,2.23,2.36,2.23,2.36Z"/><path class="cls-1" d="M227.38,179.62s2.83,3.57,2,6.15"/><path class="cls-1" d="M224.78,153.52s-2.1,3.32.65,5.64c0,0,2.43-1.11,2.34-3.33a3,3,0,0,0-1.56-2.82Z"/><path class="cls-1" d="M225.56,153.54a9.36,9.36,0,0,1-.09,5.15"/><path class="cls-1" d="M225.47,184.7s.62-1.17-1.46-2a4.06,4.06,0,0,0-3.9.66,3.56,3.56,0,0,0,2.71,2.45,6.56,6.56,0,0,0,2.66,0Z"/><path class="cls-1" d="M220.33,183.34s3.73.26,4.83,2"/><path class="cls-1" d="M231.06,189.34a3.41,3.41,0,0,1-3.11,3.75s-1.71-1.62-.64-3.15a3.29,3.29,0,0,1,2.68-1.45Z"/><path class="cls-1" d="M230.34,189.09a6.89,6.89,0,0,0-2.22,3.65"/><path class="cls-1" d="M212.75,169s1.36.72.41,2.74-3.53,1.67-3.53,1.67-1.15-2.45.25-3.86S212,168,212,168Z"/><path class="cls-1" d="M209.79,173.28s2.69-2.42,2.21-4.7"/><path class="cls-1" d="M216.75,193.74s3.71.51,3.62,2.74a5.6,5.6,0,0,1-3.86-.4c-1.53-1-1-1.93-1-1.93Z"/><path class="cls-1" d="M216.28,194.09A8.89,8.89,0,0,0,220,196.3"/><path class="cls-1" d="M212.24,162s.36-1.21-1.86-1.66a4.11,4.11,0,0,0-3.71,1.34,3.69,3.69,0,0,0,3.18,1.83,6.87,6.87,0,0,0,2.62-.51Z"/><path class="cls-1" d="M206.9,161.62s3.72-.43,5.18,1"/><path class="cls-1" d="M221.83,151.57s.54-1.45-2.4-1.85a6.24,6.24,0,0,0-5,1.76,4.5,4.5,0,0,0,4.13,2,10.71,10.71,0,0,0,3.51-.73Z"/><path class="cls-1" d="M214.74,151.44s5-.7,6.83.94"/><path class="cls-1" d="M227.16,147.63s.36-1.22-1.86-1.66a4.08,4.08,0,0,0-3.71,1.34,3.67,3.67,0,0,0,3.18,1.82,6.8,6.8,0,0,0,2.62-.5Z"/><path class="cls-1" d="M221.81,147.29s3.73-.43,5.18,1"/><polyline class="cls-1" points="99.18 316.29 100.36 300.56 97.02 300.56 98.2 316.33"/><circle class="cls-1" cx="98.69" cy="322.09" r="5.39"/><path class="cls-1" d="M100.1,322.83s.19,1.66-2.06,3"/><path class="cls-1" d="M96.85,323.92s-2.09-.05-3-4"/><path class="cls-1" d="M99.66,320.05s-1.64-.35-2.16-2.9"/><path class="cls-1" d="M101.05,319.24s-1.63-.35-2.16-2.9"/><line class="cls-3" x1="98.69" y1="291.2" x2="98.69" y2="263.51"/><line class="cls-3" x1="98.69" y1="300.26" x2="98.69" y2="293.88"/><polyline class="cls-1" points="123.55 324.91 124.73 309.19 121.4 309.19 122.58 324.95"/><circle class="cls-1" cx="123.06" cy="330.71" r="5.39"/><path class="cls-1" d="M124.48,331.45s.19,1.66-2.07,3"/><path class="cls-1" d="M121.22,332.54s-2.08-.05-3-4"/><path class="cls-1" d="M124,328.67s-1.63-.34-2.16-2.9"/><path class="cls-1" d="M125.43,327.86s-1.64-.34-2.16-2.9"/><line class="cls-3" x1="123.06" y1="308.88" x2="123.06" y2="263.38"/><polyline class="cls-1" points="137.43 310.91 138.6 295.19 135.27 295.19 136.45 310.95"/><ellipse class="cls-1" cx="136.94" cy="314.67" rx="3.82" ry="4.21"/><path class="cls-1" d="M137.94,315.25a2.64,2.64,0,0,1-1.46,2.32"/><path class="cls-1" d="M135.63,316.1s-1.47,0-2.16-3.09"/><path class="cls-1" d="M137.62,313.08s-1.15-.27-1.52-2.27"/><path class="cls-1" d="M138.61,312.45s-1.16-.27-1.53-2.27"/><line class="cls-3" x1="136.94" y1="294.88" x2="136.94" y2="279.01"/><polyline class="cls-1" points="157.68 314.66 158.85 298.94 155.52 298.94 156.7 314.7"/><ellipse class="cls-1" cx="157.19" cy="319.71" rx="4.06" ry="4.68"/><path class="cls-1" d="M158.25,320.35a3,3,0,0,1-1.55,2.57"/><path class="cls-1" d="M155.8,321.29s-1.57,0-2.29-3.43"/><path class="cls-1" d="M157.92,317.93s-1.23-.29-1.63-2.51"/><path class="cls-1" d="M159,317.23s-1.23-.3-1.63-2.52"/><line class="cls-3" x1="157.19" y1="298.63" x2="157.19" y2="271.51"/><polyline class="cls-1" points="176.05 312.04 177.23 296.31 173.9 296.31 175.08 312.08"/><path class="cls-1" d="M174.3,323.08a5.3,5.3,0,0,0,1.26.15,5.39,5.39,0,1,0-3.15-9.76"/><path class="cls-1" d="M177,318.58s.19,1.66-2.07,3"/><path class="cls-1" d="M176.53,315.8s-1.63-.35-2.16-2.9"/><path class="cls-1" d="M177.93,315s-1.64-.35-2.16-2.9"/><line class="cls-3" x1="175.56" y1="296.01" x2="175.56" y2="276.76"/><polyline class="cls-1" points="190.55 307.79 191.73 292.06 188.4 292.06 189.58 307.83"/><ellipse class="cls-1" cx="190.06" cy="313.28" rx="4.57" ry="5.1"/><path class="cls-1" d="M191.26,314a3.23,3.23,0,0,1-1.75,2.81"/><path class="cls-1" d="M188.5,315s-1.76,0-2.58-3.74"/><path class="cls-1" d="M190.88,311.35s-1.38-.33-1.83-2.74"/><path class="cls-1" d="M192.07,310.58s-1.39-.32-1.83-2.74"/><line class="cls-3" x1="190.06" y1="291.76" x2="190.06" y2="269.13"/><path class="cls-1" d="M86.88,366.63s-3.62-4-3.31-5.93a8.55,8.55,0,0,1,4.56-6.88c3.63-1.94,10.56-2.75,12.56-4.06a24.84,24.84,0,0,0,4.25-4"/><path class="cls-1" d="M86.76,362s-1.38-2.25-.63-3.38,1.75-3.69,5.19-4.44,6.69-1.37,8.94-2.5,3.93-2.12,3.93-2.12"/><path class="cls-1" d="M82.88,298.32s-1.06-2.37.44-3.19a20.27,20.27,0,0,1,7.87-1.87c2.75,0,12.88-.94,16.63-3.19a24.31,24.31,0,0,0,6-5.15,1.74,1.74,0,0,0,.18-2.84c-1.63-1.58-2.79-3.44-4.84-3.95s-3.68,0-3.77.74"/><path class="cls-1" d="M105.07,279.88s-1.13-2.43,2.56-2.43,6.94,2.81,6.94,2.81,2.89,1.55,1.5,4.06c0,0-2.19,4.69-6.69,6.56a68.93,68.93,0,0,1-15.62,4.19c-4.25.5-6.25.44-7.75,1.06s-1.63.88-1.63.88l-1.5,1.56"/><ellipse class="cls-1" cx="105.38" cy="281.51" rx="1.69" ry="2.19" transform="translate(-71.63 38.57) rotate(-15.55)"/><path class="cls-1" d="M89.9,293s.51-2.78,2.18-4a6.46,6.46,0,0,0,2.23-2.87s-2.46-.37-3.3.56-2.13,1.67-2.13,3.34a13.75,13.75,0,0,0,.46,3.29s3.85-.56,4.78-2.51a7.65,7.65,0,0,0,.32-4.45"/><path class="cls-1" d="M99.13,294.6a7,7,0,0,0,1.62,4.22c1.53,1.81,5.48.88,5.48.88s-.88-3.61-2.46-4.68a8.55,8.55,0,0,0-3.25-1.3l-1.34.37a11.74,11.74,0,0,0,3.34,3.06,24.79,24.79,0,0,1,3.2,2.28"/><path class="cls-1" d="M105.86,292.61a6.06,6.06,0,0,0,3.1,3.2c2.37,1.06,5.71-1.12,5.71-1.12a22.85,22.85,0,0,0-3.57-2.36c-1.76-.88-4.59-.14-4.59-.14l-.14.37a14.72,14.72,0,0,0,3.94,1.72c1.53.23,3.48.32,3.48.32"/><path class="cls-1" d="M114,283.2s.37-1.17-1.82-1.55a4.25,4.25,0,0,0-3.68,1.36,3.49,3.49,0,0,0,3.11,1.68,7.05,7.05,0,0,0,2.6-.54Z"/><path class="cls-1" d="M108.76,283s3.69-.49,5.1.88"/><path class="cls-1" d="M114.82,286.67s2.39-4.19,5.72-3.21c0,0-.12,3-2.31,4.42s-3.34.45-3.34.45Z"/><path class="cls-1" d="M115.15,287.38a13.26,13.26,0,0,0,4.95-3.55"/><path class="cls-1" d="M117.19,281s1.47,0,1.6-2.11-2.17-3-2.17-3-2.08,1.52-1.56,3.33a5,5,0,0,0,1,2.24Z"/><path class="cls-1" d="M116.68,276.12s1.13,3.26-.31,4.93"/><path class="cls-1" d="M106.17,340.54a4,4,0,0,0-2.14-3.92,11.83,11.83,0,0,0-4.79-1.68s-.87,3.77,2,6.11,4.58.92,4.58.92-.81-3.11-3.11-4.43a36.72,36.72,0,0,1-3.36-2.14"/><path class="cls-1" d="M99.49,349.92c.16-.11,3.42-2.55,2.25-5.05s-4.33-4.17-4.33-4.17l-.92-1a6.69,6.69,0,0,0-.77,5.91A7.34,7.34,0,0,0,99.49,349.92Z"/><path class="cls-1" d="M96.59,340.39a4,4,0,0,0,1,3.31c1.38,1.38,2.29,2,2.14,3.26s-.41,2.75-.41,2.75"/><path class="cls-1" d="M89.41,352.56s3.92-1,4.07-3A5.83,5.83,0,0,0,92.11,345a19.15,19.15,0,0,1-1.58-2.34s-1.07,2.7-1.73,4a4.75,4.75,0,0,0-.11,4,9.25,9.25,0,0,1,.72,1.78A5.09,5.09,0,0,0,91,349a23.83,23.83,0,0,0-.61-5.45"/><path class="cls-1" d="M95,353.42s-1.31,1.66.57,4.05a15.16,15.16,0,0,0,4,3.59,4.82,4.82,0,0,0,.36-5.69c-1.91-3.2-4.08-2.9-4.08-2.9a7,7,0,0,0,1.32,4.9,39.65,39.65,0,0,1,2.43,3.26"/><path class="cls-1" d="M196.69,368.51s-5.83-3.05-4.77-7.82,3.18-5.44-.8-7.56-7.16-2.65-7-8,1.32-5.7,1.32-5.7"/><circle class="cls-1" cx="188.04" cy="336.89" r="1.9"/><path class="cls-1" d="M188.07,334.84a1.54,1.54,0,0,0,.27-.87,1.51,1.51,0,1,0-1.51,1.51"/><path class="cls-1" d="M189.62,336a1.48,1.48,0,0,0,.91.06,1.51,1.51,0,1,0-1.82-1.11"/><path class="cls-1" d="M189,338.55a1.52,1.52,0,1,0,.76-1.16"/><path class="cls-1" d="M186,336.34a1.48,1.48,0,0,0-.81-.42,1.51,1.51,0,1,0,1.22,1.75"/><path class="cls-1" d="M186.93,338.58a1.44,1.44,0,0,0-.77.48,1.51,1.51,0,1,0,2.13-.16"/><path class="cls-1" d="M184.1,345.17a11.14,11.14,0,0,0-1.35-5.18c-1.36-2.1-2.43-3.83-2.43-3.83s-.61,5.1.84,7.1S184.1,345.17,184.1,345.17Z"/><path class="cls-1" d="M184.38,347.14s-.42-2.71,1.69-3.74,3.08-1.4,3.08-1.4.33,2.48-1.17,3.65A8.8,8.8,0,0,1,184.38,347.14Z"/><path class="cls-1" d="M187,350.79s-.93-2.85,1.12-3.41a16.5,16.5,0,0,0,3.13-1.13,20,20,0,0,0-.56,3.27,2,2,0,0,1-2.06,2A2.84,2.84,0,0,1,187,350.79Z"/><path class="cls-1" d="M192.33,353.45s-1-.61.09-2,2.1-2.71,2.1-2.71,1.12,2.8.61,4a3.88,3.88,0,0,1-1.68,1.73Z"/><path class="cls-1" d="M188.08,352.07s-2.7-1.13-4.2-.57l-1.51.57s1.19,2.82,3.33,2.63a5.13,5.13,0,0,0,3.38-1.88Z"/><path class="cls-1" d="M191.53,361.22s.31-1.63-.88-2.25a10.14,10.14,0,0,0-2.51-.88s-.69,2,.19,3a3,3,0,0,0,2.32.88Z"/><path class="cls-1" d="M193.53,365.55s-1.37-1.94-.37-3.14a24.43,24.43,0,0,0,1.75-2.38,8.61,8.61,0,0,1,.57,3.7,2.4,2.4,0,0,1-1.26,2Z"/><path class="cls-1" d="M194.66,367.43a2.91,2.91,0,0,0-2.19-.56,13.49,13.49,0,0,0-2.7.75,14.72,14.72,0,0,0,2,1.69c.81.51,2.95.51,3.26-.31A1.68,1.68,0,0,0,194.66,367.43Z"/><path class="cls-1" d="M145.82,354.46s1.27-1.57-.2-2.16-2.35,1.37-1.37,2.94,3.43.59,4.61-1.08.09-6.47-3.14-7.16-7.55.4-9.12,5,.09,9.51,5.78,11.08,12.56.29,14.62-3.43a11.77,11.77,0,0,0-3.83-15.11c-6.08-4.22-12.75-4.9-18.54,0s-6.76,10.4-4.41,15,3.43,7.94,2.75,10.1a10.34,10.34,0,0,1-2.85,5,12.78,12.78,0,0,1-2.64,1.77"/><path class="cls-1" d="M141.4,359.66a2.21,2.21,0,0,0,1.38-3.14s-3.73,1.57-1.57,4.41,3.53,2.45,3.53,2.45"/><path class="cls-1" d="M147.59,364.68a3.1,3.1,0,0,1-3.08,3.08c-3.09.17-3.67-2-2.34-2.5S145.76,363.51,147.59,364.68Z"/><path class="cls-1" d="M157.76,360.51s1.41,3.25.25,5-2.59,2.75-3,1.5-.67-3.33.25-4.42a14.51,14.51,0,0,1,2.16-2Z"/><path class="cls-1" d="M159.26,353.34s2.58-.16,3.16,2a7.45,7.45,0,0,1-.33,4.34s-2.25-1.09-2.58-2.25A20,20,0,0,1,159.26,353.34Z"/><path class="cls-1" d="M156.51,351.76s-2.09-.67-3.17.17a12.83,12.83,0,0,0-1.67,1.5s2.92,2.33,4.67,1.16.67-2.41.67-2.41Z"/><path class="cls-1" d="M143.42,340.51s-.33-2.83,2-3.17,3.09.84,2.84,1.5-1.59.5-1.59.5"/><path class="cls-1" d="M129.92,349.34s-1.58-3.25-.41-4.5,1.91-.33,2,.42a11.84,11.84,0,0,1-.67,2.92Z"/><path class="cls-1" d="M136.26,358.59s-2.75-.75-2.84-2.58,1.5-1.58,2.09-.5A10.09,10.09,0,0,1,136.26,358.59Z"/><path class="cls-1" d="M149.51,363.09s-2.92-1.58-2.09-3.33,2.09-1.83,2.92-1.42,1.83,2.34,1.5,3.09S151.51,363.34,149.51,363.09Z"/><path class="cls-1" d="M148.67,342.59a2.22,2.22,0,0,0-.66,1.84c.16.66.66,1.33,1.5.41s.83-1.75.33-2.08A1.67,1.67,0,0,0,148.67,342.59Z"/><path class="cls-1" d="M132.67,371.51s.84,1.5,2.67.08,1.17-3.08-.25-2.83a5.39,5.39,0,0,0-2.58,1.5Z"/><path class="cls-1" d="M129.34,374a2.74,2.74,0,0,0,0-2.92c-1-1.33-2.5-1.66-2.33.17s1.08,3.08,1.5,3A5.25,5.25,0,0,0,129.34,374Z"/><path class="cls-1" d="M131.67,364.26s.17-1.33-1.83-2-3.42,1.58-1.58,3.08a5.7,5.7,0,0,0,4.08,1.17Z"/><path class="cls-1" d="M132.17,361.51c.33.11,1.84-.83,1.17-1.75s-1.75-1.33-2-.58S131.17,361.18,132.17,361.51Z"/><path class="cls-1" d="M129.42,358.76a6,6,0,0,0-2.33-2.5c-1.5-.75-3.25-3.17-2.08-4.08a1.5,1.5,0,0,1,2.5.58"/><path class="cls-1" d="M129.59,352.59s.58-2.58,2.5-2.75,1.67,2,1,2.09a1.46,1.46,0,0,1-1.17-.59"/><path class="cls-1" d="M135.42,343.59c.34-.33,1-4.91,3.42-5.66s2.25.75,1.75,1.41a2.74,2.74,0,0,1-1.75.75"/><path class="cls-1" d="M154.09,345.09a5.34,5.34,0,0,1,5.17-.25c2.66,1.42,1.25,2.75-.17,2.25s-1.5-1.33-1.5-1.33"/><path class="cls-1" d="M131.49,293.33a49,49,0,0,1-4.66,1.59s-.32,2.54,2.65,4.76l3.7-3.06"/><polyline class="cls-1" points="123.23 282.43 124.92 284.87 129.48 281.58 126.62 277.56 122.81 280"/><polygon class="cls-1" points="143.76 285.18 143.87 292.06 148.21 291.43 148.53 284.97 143.76 285.18"/><path class="cls-1" d="M158.58,282.22l4.34-2.33s-.42,2.54,2.33,4.87l-4.13,2A6.73,6.73,0,0,1,158.58,282.22Z"/><path class="cls-1" d="M145.78,300.64l3.38-3.81s3.07.95,4.34,2.85l-2.86,3.5Z"/><path class="cls-1" d="M124.61,314.82l2.33,3.18a10.68,10.68,0,0,1,4.34-3.07l-3.18-4.45-3.49,2.65"/><path class="cls-1" d="M151.49,324.13a12,12,0,0,1-4-2.32l-3,4.12a41.91,41.91,0,0,0,3.91,3.18c.32,0,2.54-3.71,2.54-3.71"/><polygon class="cls-1" points="104.07 311.43 107.57 313.87 110.32 311.22 107.57 307.62 104.07 311.43"/><polygon class="cls-1" points="89.68 280.95 92.22 278.83 94.23 280.85 91.8 283.81 89.68 280.95"/><polygon class="cls-1" points="100.58 286.67 103.76 284.65 107.46 287.41 102.91 289.52 100.58 286.67"/><polygon class="cls-1" points="90.63 298.73 88.09 300.74 91.9 302.97 94.97 300.43 90.63 298.73"/><path class="cls-1" d="M88.73,338.74l3.17,1.8s4.55-4.87,4.24-4.87-3.81.74-5.4-.95l-1.48,2"/><polyline class="cls-1" points="99.84 330.8 102.38 333.66 106.4 330.17 104.6 327.73 101.22 329.43"/><path class="cls-1" d="M156.78,338.64l3.5-3.71,1.58,2.33-.31,4.55S159.32,338.42,156.78,338.64Z"/><path class="cls-1" d="M180.18,330.38l3.17-4.87,3.71,2.86s-.22,2.54-4.24,3.81"/><polygon class="cls-1" points="189.91 325.4 193.19 328.79 195.73 325.19 193.72 322.65 189.91 325.4"/><polygon class="cls-1" points="179.33 300.74 179.43 306.25 183.46 303.71 183.46 298.73 179.33 300.74"/><polygon class="cls-1" points="181.23 283.6 177.63 286.77 182.72 288.57 186.21 284.97 181.23 283.6"/><path class="cls-1" d="M91.76,366.4c1.34-.24,5.09-1.45,5.09-1.45a4.93,4.93,0,0,1,.61,3.39,13.13,13.13,0,0,1-5,2.55Z"/></svg>