<svg id="art" xmlns="http://www.w3.org/2000/svg" viewBox="0 0 274.52 454.52"><defs><style>.cls-1,.cls-2,.cls-3,.cls-4{fill:none;stroke:#7FA7F5;}.cls-1,.cls-2,.cls-4{stroke-miterlimit:10;}.cls-2{stroke-dasharray:9 2;}.cls-3{stroke-linejoin:bevel;}.cls-4{stroke-dasharray:5 2;}</style></defs><title>SV-elemental-alters</title><rect class="cls-1" x="121.55" y="42.84" width="48.11" height="58.85"/><circle class="cls-1" cx="144.88" cy="62.63" r="2"/><ellipse class="cls-1" cx="144.88" cy="89.8" rx="8.81" ry="6.37"/><path class="cls-1" d="M150.55,62.63a5.67,5.67,0,0,0-11.34,0"/><circle class="cls-1" cx="134.63" cy="69.76" r="2.38"/><path class="cls-1" d="M155.87,89.8a7.54,7.54,0,0,0-3.1-5.88,1.6,1.6,0,0,0,.38-1,1.57,1.57,0,0,0-1.57-1.57,1.55,1.55,0,0,0-1.47,1,13.92,13.92,0,0,0-10.46,0,1.59,1.59,0,0,0-1.47-1A1.56,1.56,0,0,0,137,83.92a7.12,7.12,0,0,0,0,11.74,1.53,1.53,0,0,0-.36,1,1.57,1.57,0,0,0,3,.59,14,14,0,0,0,10.5,0,1.56,1.56,0,1,0,2.66-1.57A7.53,7.53,0,0,0,155.87,89.8Z"/><circle class="cls-1" cx="154.04" cy="69.76" r="2.38"/><path class="cls-1" d="M121.39,81.68c-1.69,0-3,1.81-3,4s1.36,4,3,4"/><path class="cls-1" d="M169.92,89.76c1.69,0,3.05-1.81,3.05-4s-1.36-4-3.05-4"/><polyline class="cls-1" points="120.01 106.68 115.51 102.51 101.01 102.51 111.87 112.47"/><polyline class="cls-1" points="102.78 104.45 89.73 104.45 104.87 117.34"/><polyline class="cls-1" points="91.43 106.22 80.47 106.22 97.76 122.05"/><path class="cls-1" d="M144.51,103.85H124.58l-30,20.81,12,9.73s1.26-1.07,3.37-2.68c5.32-4.06,16-11.54,25.33-13.89h8.77"/><path class="cls-1" d="M94.62,124.66s-6.78,2.35-13,15.85S66.84,171.18,71.51,190s10.33,30.33,10.33,30.33-9.83-1.33-16,2.84c0,0-.33,22.95,5.33,26.45s13,.34,14.34-3,.33-17.16-1-21.16l-2.74-5.32"/><path class="cls-1" d="M67.65,221.92,56.78,195s-1.4-3.9-1.5-11.38.4-21.45,1.9-28.74c0,0,2.39-12.37,6.28-19.46s21.66-24.85,21.66-24.85"/><path class="cls-1" d="M80,115.86s5.63-1.07,8.39,1.25l2.77,2.33"/><path class="cls-1" d="M77.76,118.72s5.62-1.07,8.39,1.25l2.77,2.32"/><path class="cls-1" d="M74.45,122s5.63-1.08,8.4,1.25l2.77,2.32"/><path class="cls-1" d="M71.24,125.06s5.62-1.07,8.39,1.25"/><path class="cls-1" d="M67.75,129.35s5.63-1.07,8.4,1.25"/><path class="cls-1" d="M64.9,133.55s5.62-1.07,8.39,1.25"/><path class="cls-1" d="M62.22,139s5.62-1.08,8.39,1.25"/><path class="cls-1" d="M60.79,142.75s5.62-1.07,8.39,1.25"/><path class="cls-1" d="M59.09,147.75s5.63-1.07,8.4,1.25"/><path class="cls-1" d="M58,152.66s5.63-1.07,8.39,1.25"/><path class="cls-1" d="M57,157.13s5.62-1.08,8.39,1.25"/><path class="cls-1" d="M56.41,161.23s5.72-1.07,8.75-.26"/><path class="cls-1" d="M56.05,167s5.72-1.07,8.76-.27"/><path class="cls-1" d="M55.54,172.36S60.87,170,64,170.11"/><path class="cls-1" d="M55.2,178s4.95-3.91,8.36-2.64"/><path class="cls-1" d="M55.64,188.7s4.55-6.09,8.84-4.55"/><path class="cls-1" d="M56.49,192.64s4.93-5.79,9.11-4"/><path class="cls-1" d="M55.4,183.7s3.1-6.79,6.47-3"/><path class="cls-1" d="M57.87,197.35a7.1,7.1,0,0,1,6.5-3.18"/><path class="cls-1" d="M60,202.9s2.44-5.48,6.7-4.4"/><path class="cls-1" d="M61.93,207.3s2.44-5.48,6.7-4.4"/><path class="cls-1" d="M63.08,211.23s2.44-5.49,6.7-4.4"/><path class="cls-1" d="M64.91,214.88s2.43-5.48,6.7-4.4"/><path class="cls-1" d="M66.6,218.67s2.44-5.48,6.7-4.4"/><ellipse class="cls-1" cx="58.81" cy="237.74" rx="1.61" ry="2.52"/><line class="cls-1" x1="58.87" y1="235.21" x2="66.5" y2="235.2"/><line class="cls-1" x1="58.78" y1="240.26" x2="66.83" y2="240.27"/><polyline class="cls-1" points="166.85 106.68 171.35 102.51 185.85 102.51 174.99 112.47"/><polyline class="cls-1" points="184.08 104.45 197.13 104.45 181.99 117.34"/><polyline class="cls-1" points="195.43 106.22 206.39 106.22 189.09 122.05"/><path class="cls-1" d="M142.34,103.85h19.94l30,20.81-12,9.73s-15.7-13.29-28.71-16.57h-8.76"/><path class="cls-1" d="M192.24,124.66S199,127,205.18,140.51,220,171.18,215.35,190,205,220.34,205,220.34s9.83-1.33,16,2.84c0,0-.24,22.79-5.91,26.29s-13,.34-14.33-3,.23-17,1.57-21l2.74-5.32"/><path class="cls-1" d="M219.2,221.92,230.08,195s1.4-3.9,1.5-11.38-.4-21.45-1.9-28.74c0,0-2.39-12.37-6.29-19.46s-21.65-24.85-21.65-24.85"/><path class="cls-1" d="M206.87,115.86s-5.63-1.07-8.4,1.25l-2.77,2.33"/><path class="cls-1" d="M209.1,118.72s-5.63-1.07-8.39,1.25l-2.77,2.32"/><path class="cls-1" d="M212.4,122s-5.62-1.08-8.39,1.25l-2.77,2.32"/><path class="cls-1" d="M215.62,125.06s-5.63-1.07-8.4,1.25"/><path class="cls-1" d="M219.1,129.35s-5.62-1.07-8.39,1.25"/><path class="cls-1" d="M222,133.55s-5.63-1.07-8.39,1.25"/><path class="cls-1" d="M224.64,139s-5.63-1.08-8.39,1.25"/><path class="cls-1" d="M226.07,142.75s-5.63-1.07-8.4,1.25"/><path class="cls-1" d="M227.77,147.75s-5.63-1.07-8.4,1.25"/><path class="cls-1" d="M228.84,152.66s-5.63-1.07-8.4,1.25"/><path class="cls-1" d="M229.82,157.13s-5.63-1.08-8.39,1.25"/><path class="cls-1" d="M230.45,161.23s-5.72-1.07-8.76-.26"/><path class="cls-1" d="M230.8,167s-5.71-1.07-8.75-.27"/><path class="cls-1" d="M231.31,172.36s-5.32-2.34-8.46-2.25"/><path class="cls-1" d="M231.66,178s-4.95-3.91-8.36-2.64"/><path class="cls-1" d="M231.22,188.7s-4.55-6.09-8.84-4.55"/><path class="cls-1" d="M230.37,192.64s-4.93-5.79-9.11-4"/><path class="cls-1" d="M231.46,183.7s-3.1-6.79-6.47-3"/><path class="cls-1" d="M229,197.35a7.11,7.11,0,0,0-6.5-3.18"/><path class="cls-1" d="M226.82,202.9s-2.43-5.48-6.7-4.4"/><path class="cls-1" d="M224.93,207.3s-2.44-5.48-6.7-4.4"/><path class="cls-1" d="M223.78,211.23s-2.44-5.49-6.7-4.4"/><path class="cls-1" d="M222,214.88s-2.44-5.48-6.7-4.4"/><path class="cls-1" d="M220.26,218.67s-2.44-5.48-6.7-4.4"/><ellipse class="cls-1" cx="224.97" cy="242.69" rx="1.1" ry="2.59"/><line class="cls-1" x1="224.92" y1="240.1" x2="219.61" y2="240.09"/><line class="cls-1" x1="224.99" y1="245.28" x2="218.13" y2="245.29"/><path class="cls-1" d="M178.52,133.2c6.62,7.39,11,16.37,11,26.81,0,16.68-10.2,31.11-25,38.06,0,0-3.15,1.32-4,1.57"/><path class="cls-1" d="M111.12,130.87A43.64,43.64,0,0,0,99.51,160c0,16.68,10.19,31.12,25,38.06a32.51,32.51,0,0,0,3.78,1.63,72.85,72.85,0,0,0,32-.13V209.7"/><line class="cls-1" x1="128.61" y1="209.7" x2="128.61" y2="199.37"/><line class="cls-1" x1="130.45" y1="202.31" x2="130.45" y2="209.7"/><line class="cls-1" x1="132.29" y1="204.4" x2="132.29" y2="210.86"/><line class="cls-1" x1="134.63" y1="206.65" x2="134.63" y2="210.29"/><line class="cls-1" x1="158.31" y1="207.3" x2="158.31" y2="199.91"/><line class="cls-1" x1="156.47" y1="204.57" x2="156.47" y2="200.57"/><line class="cls-1" x1="154.14" y1="203.23" x2="154.14" y2="200.85"/><rect class="cls-1" x="98.81" y="216.54" width="90.61" height="5.3"/><path class="cls-1" d="M131.67,118.85s-11.75,11.25-14.32,35.54,3.2,35.41,15.16,46.12"/><path class="cls-1" d="M137.39,118S126,131.55,125,154.11s5.86,38.14,8.63,42,4.63,5,4.63,5"/><path class="cls-1" d="M139.2,117.83S128.57,131.42,127.66,154s5.47,38.21,8.05,42.07a23.43,23.43,0,0,0,4.15,5.08"/><circle class="cls-1" cx="118.86" cy="117.51" r="2.76"/><circle class="cls-1" cx="108.67" cy="123.86" r="2.76"/><circle class="cls-1" cx="167.52" cy="117.51" r="2.76"/><circle class="cls-1" cx="177.71" cy="123.86" r="2.76"/><rect class="cls-1" x="66.28" y="394.32" width="150.42" height="4.4"/><polyline class="cls-1" points="95.78 390.21 66.28 390.21 66.28 385.81 96.64 385.81"/><polyline class="cls-1" points="96.31 385.8 76.02 385.8 76.02 376.65 98.55 376.65"/><line class="cls-1" x1="164.11" y1="390.21" x2="119.92" y2="390.21"/><polyline class="cls-1" points="187.37 385.81 216.7 385.81 216.7 390.21 188.39 390.21"/><polyline class="cls-1" points="148.13 385.81 148.84 385.81 164.23 385.81"/><polyline class="cls-1" points="120.03 385.81 138.32 385.81 138.5 385.81"/><line class="cls-2" x1="188.43" y1="300.18" x2="197.12" y2="300.18"/><line class="cls-2" x1="170.37" y1="300.18" x2="179.06" y2="300.18"/><line class="cls-2" x1="120" y1="300.18" x2="139.73" y2="300.18"/><line class="cls-2" x1="132.85" y1="228.73" x2="152.58" y2="228.73"/><line class="cls-2" x1="87.15" y1="300.18" x2="93.26" y2="300.18"/><line class="cls-2" x1="122.41" y1="347.68" x2="128.18" y2="347.68"/><line class="cls-1" x1="119.51" y1="290.51" x2="97.71" y2="394.15"/><polyline class="cls-1" points="95 394.04 116.74 290.51 119.96 290.51 119.96 394.39"/><ellipse class="cls-1" cx="111.95" cy="373.5" rx="5.66" ry="5.3"/><ellipse class="cls-1" cx="113.44" cy="356.32" rx="4.5" ry="4.21"/><ellipse class="cls-1" cx="143.25" cy="384.11" rx="6.36" ry="2.63"/><ellipse class="cls-1" cx="114.96" cy="337.45" rx="3.16" ry="2.96"/><polyline class="cls-1" points="187.91 385.8 208.21 385.8 208.21 376.65 185.67 376.65"/><line class="cls-1" x1="164.72" y1="290.51" x2="186.52" y2="394.15"/><polyline class="cls-1" points="189.23 394.04 167.49 290.51 164.27 290.51 164.27 394.39"/><ellipse class="cls-1" cx="172.27" cy="373.5" rx="5.66" ry="5.3"/><ellipse class="cls-1" cx="170.79" cy="356.32" rx="4.5" ry="4.21"/><ellipse class="cls-1" cx="169.26" cy="337.45" rx="3.16" ry="2.96"/><path class="cls-1" d="M87.15,376.69V351h-.41a3.92,3.92,0,1,1,0-7.82"/><line class="cls-1" x1="195.83" y1="263.38" x2="195.78" y2="296.45"/><path class="cls-1" d="M87.15,343.62V304.4l-.41,0a3.92,3.92,0,1,1,0-7.82h1.78s.06-3.18,0-3.18V257.78l0-.16a3.92,3.92,0,1,1,0-7.82"/><path class="cls-1" d="M98.31,221.85H90a2.19,2.19,0,1,0,0,4.37v7.33"/><path class="cls-1" d="M196.59,353.18s-1.42.33-1.67-1,1.34-2.5,1.34-2.5.82-.66.74,1.29v25.72"/><path class="cls-1" d="M197.41,351a3.92,3.92,0,1,0,0-7.82"/><path class="cls-1" d="M195.63,263.38v30c-.06,0,0,3.18,0,3.18h1.78a3.92,3.92,0,1,1,0,7.82l-.46,0v39.32"/><path class="cls-1" d="M185.84,221.85h8.34a2.19,2.19,0,1,1,0,4.37v8"/><path class="cls-1" d="M99.39,398.74A9.13,9.13,0,0,1,85,398.68"/><path class="cls-1" d="M201.06,398.74a9.13,9.13,0,0,1-14.41-.06"/><line class="cls-1" x1="74.36" y1="390.26" x2="74.38" y2="393.94"/><line class="cls-1" x1="78.66" y1="390.26" x2="78.68" y2="393.94"/><line class="cls-1" x1="82.95" y1="390.26" x2="82.97" y2="393.94"/><line class="cls-1" x1="87.25" y1="390.26" x2="87.27" y2="393.94"/><line class="cls-1" x1="91.54" y1="390.26" x2="91.57" y2="393.94"/><line class="cls-1" x1="121.61" y1="390.26" x2="121.63" y2="393.94"/><line class="cls-1" x1="125.91" y1="390.26" x2="125.93" y2="393.94"/><line class="cls-1" x1="130.2" y1="390.26" x2="130.22" y2="393.94"/><line class="cls-1" x1="134.5" y1="390.26" x2="134.52" y2="393.94"/><line class="cls-1" x1="138.79" y1="390.26" x2="138.82" y2="393.94"/><line class="cls-1" x1="143.09" y1="390.26" x2="143.11" y2="393.94"/><line class="cls-1" x1="147.38" y1="390.26" x2="147.41" y2="393.94"/><line class="cls-1" x1="151.68" y1="390.26" x2="151.7" y2="393.94"/><line class="cls-1" x1="155.97" y1="390.26" x2="156" y2="393.94"/><line class="cls-1" x1="160.27" y1="390.26" x2="160.29" y2="393.94"/><line class="cls-1" x1="190.34" y1="390.26" x2="190.36" y2="393.94"/><line class="cls-1" x1="194.63" y1="390.26" x2="194.66" y2="393.94"/><line class="cls-1" x1="198.93" y1="390.26" x2="198.95" y2="393.94"/><line class="cls-1" x1="203.22" y1="390.26" x2="203.25" y2="393.94"/><line class="cls-1" x1="207.52" y1="390.26" x2="207.54" y2="393.94"/><path class="cls-1" d="M125.12,213.55a3.92,3.92,0,1,0-7.83,0v2.5"/><path class="cls-1" d="M125.34,213.55a3.92,3.92,0,1,1,7.82,0"/><path class="cls-1" d="M133.38,213.55a3.92,3.92,0,1,1,7.83,0"/><path class="cls-1" d="M141.43,213.55a3.92,3.92,0,1,1,7.82,0"/><path class="cls-1" d="M149.47,213.55a3.92,3.92,0,1,1,7.82,0"/><path class="cls-1" d="M157.51,213.55a3.92,3.92,0,1,1,7.83,0"/><path class="cls-1" d="M165.56,213.55a3.92,3.92,0,1,1,7.82,0v2.64"/><line class="cls-1" x1="163.96" y1="376.65" x2="120.25" y2="376.65"/><rect class="cls-1" x="104.08" y="212.1" width="4.23" height="4.37"/><rect class="cls-1" x="179.08" y="212.1" width="4.23" height="4.37"/><line class="cls-1" x1="136.78" y1="87.59" x2="145.13" y2="95.94"/><line class="cls-1" x1="139.9" y1="84.62" x2="149.99" y2="94.71"/><line class="cls-1" x1="144.89" y1="83.53" x2="153.09" y2="91.72"/><line class="cls-1" x1="153.09" y1="87.59" x2="144.74" y2="95.94"/><line class="cls-1" x1="149.97" y1="84.62" x2="139.88" y2="94.71"/><line class="cls-1" x1="144.98" y1="83.53" x2="136.78" y2="91.72"/><path class="cls-1" d="M117.57,152s-8.35,1-12.37,2.54-5.48,1.89-4.75,3.2,4.59,3.52,16.3,4.67"/><path class="cls-1" d="M99.8,154.87a42.23,42.23,0,0,1,17.93-4.34"/><path class="cls-1" d="M99.88,164.94s3.52,3.61,16.71,4.59"/><path class="cls-1" d="M104.79,158.23s-.08-1.56,1.4-1.23l1.47.33"/><path class="cls-1" d="M109.05,157s.82-2.05,2.46-1a3.54,3.54,0,0,0,3.36.16s-.49-.74,2.13-.24"/><path class="cls-1" d="M101.52,171.91s3.6.82,5.16-.66,2.54-.82,2.86.49,2.54.66,3.53.08.81-1.14,1.39-.08a2.65,2.65,0,0,0,2.45,1.07"/><path class="cls-3" d="M114.87,184.11a1.66,1.66,0,0,0-1.8-2.13c-2.3.08-3.2,0-2.54-1.72s.73-3.19.16-3.44l-.57-.25s2.37.09,2.54,2.05c0,0,.24-2.37.24-2.62s.41-.41.41-.41l1.31.9,1.07-1.55.32,2.45s1.07-.65,1.15.09.49,3.93-.08,4.91-1.39,2.13-1.39,2.13,1.8.16,1.63,1.15-2.13,1.8-2.13,1.8,1.4-1.39.91-2.21-2.46-.41-3.12,0a2.37,2.37,0,0,0-.82.73"/><path class="cls-3" d="M143.2,186.81a7.56,7.56,0,0,1-.49-4.58"/><path class="cls-3" d="M144.43,186.08a4.58,4.58,0,0,1,1-3.94"/><path class="cls-3" d="M147.05,184.44s.25-1.72,2.95-3"/><path class="cls-3" d="M146.64,178.7s.25-3.6,1.89-3a9.15,9.15,0,0,0,2,.58s1-.74,1.64,0,.74,1.31.17,1.8a10.65,10.65,0,0,1-2.54,1.06"/><path class="cls-3" d="M152.46,178.46s1.64,1.55.9,3.19a6.1,6.1,0,0,1-2.62,3.2c-1.31.82-8.27,5-8.27,5s-4.51-5.57-4.75-8.68.82-4,.82-4l1-.82s2.13-1.23,2.7.41a22.47,22.47,0,0,1,.82,2.87s-.65-2.79,1.15-3.61a3.61,3.61,0,0,1,3.19,0"/><path class="cls-3" d="M139.72,131.56s1.82-2.55.91-4.36-2.91-.1-2.09.81S139.72,131.56,139.72,131.56Z"/><path class="cls-3" d="M142.18,141.37s-1.37-5.81.54-9.81,3.36-6.45,5.27-6.18,2,1.54,2,1.54"/><path class="cls-3" d="M150.9,129.74s-.09,3.27,1.18,3.73a1.44,1.44,0,0,0,1.82-2C153.26,130.28,152.63,129.83,150.9,129.74Z"/><path class="cls-3" d="M140.36,142.83s-1.12-4.91-3.14-6a1.53,1.53,0,0,0-.68-.2l-.36,0a5.8,5.8,0,0,0-.74,0,2.64,2.64,0,0,0-2.35,3c0,1.91,1.82,2.19,1.73,1.19a4.1,4.1,0,0,1,.27-2.64c.45-.64.45-.54.45-.54"/><path class="cls-3" d="M144,143.55s-.36-2,2.09-3.54,2.91-.82,2.91-.82"/><path class="cls-3" d="M140.91,148.1a3.8,3.8,0,0,0-3.09-4,17,17,0,0,0-4.91-.55"/><path class="cls-3" d="M143.09,149.82s.09-2.72,2.54-2.54"/><path class="cls-3" d="M151.26,140.64s4.09,2.28,4.37,4.91-1.55,3.09-2,2a22.32,22.32,0,0,1-.73-4.27l.09-1.09"/><path class="cls-3" d="M156.9,149.28c1.63.18,4,.72,4,.72"/><path class="cls-3" d="M163.81,150.1a23.14,23.14,0,0,1,6,1.54"/><path class="cls-3" d="M175.16,152.46s6.55,1.45,10.18,4"/><path class="cls-3" d="M159.35,153.64a35.57,35.57,0,0,1,4.36.82c1,.36,2.64.91,2.64.91"/><path class="cls-3" d="M169.89,156s5.27,1.82,6.46,2.46"/><path class="cls-3" d="M180.53,159.55a20.21,20.21,0,0,1,4.18,2.18"/><path class="cls-3" d="M149.45,151.73s3.81,1.64,2.72,4.36-2.36-.27-2.18-1.36A7.9,7.9,0,0,0,149.45,151.73Z"/><path class="cls-3" d="M158,155.09l2.45,2.82s1,1.55-.54,2-1.91-1.73-1.82-2.45A15.12,15.12,0,0,0,158,155.09Z"/><path class="cls-3" d="M140.54,151.73s0-3.36-2.82-3.63-3.72,3.36-3.72,3.36"/><path class="cls-3" d="M132.82,145.28s-1.55.09-1.37,2.36"/><path class="cls-3" d="M143.09,155.46s-.82-2.91,3.45-4.46"/><path class="cls-3" d="M127.82,162.36s.54-1.45,1.09-1,.36,2.09,1.09,1.64-.09-2.54,1.27-1.82,1.37,1.73,1.37,1.73l.45.36"/><path class="cls-3" d="M152.36,164.82s.81.63,2.18-.37,1.54-2.81,3.18-1.36,1.45,3.27,2.27,2,.82-3.09,2.09-2-.09,2.64,2,1.36,1.54-2.54,3.09-1.45,1.63,3,2.91,2,2-3.27,2.45-2,1.54,3.27,3.27,2.27.73-2.18,2.27-1.18.55,1.64,1.73,1.54l1.18-.09"/><path class="cls-3" d="M180.53,171.27a1.5,1.5,0,0,0,1.81,0c.82-.73.55-1.64.91-1.82"/><path class="cls-3" d="M174.07,173s-2.27-.37-2.81-1-.91-.82-1.64.09-.36,1.54-1.45.81-1.91-1.72-2.55-.9-.82,2.09-2.45,1.36-3.64-1.55-4-1.09l-.36.45s.54,1.28-1.37,1.18-2.72-.18-3.72-.81-1.46-.19-2.36.63-2,1.55-2.82.64-1.18-2.09-3.09-1.18-2,2.18-3.09,1.54-1.27-1.72-3.18-1.63-2.09.91-2.82,1.09-.82.72-1.82,0a2.07,2.07,0,0,0-1.63-.55"/><path class="cls-3" d="M129.91,179a13.23,13.23,0,0,0,2.82.37c1.36,0,2.09-2,1.63-3.37s-3.09-3.63-3.45-3.9c0,0-1.82,1.18-1.91,2.54"/><path class="cls-3" d="M132.45,177.27s-2,1.09-1.9-.37a27.17,27.17,0,0,1,.54-3.45v-.82"/><path class="cls-3" d="M156.17,174s-1.36,2.36-.91,4.27,3.55,2.09,4.73,1.18,2.36-2.64,1.73-4a14.69,14.69,0,0,0-2.55-3.18s-.45,4-1.54,5.27"/><path class="cls-3" d="M166.78,170.15a25.37,25.37,0,0,0,6.86-.55c2.52-.79,3.31-1.34,1.26-1.74s-7-1.73-12.06-1.34"/><path class="cls-3" d="M158.58,167.15a7.63,7.63,0,0,0,2.29.63"/><path class="cls-3" d="M163.31,168.65a10.13,10.13,0,0,0,3.24.16"/><path class="cls-3" d="M189.41,162.18s-.4-1.73-1.5-1.1-2,1.89-3.7,2.52a18.71,18.71,0,0,1-3,.87s-.79.55.24,1.5,3.39.08,3.62-.08a12.06,12.06,0,0,0-3.07,1.42c-.24.39.86,2.44,2.84,1.18s2.76-1.18,2.76-1.18l.55,1.73"/><path class="cls-3" d="M147.15,157.22s-1,3.31-.63,4.1,2.29,0,2-.95S147.15,157.22,147.15,157.22Z"/><path class="cls-3" d="M128,164.47a20.1,20.1,0,0,0,5,.24"/><path class="cls-3" d="M140.92,173.06c.24-.07,2.45-.55,2.45-2.36s-.08-3.79-1.34-3.39a5,5,0,0,0-2.05,1.26s-.24-2-1.74-1.5-2.52.08-2,2a5.28,5.28,0,0,0-1.5.08c-1,.16-1.18-.94-1.73-1.42s-.31-1-.08-2.52,1.26-1,1.26-1l-.23-.71a6,6,0,0,1-.4-3.39c.32-2,2.29-2.2,3.55-1.65s1.26,2.44,1.26,2.44.95-1,1.58-1.81.39-4.1.39-4.1l.63-.63a13.21,13.21,0,0,0,.87,3.55,28.23,28.23,0,0,1,1.34,4.25,5.53,5.53,0,0,1,3-.63c1.42.24.31,3.08.31,3.08"/><path class="cls-3" d="M138.16,172.83s-1.89-1.89-1.89-2.92v-1"/><path class="cls-3" d="M138.72,168.89a3.14,3.14,0,0,0,.08,2"/><path class="cls-3" d="M142.11,169.2s-1.5.87-1.42,1.81"/><path class="cls-3" d="M149.6,169.12s-1.19.79-1.11,1.82"/><path class="cls-3" d="M146.76,172.12a3.06,3.06,0,0,1,.47-3.31c1.34-1.9,1.66-2.6,3.63-2s2.91,2.2,2.13,3.7a4,4,0,0,1-3,2.21,14.74,14.74,0,0,1-2.52-.16Z"/><path class="cls-3" d="M144.63,169.36s.63-2.84-1-3.31a5.77,5.77,0,0,0-3-.08s.63-.79-.79-.79a4.59,4.59,0,0,0-2.29.55s.08-1.57-.71-1.5-1.18.08-1.18.08"/><path class="cls-3" d="M136.27,171.41a12.55,12.55,0,0,0-2.6-.16,13.06,13.06,0,0,1-3.31-.55,14.47,14.47,0,0,0-2.05-.16"/><path class="cls-3" d="M155,171.72a5.49,5.49,0,0,0-.08-2.52"/><path class="cls-3" d="M154.41,167.94s-1.42-2.92-3.16-3.39a2.35,2.35,0,0,0-2.6.87"/><path class="cls-3" d="M147,162.18s2.45-.07,3.24,1.74.63.24.63.24"/><path class="cls-3" d="M133,152.9s.92,2.43.08,3.64-1.21,2.58-1.59,1.06a4.75,4.75,0,0,1,1.21-4.78"/><line class="cls-3" x1="118.53" y1="188.53" x2="118.01" y2="187.56"/><line class="cls-3" x1="118.92" y1="185.28" x2="119.57" y2="185.93"/><line class="cls-3" x1="115.4" y1="190.29" x2="115.66" y2="191.73"/><line class="cls-3" x1="120.29" y1="191.92" x2="121.14" y2="193.09"/><line class="cls-3" x1="122.51" y1="193.94" x2="122.05" y2="194.98"/><line class="cls-3" x1="123.42" y1="192.96" x2="125.18" y2="194.14"/><line class="cls-3" x1="125.44" y1="195.96" x2="126.74" y2="196.74"/><line class="cls-3" x1="133.52" y1="187.36" x2="134.17" y2="188.34"/><line class="cls-3" x1="134.95" y1="188.6" x2="135.08" y2="189.19"/><line class="cls-3" x1="136.06" y1="186.91" x2="136.45" y2="188.14"/><line class="cls-3" x1="136.51" y1="185.08" x2="137.17" y2="185.99"/><line class="cls-3" x1="134.75" y1="184.3" x2="135.28" y2="185.28"/><line class="cls-3" x1="133.06" y1="183.97" x2="133.32" y2="184.56"/><line class="cls-3" x1="131.95" y1="185.93" x2="132.87" y2="186.64"/><line class="cls-3" x1="131.95" y1="181.69" x2="132.41" y2="183.19"/><line class="cls-3" x1="132.74" y1="180.78" x2="133.39" y2="181.24"/><line class="cls-3" x1="134.75" y1="179.35" x2="135.28" y2="180"/><line class="cls-3" x1="135.99" y1="175.83" x2="136.32" y2="176.68"/><line class="cls-3" x1="132.08" y1="175.44" x2="132.34" y2="176.22"/><line class="cls-3" x1="137.23" y1="191.86" x2="137.62" y2="193.16"/><line class="cls-3" x1="157.49" y1="197.33" x2="158.34" y2="196.42"/><line class="cls-3" x1="149.54" y1="195.51" x2="149.68" y2="194.53"/><line class="cls-3" x1="152.54" y1="190.29" x2="153.52" y2="188.92"/><line class="cls-3" x1="164.33" y1="176.28" x2="165.38" y2="177.72"/><line class="cls-3" x1="176.97" y1="184.3" x2="176.91" y2="185.73"/><line class="cls-3" x1="179.12" y1="183.71" x2="178.73" y2="185.47"/><line class="cls-3" x1="175.15" y1="185.54" x2="175.15" y2="187.1"/><line class="cls-3" x1="174.37" y1="187.88" x2="174.69" y2="188.99"/><line class="cls-3" x1="172.15" y1="189.19" x2="172.28" y2="190.94"/><line class="cls-3" x1="171.57" y1="191.99" x2="169.42" y2="193.62"/><line class="cls-3" x1="167.92" y1="194.07" x2="165.96" y2="195.96"/><line class="cls-3" x1="104.86" y1="169.25" x2="105.53" y2="169.99"/><line class="cls-3" x1="101.6" y1="167.55" x2="102.72" y2="169.32"/><path class="cls-3" d="M107.38,173a3.43,3.43,0,0,0,2.67,1"/><path class="cls-3" d="M110.86,174.43s2.08-.74,2.89-.37"/><path class="cls-3" d="M114.34,179.77a5.63,5.63,0,0,1,1.49,4.15"/><path class="cls-3" d="M120.27,188.51s-1.78.74-2.22,3.7"/><path class="cls-3" d="M120.34,189.84a3,3,0,0,1-.29,1.78"/><path class="cls-3" d="M121.53,191.32s1.48,0,1.48,2.22"/><path class="cls-3" d="M139.31,177a2.67,2.67,0,0,0,.51,3.4"/><path class="cls-3" d="M139.9,186.88a5.72,5.72,0,0,0-1.93,1.78,1.54,1.54,0,0,0,.82,2.44c1.11.3,1.92.44,1.92.44s-.22-1.85.89-1.92,1.26.15,2.52,1.63,3.11,2.07,4.15,1.26,1.55-2.08.89-3-1.63-2.37-1.63-2.37,2.14,1.56,2.81,1.12,1.11-1.63.52-1.93a11.35,11.35,0,0,0-1.63-.59"/><path class="cls-3" d="M153.3,185.54s-2.37,1.12-.88,2.75"/><line class="cls-3" x1="155.08" y1="181.84" x2="156.04" y2="183.47"/><line class="cls-3" x1="155.82" y1="181.03" x2="157.08" y2="181.47"/><path class="cls-3" d="M152.86,194.06a3.74,3.74,0,0,1,2.89-2.07"/><path class="cls-3" d="M153.82,195.25a5.5,5.5,0,0,1,4.37-1.48"/><path class="cls-3" d="M153.08,198.65s.67-1.62,3.48-1.85"/><path class="cls-3" d="M151.53,199.1s.29-1.85-3.19-2.37"/><path class="cls-3" d="M145.23,197.77a8.41,8.41,0,0,0-5.48-2.23"/><path class="cls-3" d="M146.93,195.77s-1.48-3.11-3.7-1"/><path class="cls-3" d="M144,193.47s-1.78-2-3.41.07"/><path class="cls-3" d="M150.27,193.62a2.49,2.49,0,0,1,2.74-1.78"/><path class="cls-3" d="M159.16,195.84s2.59,1.63,3.25.44.45-1.63.45-1.63"/><path class="cls-3" d="M156.64,198.28s2.52,1,3.85-.37"/><path class="cls-3" d="M133.68,162.29s1.92-1.34,2.51.66"/><path class="cls-3" d="M137.68,161.92s1.48,2.37,2.81,1.26"/><path class="cls-3" d="M139.9,161.47s1.63-.22,2.07.67"/><path class="cls-3" d="M143,164.29s1.26-.15,1.41.52"/><path class="cls-3" d="M144.49,163.32s1-.22,1.19.37"/><path class="cls-3" d="M132.19,169s-1.89.16-1.83,1.75"/><path class="cls-3" d="M157.05,187.55A9.75,9.75,0,0,0,160,193c2.46,2,3.36.73,2-2S157,185.58,157.05,187.55Z"/><path class="cls-3" d="M162.29,194.27a2.58,2.58,0,0,0,3.19-.25c1.64-1.39,1.48-3.85-.41-6.14s-4.75-4.18-7-4-1.15,3.2-1.15,3.2"/><path class="cls-3" d="M157.42,183.89a3.25,3.25,0,0,1,3.08-2.66c2.77-.26,5.17.42,6.58,2.87s1.46,5.58.94,6.58-.68,2.29-1.57,2.66-.62.42-.62.42"/><path class="cls-3" d="M160.5,180.92a5.87,5.87,0,0,1,3.76-2.14c2.51-.37,5.27.88,6.11,3.23s1.56,5.22.62,6.94-2.34,3.71-3,4a4.56,4.56,0,0,1-1.2.31"/><path class="cls-3" d="M166.3,178.57s-.42-1.83,2-2,5,.84,5.48,3.29.63,4.7,0,5.54a4.39,4.39,0,0,1-2.14,1.14"/><path class="cls-3" d="M170.37,176.48a2.77,2.77,0,0,1,2.61-1.57c2.09-.1,3.65,1.26,3.6,2.87s-.37,3.19-1,3.76-1.1.94-1.1.94"/><path class="cls-3" d="M173.66,174.44a2.75,2.75,0,0,1,2.08-2.08c1.83-.47,3,.57,3,2.35s.26,3.28-.83,3.34l-1.1,0"/><path class="cls-3" d="M177.1,171.89a2.22,2.22,0,0,1,2.09-.94,2,2,0,0,1,1.46,2.82,3.46,3.46,0,0,1-1.67,1.61"/><path class="cls-3" d="M145,35.18s2.83.33,1.83-1-3.67-1.5-3.83,1.16,2,4,4.5,3.84c2.13-.15,4.51-2.12,4.22-3.93a1.91,1.91,0,0,0-.39-.91c-1.5-2-5-4.33-7.67-3.5s-4.33,4.84-3.5,7.84,2.67,3.5,5,3.5,6.17.33,8.67-1.67,2.67-3.5,2.67-3.5-1.17-2.17-2.84-1.83S149.84,37,152.51,38s2.83.33,2.83.33"/><path class="cls-3" d="M139.69,36.19s-.17-2-1.34-2.34-4.5-1.16-6.16,4.5c0,0,1,3.5,4,3.84s4.16-1.5,4.16-1.5V38.35Z"/><path class="cls-3" d="M132.15,38.61s-1-2.84-2.83-2.34-3.84,3.34-2,5,5.16,2,4.16-.16-2-3.67-2.33-2.5a3.23,3.23,0,0,0-.17,1.66"/><path class="cls-3" d="M124.94,39.25s-3-1-3.52.11,1.08,3.69,2.61,2.78,1.64-1.19,1.59-1.64A3.86,3.86,0,0,0,124.94,39.25Z"/><polyline class="cls-3" points="137.87 33.58 137.7 27.17 138.44 27 141.56 32.16 138.04 31.93"/><line class="cls-3" x1="139.97" y1="29.83" x2="137.98" y2="29.6"/><path class="cls-3" d="M156.42,36.64c.17-.06,2.89-6.52,2.89-6.52l.79.17.34,10.38a2,2,0,0,1-.85,1.53,6.4,6.4,0,0,1-2.61.34s-2.15-.23-2.27-.85-.17-1.48-.17-1.48"/><line class="cls-3" x1="155.45" y1="39.25" x2="157.55" y2="42.2"/><path class="cls-3" d="M156.36,37.26c.28.17,3.23,4.94,3.23,4.94"/><path class="cls-3" d="M157.49,35.11c.17,0,2.84,3.91,2.84,3.91"/><line class="cls-3" x1="158.29" y1="32.78" x2="160.27" y2="34.88"/><path class="cls-3" d="M164.41,39.53a1.17,1.17,0,0,0-1.47-1.08c-1.36.29-2.5,1-1.48,2.73s2.22,1.75,4.2,1.19,3.06-2.16,2-4.54-2.83-3.29-4.82-2.95a3.45,3.45,0,0,0-2.61,1.87"/><line class="cls-4" x1="124.46" y1="45.21" x2="144.3" y2="45.21"/><line class="cls-4" x1="156.67" y1="45.21" x2="167.5" y2="45.21"/><path class="cls-1" d="M86.13,235.13h3.13s3.12-7.5,8-8.75,8.25.5,11.12,2.63,7.63,1.37,10.88-.38,9-1.25,13.12,1.63,12.5,3,19.5.37,12.75-5.37,22.25-1.75S188.76,231,190,231.13s5.25,4,6.37,4.88,3.81,3.47,3.81,3.47"/><path class="cls-1" d="M204.7,250s3.93,4.14,2.68,6.52-3.25,3.62-6.75,3-3.37-1.5-7-1.63-15-.25-23.87-1.87-21.38-2.75-29.38,1-23.87.25-28.75-2-8-2.75-12-2.13-7.12.5-9.25-2-2.5-2.75-2.25-4.37a26.21,26.21,0,0,0-.12-4.63,1.58,1.58,0,0,0-.5-1.25H86.26"/><path class="cls-1" d="M88.15,247.81s-.39,3.7.48,5.45,3.13,6,8.75,5.37,7.88-3.12,12.25-1.12,8.88,5.12,18.75,5.75a52.06,52.06,0,0,0,21.5-3.25,23.59,23.59,0,0,1,15.5.25c5,2,17.75,2.5,21.88,2.75s14.37.75,16,.62,4.25,1,4.62-1.37a37.3,37.3,0,0,0-.25-7.38"/><circle class="cls-1" cx="95.63" cy="241.26" r="2.63"/><circle class="cls-1" cx="110.38" cy="235.63" r="2.5"/><circle class="cls-1" cx="111.63" cy="248.38" r="2.5"/><circle class="cls-1" cx="174.82" cy="250.07" r="2.5"/><circle class="cls-1" cx="176.76" cy="238.51" r="2.5"/><circle class="cls-1" cx="189.79" cy="244.86" r="2.5"/><path class="cls-1" d="M95.26,204.88s-1,4.25,1.37,5.25,5.13-.62,5.5-2.25-1.25-4.62-2.62-5A4.12,4.12,0,0,0,95.26,204.88Z"/><path class="cls-1" d="M94.73,205.4s-3.35-.89-3.22-2.39.37-2.75,1.75-2.13,2.25,3.38,2.25,3.38"/><path class="cls-1" d="M99.22,202.66s-.26-2.8.59-3.32,2.08.26,1.89,1.63a11.2,11.2,0,0,1-.85,2.73"/><path class="cls-1" d="M96.36,203.12s-1.24-2.48-.26-3.59,1.49-1.56,2.41-1.17,1,.91,1,.91"/><path class="cls-1" d="M93.23,200.45a1.64,1.64,0,0,1,2.54-.79"/><path class="cls-1" d="M102.15,205.66s1.57-.46,1-1.83a1.75,1.75,0,0,0-1.63-1.3"/><path class="cls-1" d="M84.21,214.51s.56,3.7,2.56,3.88A3.13,3.13,0,0,0,90,215.12c-.21-1.42-2.28-3.42-3.37-3.36A3,3,0,0,0,84.21,214.51Z"/><path class="cls-1" d="M84,215.07s-2.66.16-3-1.08-.55-2.33.62-2.19,2.62,2.14,2.62,2.14"/><path class="cls-1" d="M86.38,211.66s-1-2.2-.58-2.85,1.57-.34,1.84.82a10.6,10.6,0,0,1,.22,2.44"/><path class="cls-1" d="M84.46,212.79s-1.62-1.68-1.26-2.83.61-1.67,1.38-1.59,1,.48,1,.48"/><path class="cls-1" d="M81.43,211.45s0-1.8,1.58-1.3"/><path class="cls-1" d="M89.37,213.31a1.22,1.22,0,0,0,.2-1.75c-.78-1-1.55-.63-1.55-.63"/><path class="cls-1" d="M186.91,204.32s-2.16,3.26-.74,4.8a3.27,3.27,0,0,0,4.82-.26c.82-1.25.62-4.24-.27-5A3.16,3.16,0,0,0,186.91,204.32Z"/><path class="cls-1" d="M186.34,204.59s-2.17-1.73-1.58-2.94,1.19-2.2,2-1.27.54,3.49.54,3.49"/><path class="cls-1" d="M190.58,203.63s.74-2.42,1.54-2.61,1.46.83.86,1.92a10.69,10.69,0,0,1-1.54,2"/><path class="cls-1" d="M188.31,203.16s-.09-2.43,1-3.07,1.63-.87,2.18-.27a1.23,1.23,0,0,1,.42,1.05"/><path class="cls-1" d="M186.89,200s1.27-1.39,2.14.09"/><path class="cls-1" d="M191.75,207a1.27,1.27,0,0,0,1.38-1.22c.07-1.3-.77-1.57-.77-1.57"/><path class="cls-1" d="M199.07,212s-2.15,3.26-.73,4.79a3.28,3.28,0,0,0,4.82-.26c.82-1.25.62-4.23-.27-5A3.16,3.16,0,0,0,199.07,212Z"/><path class="cls-1" d="M198.51,212.26s-2.18-1.73-1.59-2.95,1.2-2.19,2-1.26.54,3.49.54,3.49"/><path class="cls-1" d="M202.75,211.3s.74-2.43,1.54-2.61,1.46.83.86,1.92a11.08,11.08,0,0,1-1.54,2"/><path class="cls-1" d="M200.48,210.83s-.09-2.44,1-3.07,1.63-.87,2.17-.27a1.19,1.19,0,0,1,.42,1"/><path class="cls-1" d="M199.05,207.67s1.28-1.38,2.14.1"/><path class="cls-1" d="M203.92,214.67a1.27,1.27,0,0,0,1.38-1.22c.07-1.3-.77-1.57-.77-1.57"/><path class="cls-1" d="M99.84,210.34a52,52,0,0,1,10.54,25.29"/><path class="cls-1" d="M95.63,241.26S93.86,224,89,217.81"/><path class="cls-1" d="M119.61,234.79a1.79,1.79,0,0,0,.43-1.1c.06-.73-.8-1.47-3.37.31a4.06,4.06,0,0,0-1.77,4.4,2.88,2.88,0,0,0,3.06,2.76c2.94-.06,3.43-2.14,3.37-2.82s-.43-1.59-1.54-1.34-2.38.55-2.75,1.34-.92,1.72-.92,1.72"/><path class="cls-1" d="M116.92,237.85s-.61-1.89.85-2.75,3.31-.31,3.56.18.61,1.72-.19,2.14"/><path class="cls-1" d="M111.71,248.2a14.57,14.57,0,0,1,2.94-9.73"/><path class="cls-1" d="M171.17,238.18s3-2.85,3.12-4.81-1.25-2.4-1.78-1.51S169.93,234,171.17,238.18Z"/><path class="cls-1" d="M170.78,234.17a34,34,0,0,0-2.45-2.4c-.72-.53-2.94-1.07-2.68,1.6s5.47,5.17,5.47,5.17-.71,5.07,3.7,11.53"/><path class="cls-1" d="M168.55,231.43s-.13-.84,1.62-1.09a2.22,2.22,0,0,1,2.38,1"/><path class="cls-1" d="M176.74,238.31s0-4.83,3.51-12.8,7-15.72,7-15.72"/><path class="cls-1" d="M189.6,244.86s.35-21.62,9.17-27.75"/><path class="cls-1" d="M153.85,240.55s4.81-.41,3.9,2.2-1.7,2.5-3.3,2.4-1.81-2-.3-2.1"/><path class="cls-1" d="M146.33,241.35s-6.71-.8-10.62.7-2.1,2.6.3,3.6,6.22.21,6.22.21"/><path class="cls-1" d="M146.73,248.36s-13.12-.3-15.93-.9-5.41-3-4.1-4.91,7.51-3.91,9.31-3.91h1.81s1.8-2.8,3.1-1.7l1.31,1.1s9.31-.9,12.42-.5,7.91,2.2,8.81,3.61a4.33,4.33,0,0,1-.5,4.71c-.9.8-6.91,2.5-10.42,2.7A28.13,28.13,0,0,1,146.73,248.36Z"/><path class="cls-1" d="M138.22,250.16s-8.42-.5-10.22-1.5-2.61-3.81-2.61-3.81l.61-1.7.7-.6"/><path class="cls-1" d="M142.48,250.39a100.82,100.82,0,0,0,12.64.21,23.28,23.28,0,0,0,9-3.21,3.18,3.18,0,0,0,.77-1.19,2.57,2.57,0,0,0,.35-3.07,6.57,6.57,0,0,0-2.79-2.87"/><path class="cls-1" d="M146,244a15.22,15.22,0,0,1,3.77.14"/><path class="cls-1" d="M98.36,245.36s-1.19,2.74.37,4.89"/><path class="cls-1" d="M93.32,245.14s1.71.89,2,1.63"/><path class="cls-1" d="M95.84,248.25a3.82,3.82,0,0,1,1.11,3"/><path class="cls-1" d="M122,249s.8,1.2,3.49,1.8"/><path class="cls-1" d="M138.31,253.32s2.79.89,3.79.59"/><line class="cls-1" x1="168.74" y1="248.13" x2="167.45" y2="249.32"/><path class="cls-1" d="M166.25,240.74a5.21,5.21,0,0,1,1.69,2.9"/><path class="cls-1" d="M125.53,237.45a5,5,0,0,1,2.2-1.2"/><path class="cls-1" d="M185.81,250.32a4.31,4.31,0,0,0,1.49,1.7"/><path class="cls-1" d="M192.09,250.52s-.1,1.7-1,2.3"/><path class="cls-1" d="M198.18,251.92s2.2,0,2.69-.7"/><ellipse class="cls-1" cx="96.93" cy="343.09" rx="1.53" ry="2.59" transform="translate(-259.58 340.76) rotate(-73.85)"/><path class="cls-1" d="M89.47,346.21s1-4.87,3.7-5l2.75-.1s-.63-2.44-2.75-2.44-5.71,1.49-3.81,7.1"/><path class="cls-1" d="M94.27,343.36a8.19,8.19,0,0,0-1.81,5.08,30,30,0,0,1-1.53,8.42c-.42.91-1.05,2.3-1.05,2.3s-.49,1.6-.07,2a43.44,43.44,0,0,0,3.76,3.27,1.65,1.65,0,0,0,2.23-.91,39.65,39.65,0,0,0,1-9.39c-.21-2.23-1.46-7.38-1.46-8.35v-1.32"/><path class="cls-1" d="M96.62,341.12a2.83,2.83,0,0,1,2.75-1.76,4.78,4.78,0,0,1,4,2,3.94,3.94,0,0,1,0,1.06,3.64,3.64,0,0,1-1.18.18,3.62,3.62,0,0,0-.85,0"/><path class="cls-1" d="M98.86,344.76a3.37,3.37,0,0,1,1.91,2.54,4.8,4.8,0,0,1-.61,2.82s-.66.45-.91-.06-2.27-2.55-1.81-3.73a3.19,3.19,0,0,1,.9-1.48Z"/><path class="cls-1" d="M99.19,342.33a1.84,1.84,0,0,1,2.73.82,6,6,0,0,1,.67,3.51,6,6,0,0,1-2.37-.87"/><path class="cls-1" d="M99.19,372.38s-2.75-1.93-1.31-3.56,2.44-1.25,2.44-1.25"/><path class="cls-1" d="M101.07,365.45a4.32,4.32,0,0,0-2.38-2.32c-1.87-.81-1.18-.06-1.18-.06s-.32,3.88.87,5"/><path class="cls-1" d="M97.19,370.07a2.78,2.78,0,0,0-2.62.88c-1.06,1.25-1.44,1.62-1.25,1.62s3.19,1.19,5.44-.25"/><path class="cls-1" d="M96.38,369.76a5.2,5.2,0,0,1-1.56-2.88,2.31,2.31,0,0,1,2.5-.75"/><path class="cls-1" d="M159,363.73s.16,1.61,1.53,1.13-.16-3.47-2.26-3.72-3.72,2.67-3.39,5.42,2.82,3.31,4.28,3.23,4.12-1.3,4.52-3.64a9,9,0,0,0-3.8-8.24c-3.07-2.1-8.56,1.38-9.77,3.48s-2.66,8.56-.24,11.87,3.05,3.38,3.05,3.38"/><path class="cls-1" d="M164.34,373.5s-4,1.29-7.19-.08-6.38-4.93-6.22-7,2.66-6.54,4.44-7.1,3.64-.89,5.17.48,2.83,4.61,2.34,5.57a4,4,0,0,1-3.15,2.43c-1.61.08-2.82-.24-3.39-1.21a4.28,4.28,0,0,1-.65-3.07,5.32,5.32,0,0,1,.57-1.46"/><circle class="cls-1" cx="153.42" cy="363.01" r="1.03"/><circle class="cls-1" cx="158.37" cy="353.34" r="1.83"/><circle class="cls-1" cx="153.12" cy="352.1" r="1.53"/><circle class="cls-1" cx="149.11" cy="350.09" r="1.53"/><circle class="cls-1" cx="144.12" cy="347.78" r="1.53"/><path class="cls-1" d="M142.36,346.8a1.53,1.53,0,0,0-3.06,0c0,.85.69,1.25,1.54,1.25S142.36,347.65,142.36,346.8Z"/><circle class="cls-1" cx="138.82" cy="336.17" r="1.53"/><circle class="cls-1" cx="145.28" cy="332.57" r="1.53"/><circle class="cls-1" cx="131.23" cy="329.39" r="1.53"/><circle class="cls-1" cx="133.87" cy="323.01" r="1.13"/><circle class="cls-1" cx="145.41" cy="325.86" r="1.13"/><circle class="cls-1" cx="144.82" cy="314.97" r="1.13"/><circle class="cls-1" cx="155.96" cy="316.79" r="1.13"/><circle class="cls-1" cx="159.46" cy="319.73" r="1.13"/><circle class="cls-1" cx="160.96" cy="323.86" r="1.13"/><circle class="cls-1" cx="151.04" cy="314.84" r="1.32"/><circle class="cls-1" cx="138.98" cy="364.13" r="1.53"/><circle class="cls-1" cx="135.97" cy="362.42" r="1.16"/><path class="cls-1" d="M164.09,314.24a5.26,5.26,0,0,1-2.18.38,3.62,3.62,0,0,1-3.12-3.69c.09-2,.85-3.79,0-4.45s-7.49-2.75-9.1-3.32-3.58-3.12-3.31-6.54c.29-3.79,4.26-4.26,7.67-2.55s3.32,6.15,2.65,7.48-5.59,2.84-9.38,4.26-3.5,4.08-3.5,4.08.8,1.55,2,.68-.53-3.31-.53-3.31"/><path class="cls-1" d="M153.78,302.72a4.14,4.14,0,0,0,1.46-3.88c-.36-2.57-1.31-3.74-2.71-3.74s-2.71,1.54-2.64,3.3.37,3.15,1.76,3.74,4.84-.08,7.85.73a4.86,4.86,0,0,1,3.81,5.42c-.29,2.13.95,2.64.95,2.64"/><circle class="cls-1" cx="148.87" cy="295.68" r="1.47"/><circle class="cls-1" cx="148.21" cy="299.42" r="1.17"/><circle class="cls-1" cx="160.6" cy="305.73" r="1.32"/><circle class="cls-1" cx="161.26" cy="310.93" r="1.39"/><path class="cls-1" d="M148,305.61s-.44,1.49.83,1.53,2-.77,1.74-1.34a1.46,1.46,0,0,0-.8-.77"/><path class="cls-1" d="M164.09,328.34s-1.17.84-1.42-1.16-.16-4.67-1.33-7a12.9,12.9,0,0,0-6.83-5.75c-3.17-1.25-8.67-1.92-11.17-.34s-7.08,4.34-8.08,5.5-5.09,3.5-5.92,5.75-1.08,7.09,1.5,9.84,4.67,4.58,8.5,3.66,6.42-2.33,7.33-3.91a8.43,8.43,0,0,0,1.12-6.42c-.67-2.58-2.18-5.45-3-5.95s-4.26-2.15-4.26-2.15"/><path class="cls-1" d="M164.09,331.09s-3.5.25-5.67-1.75-1.58-4.41-2.41-7.16-5.34-4.67-8.34-4.59-8.16,2.92-10.66,5.25-3.25,4.17-3.42,6.25-.33,4.67,3.42,4.67,6.58-2,7.16-3.42-.5-5.16-1.5-6.58-4.28-1.9-4.28-1.9"/><path class="cls-1" d="M143.94,318.57s7.38-1,9.32,3.25,3.06,9.56,6.62,11.13a19,19,0,0,0,4.44,1.62"/><path class="cls-1" d="M164.13,339.38s-5.87-1.25-7.87-5.5-3-8.75-4.25-10.75-3.82-2.68-5.94-2.75a10,10,0,0,0-3.69.57l-.31.06"/><path class="cls-1" d="M140.51,322.51a11.5,11.5,0,0,0-4.88,3.25c-1.87,2.31-2,3.33-2,3.33"/><path class="cls-1" d="M136.82,318s-3.5-1.19-4.88-3.63-.81-4.06.19-3.81,1.63.25,1.56.88-.37.75-.37.75.87.81,1.12-.19a1.79,1.79,0,0,0-1.56-2.44c-1.56-.19-2.62.25-2.62.69a1.41,1.41,0,0,1-.32.81,5.41,5.41,0,0,1-.62-2.69c.19-1.12-1.31-1.25-1.63-.5a3.27,3.27,0,0,0,.13,3.63,18,18,0,0,0,3.5,4.25,24.21,24.21,0,0,0,5,2.69"/><path class="cls-1" d="M164.17,352.59s-3.08,2.84-6.25,2.92-9.41-3.33-11.08-4.5a22.08,22.08,0,0,0-7.08-3.08c-2.59-.59-6.17-.09-7.17,2.5s-1.42,7.75.75,9.08,6.08,2.92,7.75,3.83,4.5,4,4.17,6.59-4.67,5.66-8,5.08-6.25-2.08-5.34-4,2.5-2.75,3.75-2.25a3.43,3.43,0,0,1,1.67,2.17"/><path class="cls-1" d="M136.26,369.38s-1.5.38-1.5,1.63.25,2.25,2.25,2.33a9.47,9.47,0,0,0,5.5-1.5,2.12,2.12,0,0,0-.42-3.5c-1.5-.66-8.08-1.33-10.5-3.83s-4.67-8-3.75-12.08,3.42-8.25,6.67-9.67,11.41-1.58,13.83-.17,4.92,3.42,6.75,4.59a3.9,3.9,0,0,0,5-.59,61.33,61.33,0,0,0,4-4.66"/><path class="cls-1" d="M164.09,346.51a7.82,7.82,0,0,1-5.25,3.17c-3.25.25-5.42-1.17-8.75-3.09s-6.42-3.33-9.42-3.08-8.25,1.83-10,5.75-1.33,8.67-.08,10.42a10.15,10.15,0,0,0,4.67,3.54"/><path class="cls-1" d="M186.62,315.05s3.47-2.06.65-4.44-6.61-3.26-7.16-7.59,4-7.92,6.29-10.2,3.69-6.72-1.3-6.83-7.48,1.19-9.87-.43a5.49,5.49,0,0,1-1.51-7.16,19.79,19.79,0,0,1,1.62-2.5l.33,1a6.49,6.49,0,0,0-.33,4.66c.87,2.28.76,2.93,3.47,2.93s6.84-.65,9.22-.32,5,1.08,5.42,3.47,1.3,4.33-1.51,6.29-4.89,3.68-4.89,3.68"/><path class="cls-1" d="M189.13,302.57s4.87,1.75,5.41,5.11.21,5.64-1,6.29-2.45,1.2-2.45,1.2"/><path class="cls-1" d="M188.62,314.93s2.56-1.39,1.58-3.67-5.75-5.32-6.83-7.48a5.71,5.71,0,0,1,.32-6.29A19.74,19.74,0,0,1,188,294"/><circle class="cls-1" cx="185.92" cy="299.1" r="1.69"/><circle class="cls-1" cx="187.11" cy="303.45" r="2.15"/><circle class="cls-1" cx="190.7" cy="307.26" r="1.27"/><circle class="cls-1" cx="189.09" cy="293.02" r="1.48"/><circle class="cls-1" cx="191.37" cy="288.46" r="1.86"/><circle class="cls-1" cx="176.5" cy="281.02" r="1.23"/><circle class="cls-1" cx="179.67" cy="283.22" r="1.23"/><path class="cls-1" d="M196.71,316.59s-6.54-2.5-11.2-1.25-6.5,4.17-7.09,5.67-2.45,5.45-2.62,8.87"/><path class="cls-1" d="M196.68,318.9s-4.42-1.89-8.34-1.06-8.17,5.25-9.25,8.5-1.5,9.42-1.5,11.92"/><path class="cls-1" d="M191,323.09a9.17,9.17,0,0,1,1.58,4.34"/><path class="cls-1" d="M185.09,326.26s2.67.08,3.42,1.75"/><path class="cls-1" d="M190,326.93s1.66,1.41,1.5,2.5"/><path class="cls-1" d="M193.17,333.18s-1.58,3.58-.58,6.33"/><path class="cls-1" d="M185.26,333.43H188"/><line class="cls-1" x1="185.76" y1="328.51" x2="187.59" y2="329.18"/><path class="cls-1" d="M189.26,331.18v1.41"/><line class="cls-1" x1="185.59" y1="338.09" x2="188.09" y2="337.93"/><line class="cls-1" x1="187.67" y1="341.76" x2="189.34" y2="341.51"/><path class="cls-1" d="M184.67,345s1.5-3.5,3.09.25"/><path class="cls-1" d="M182.34,360.76s2.58,1.25,3.67,0,.75-3.92,3-4a4.7,4.7,0,0,1,4.66,2.83,2.87,2.87,0,0,0,3.17,1.59"/><path class="cls-1" d="M185.67,350.26s-.5,2-.08,2.83,1.83-.41,1.75-1.91S186.34,348.59,185.67,350.26Z"/><path class="cls-1" d="M196.92,355.09a5.45,5.45,0,0,1-3.5-.33c-1.25-.58-1.25-3,0-4.92s4.25-2.66,4.25-2.66a1.53,1.53,0,0,1,1.25,1.41"/><path class="cls-1" d="M195.51,346.18s.25-1.59,2-.84,2.08,1.42,2.08,1.42"/><path class="cls-1" d="M185.09,347.43a2.06,2.06,0,0,1,2.83-.42c1.5,1.17,1.59,4.08.92,5.83a4.77,4.77,0,0,1-3.75,3c-1.33.09-2.92-2-2.58-3.83S185.09,347.43,185.09,347.43Z"/><path class="cls-1" d="M187.76,376.26s1.5-4.75,4.12-4.5,4.38,4.75,4.38,4.75"/><path class="cls-1" d="M190.88,376.26s.38-3.5,1.88-4.38"/><path class="cls-1" d="M185.38,375.76s1.25-8.25,5-9.63,5.38,2.88,5.5,3.25,1.11,2.55,1.11,2.55"/><path class="cls-1" d="M183.76,367.26a6.8,6.8,0,0,0,4.37-2.25c2.25-2.25,4.63-2.88,5.75-2.13a3.64,3.64,0,0,1,1.25,3.13,9,9,0,0,1-.49,1.29"/><path class="cls-1" d="M187.13,363.26a5.23,5.23,0,0,1,3-2"/><circle class="cls-1" cx="192.19" cy="366" r="1.59"/><ellipse class="cls-1" cx="98.9" cy="333.45" rx="1.39" ry="2.06"/><ellipse class="cls-1" cx="99.73" cy="324.18" rx="1.44" ry="1.67"/><ellipse class="cls-1" cx="105.23" cy="320.95" rx="1.94" ry="2.44"/><ellipse class="cls-1" cx="95.62" cy="313.68" rx="1.89" ry="2.17"/><ellipse class="cls-1" cx="100.17" cy="306.45" rx="1.67" ry="2.39"/><ellipse class="cls-1" cx="95.06" cy="301.18" rx="1.67" ry="2.44"/><ellipse class="cls-1" cx="107.17" cy="298.95" rx="2.22" ry="2.78"/><ellipse class="cls-1" cx="97.62" cy="287.01" rx="2.44" ry="2.28"/><ellipse class="cls-1" cx="108.34" cy="284.57" rx="1.5" ry="1.72"/><ellipse class="cls-1" cx="105.06" cy="276.57" rx="1.78" ry="3.06"/><ellipse class="cls-1" cx="98.45" cy="272.57" rx="1.83" ry="1.94"/><ellipse class="cls-1" cx="99.95" cy="265.45" rx="1.56" ry="1.83"/><ellipse class="cls-1" cx="110.95" cy="268.84" rx="1.78" ry="2.11"/><path class="cls-1" d="M112.17,259c0,2.83-1.28,6-2.72,6s-2.72-5.28-2.72-8.11"/><ellipse class="cls-1" cx="127.23" cy="267.45" rx="1.72" ry="1.94"/><ellipse class="cls-1" cx="122.12" cy="276.45" rx="1.5" ry="2.5"/><ellipse class="cls-1" cx="115.84" cy="284.01" rx="1" ry="1.17"/><ellipse class="cls-1" cx="125.78" cy="292.18" rx="2.33" ry="1.39" transform="translate(-190.76 323.64) rotate(-72.38)"/><ellipse class="cls-1" cx="134.28" cy="281.84" rx="1.33" ry="2.67"/><ellipse class="cls-1" cx="135.56" cy="271.84" rx="1.94" ry="2.89"/><ellipse class="cls-1" cx="143.34" cy="277.45" rx="2.28" ry="2.39"/><ellipse class="cls-1" cx="142.73" cy="286.9" rx="1.22" ry="2.28"/><ellipse class="cls-1" cx="150.67" cy="277.62" rx="1.28" ry="1.78"/><ellipse class="cls-1" cx="147.01" cy="267.34" rx="1.06" ry="1.17"/><ellipse class="cls-1" cx="160.12" cy="265.23" rx="1.72" ry="1.83"/><ellipse class="cls-1" cx="158.12" cy="274.79" rx="2.5" ry="2.61"/><ellipse class="cls-1" cx="159.23" cy="282.12" rx="1.83" ry="2.06"/><ellipse class="cls-1" cx="155.56" cy="289.84" rx="1.28" ry="1.44"/><ellipse class="cls-1" cx="161.28" cy="292.07" rx="2.11" ry="2.22"/><ellipse class="cls-1" cx="169.67" cy="275.51" rx="1.89" ry="1.28" transform="translate(-153.09 298.29) rotate(-62.41)"/><ellipse class="cls-1" cx="189.51" cy="273.12" rx="2.22" ry="2.39"/><ellipse class="cls-1" cx="190.17" cy="266.9" rx="1.56" ry="1.5"/><ellipse class="cls-1" cx="178.84" cy="266.9" rx="2.78" ry="3.83" transform="translate(-100.2 107.66) rotate(-26.46)"/><ellipse class="cls-1" cx="183.84" cy="278.07" rx="1.89" ry="1.78"/><ellipse class="cls-1" cx="180.01" cy="292.01" rx="2.39" ry="1.83" transform="translate(-161.47 259.31) rotate(-52.88)"/><ellipse class="cls-1" cx="126.06" cy="321.01" rx="1.67" ry="2.39"/><line class="cls-2" x1="96.84" y1="300.18" x2="102.94" y2="300.18"/><line class="cls-2" x1="109.21" y1="300.18" x2="114.32" y2="300.18"/></svg>
