<svg id="art" xmlns="http://www.w3.org/2000/svg" viewBox="0 0 274.52 454.52"><defs><style>.cls-1,.cls-2,.cls-3,.cls-4{fill:none;stroke:#fff;}.cls-1,.cls-2{stroke-miterlimit:10;}.cls-2{stroke-dasharray:9 2;}.cls-3{stroke-linejoin:round;}.cls-4{stroke-linejoin:bevel;}</style></defs><title>SV-elemental-alters</title><rect class="cls-1" x="121.55" y="42.84" width="48.11" height="58.85"/><circle class="cls-1" cx="144.88" cy="62.63" r="2"/><ellipse class="cls-1" cx="144.88" cy="89.8" rx="8.81" ry="6.37"/><path class="cls-1" d="M150.55,62.63a5.67,5.67,0,0,0-11.34,0"/><circle class="cls-1" cx="134.63" cy="69.76" r="2.38"/><path class="cls-1" d="M155.87,89.8a7.54,7.54,0,0,0-3.1-5.88,1.6,1.6,0,0,0,.38-1,1.57,1.57,0,0,0-1.57-1.57,1.55,1.55,0,0,0-1.47,1,13.92,13.92,0,0,0-10.46,0,1.59,1.59,0,0,0-1.47-1A1.56,1.56,0,0,0,137,83.92a7.12,7.12,0,0,0,0,11.74,1.53,1.53,0,0,0-.36,1,1.57,1.57,0,0,0,3,.59,14,14,0,0,0,10.5,0,1.56,1.56,0,1,0,2.66-1.57A7.53,7.53,0,0,0,155.87,89.8Z"/><circle class="cls-1" cx="154.04" cy="69.76" r="2.38"/><path class="cls-1" d="M121.39,81.68c-1.69,0-3,1.81-3,4s1.36,4,3,4"/><path class="cls-1" d="M169.92,89.76c1.69,0,3.05-1.81,3.05-4s-1.36-4-3.05-4"/><polyline class="cls-1" points="120.01 106.68 115.51 102.51 101.01 102.51 111.87 112.47"/><polyline class="cls-1" points="102.78 104.45 89.73 104.45 104.87 117.34"/><polyline class="cls-1" points="91.43 106.22 80.47 106.22 97.76 122.05"/><path class="cls-1" d="M144.51,103.85H124.58l-30,20.81,12,9.73s1.26-1.07,3.37-2.68c5.32-4.06,16-11.54,25.33-13.89h8.77"/><path class="cls-1" d="M94.62,124.66s-6.78,2.35-13,15.85S66.84,171.18,71.51,190s10.33,30.33,10.33,30.33-9.83-1.33-16,2.84c0,0-.33,22.95,5.33,26.45s13,.34,14.34-3,.33-17.16-1-21.16l-2.74-5.32"/><path class="cls-1" d="M67.65,221.92,56.78,195s-1.4-3.9-1.5-11.38.4-21.45,1.9-28.74c0,0,2.39-12.37,6.28-19.46s21.66-24.85,21.66-24.85"/><path class="cls-1" d="M80,115.86s5.63-1.07,8.39,1.25l2.77,2.33"/><path class="cls-1" d="M77.76,118.72s5.62-1.07,8.39,1.25l2.77,2.32"/><path class="cls-1" d="M74.45,122s5.63-1.08,8.4,1.25l2.77,2.32"/><path class="cls-1" d="M71.24,125.06s5.62-1.07,8.39,1.25"/><path class="cls-1" d="M67.75,129.35s5.63-1.07,8.4,1.25"/><path class="cls-1" d="M64.9,133.55s5.62-1.07,8.39,1.25"/><path class="cls-1" d="M62.22,139s5.62-1.08,8.39,1.25"/><path class="cls-1" d="M60.79,142.75s5.62-1.07,8.39,1.25"/><path class="cls-1" d="M59.09,147.75s5.63-1.07,8.4,1.25"/><path class="cls-1" d="M58,152.66s5.63-1.07,8.39,1.25"/><path class="cls-1" d="M57,157.13s5.62-1.08,8.39,1.25"/><path class="cls-1" d="M56.41,161.23s5.72-1.07,8.75-.26"/><path class="cls-1" d="M56.05,167s5.72-1.07,8.76-.27"/><path class="cls-1" d="M55.54,172.36S60.87,170,64,170.11"/><path class="cls-1" d="M55.2,178s4.95-3.91,8.36-2.64"/><path class="cls-1" d="M55.64,188.7s4.55-6.09,8.84-4.55"/><path class="cls-1" d="M56.49,192.64s4.93-5.79,9.11-4"/><path class="cls-1" d="M55.4,183.7s3.1-6.79,6.47-3"/><path class="cls-1" d="M57.87,197.35a7.1,7.1,0,0,1,6.5-3.18"/><path class="cls-1" d="M60,202.9s2.44-5.48,6.7-4.4"/><path class="cls-1" d="M61.93,207.3s2.44-5.48,6.7-4.4"/><path class="cls-1" d="M63.08,211.23s2.44-5.49,6.7-4.4"/><path class="cls-1" d="M64.91,214.88s2.43-5.48,6.7-4.4"/><path class="cls-1" d="M66.6,218.67s2.44-5.48,6.7-4.4"/><polyline class="cls-1" points="166.85 106.68 171.35 102.51 185.85 102.51 174.99 112.47"/><polyline class="cls-1" points="184.08 104.45 197.13 104.45 181.99 117.34"/><polyline class="cls-1" points="195.43 106.22 206.39 106.22 189.09 122.05"/><path class="cls-1" d="M142.34,103.85h19.94l30,20.81-12,9.73s-15.7-13.29-28.71-16.57h-8.76"/><path class="cls-1" d="M192.24,124.66S199,127,205.18,140.51,220,171.18,215.35,190,205,220.34,205,220.34s9.83-1.33,16,2.84c0,0-.24,22.79-5.91,26.29s-13,.34-14.33-3,.23-17,1.57-21l2.74-5.32"/><path class="cls-1" d="M219.2,221.92,230.08,195s1.4-3.9,1.5-11.38-.4-21.45-1.9-28.74c0,0-2.39-12.37-6.29-19.46s-21.65-24.85-21.65-24.85"/><path class="cls-1" d="M206.87,115.86s-5.63-1.07-8.4,1.25l-2.77,2.33"/><path class="cls-1" d="M209.1,118.72s-5.63-1.07-8.39,1.25l-2.77,2.32"/><path class="cls-1" d="M212.4,122s-5.62-1.08-8.39,1.25l-2.77,2.32"/><path class="cls-1" d="M215.62,125.06s-5.63-1.07-8.4,1.25"/><path class="cls-1" d="M219.1,129.35s-5.62-1.07-8.39,1.25"/><path class="cls-1" d="M222,133.55s-5.63-1.07-8.39,1.25"/><path class="cls-1" d="M224.64,139s-5.63-1.08-8.39,1.25"/><path class="cls-1" d="M226.07,142.75s-5.63-1.07-8.4,1.25"/><path class="cls-1" d="M227.77,147.75s-5.63-1.07-8.4,1.25"/><path class="cls-1" d="M228.84,152.66s-5.63-1.07-8.4,1.25"/><path class="cls-1" d="M229.82,157.13s-5.63-1.08-8.39,1.25"/><path class="cls-1" d="M230.45,161.23s-5.72-1.07-8.76-.26"/><path class="cls-1" d="M230.8,167s-5.71-1.07-8.75-.27"/><path class="cls-1" d="M231.31,172.36s-5.32-2.34-8.46-2.25"/><path class="cls-1" d="M231.66,178s-4.95-3.91-8.36-2.64"/><path class="cls-1" d="M231.22,188.7s-4.55-6.09-8.84-4.55"/><path class="cls-1" d="M230.37,192.64s-4.93-5.79-9.11-4"/><path class="cls-1" d="M231.46,183.7s-3.1-6.79-6.47-3"/><path class="cls-1" d="M229,197.35a7.11,7.11,0,0,0-6.5-3.18"/><path class="cls-1" d="M226.82,202.9s-2.43-5.48-6.7-4.4"/><path class="cls-1" d="M224.93,207.3s-2.44-5.48-6.7-4.4"/><path class="cls-1" d="M223.78,211.23s-2.44-5.49-6.7-4.4"/><path class="cls-1" d="M222,214.88s-2.44-5.48-6.7-4.4"/><path class="cls-1" d="M220.26,218.67s-2.44-5.48-6.7-4.4"/><ellipse class="cls-1" cx="223.57" cy="240.31" rx="3.84" ry="2.46"/><ellipse class="cls-1" cx="62.82" cy="240.31" rx="3.84" ry="2.46"/><path class="cls-1" d="M179.4,133.68A37.83,37.83,0,0,1,189.51,160c0,16.68-10.2,31.11-25,38.06,0,0-3.15,1.32-4,1.57"/><path class="cls-1" d="M110.81,131.05a42.9,42.9,0,0,0-11.3,29c0,16.68,10.19,31.12,25,38.06a32.51,32.51,0,0,0,3.78,1.63,72.85,72.85,0,0,0,32-.13V209.7"/><line class="cls-1" x1="128.61" y1="209.7" x2="128.61" y2="199.37"/><line class="cls-1" x1="130.45" y1="202.31" x2="130.45" y2="209.7"/><line class="cls-1" x1="132.29" y1="204.4" x2="132.29" y2="210.86"/><line class="cls-1" x1="134.63" y1="206.65" x2="134.63" y2="210.29"/><line class="cls-1" x1="158.31" y1="207.3" x2="158.31" y2="199.91"/><line class="cls-1" x1="156.47" y1="204.57" x2="156.47" y2="200.57"/><line class="cls-1" x1="154.14" y1="203.23" x2="154.14" y2="200.85"/><rect class="cls-1" x="98.81" y="216.54" width="90.61" height="5.3"/><path class="cls-1" d="M145.34,201c-16.86-10.77-25.29-22.25-21.67-46.64s20.17-35.7,20.17-35.7l1.67-.66"/><path class="cls-1" d="M143.67,200.84C126.81,190.08,118.38,178.6,122,154.2s20.17-35.69,20.17-35.69l1.67-.67"/><path class="cls-1" d="M136.38,201a21,21,0,0,1-7.48-4.76c-4-3.73-13.83-18.83-12.42-40.68s17.82-35,17.82-35l4.46-2.67"/><circle class="cls-1" cx="118.86" cy="117.51" r="2.76"/><circle class="cls-1" cx="108.67" cy="123.86" r="2.76"/><circle class="cls-1" cx="167.52" cy="117.51" r="2.76"/><circle class="cls-1" cx="177.71" cy="123.86" r="2.76"/><rect class="cls-1" x="66.28" y="394.32" width="150.42" height="4.4"/><polyline class="cls-1" points="95.78 390.21 66.28 390.21 66.28 385.81 96.64 385.81"/><polyline class="cls-1" points="96.31 385.8 76.02 385.8 76.02 376.65 98.55 376.65"/><line class="cls-1" x1="164.11" y1="390.21" x2="119.92" y2="390.21"/><polyline class="cls-1" points="187.37 385.81 216.7 385.81 216.7 390.21 188.39 390.21"/><polyline class="cls-1" points="148.13 385.81 148.84 385.81 164.23 385.81"/><polyline class="cls-1" points="120.03 385.81 138.32 385.81 138.5 385.81"/><line class="cls-1" x1="87.15" y1="376.69" x2="87.15" y2="350.97"/><line class="cls-1" x1="196.95" y1="304.4" x2="196.95" y2="343.72"/><line class="cls-1" x1="87.15" y1="343.62" x2="87.15" y2="304.4"/><line class="cls-2" x1="122.41" y1="347.68" x2="134.73" y2="347.68"/><line class="cls-2" x1="122.41" y1="301.84" x2="134.73" y2="301.84"/><line class="cls-2" x1="87.57" y1="347.68" x2="102.1" y2="347.68"/><line class="cls-1" x1="119.51" y1="290.51" x2="97.71" y2="394.15"/><polyline class="cls-1" points="95 394.04 116.74 290.51 119.96 290.51 119.96 394.39"/><ellipse class="cls-1" cx="111.95" cy="373.5" rx="5.66" ry="5.3"/><ellipse class="cls-1" cx="113.44" cy="356.32" rx="4.5" ry="4.21"/><ellipse class="cls-1" cx="143.25" cy="384.11" rx="6.36" ry="2.63"/><ellipse class="cls-1" cx="114.96" cy="337.45" rx="3.16" ry="2.96"/><polyline class="cls-1" points="187.91 385.8 208.21 385.8 208.21 376.65 185.67 376.65"/><line class="cls-1" x1="164.72" y1="290.51" x2="186.52" y2="394.15"/><polyline class="cls-1" points="189.23 394.04 167.49 290.51 164.27 290.51 164.27 394.39"/><ellipse class="cls-1" cx="172.27" cy="373.5" rx="5.66" ry="5.3"/><ellipse class="cls-1" cx="170.79" cy="356.32" rx="4.5" ry="4.21"/><ellipse class="cls-1" cx="169.26" cy="337.45" rx="3.16" ry="2.96"/><path class="cls-1" d="M86.74,351a3.92,3.92,0,1,1,0-7.82"/><line class="cls-1" x1="195.83" y1="257.78" x2="195.83" y2="295.82"/><path class="cls-1" d="M86.74,304.42a3.92,3.92,0,1,1,0-7.82h1.78s.06-3.18,0-3.18V257.78"/><path class="cls-1" d="M88.07,257.8a3.92,3.92,0,1,1,0-7.83h1.75l.07-.93v-6"/><path class="cls-1" d="M98.31,221.85H90a2.19,2.19,0,1,0,0,4.37V236"/><line class="cls-1" x1="197" y1="376.69" x2="197" y2="350.97"/><path class="cls-1" d="M197.41,351a3.92,3.92,0,1,0,0-7.82"/><path class="cls-1" d="M197.41,304.42a3.92,3.92,0,1,0,0-7.82h-1.78s-.06-3.18,0-3.18V257.78"/><path class="cls-1" d="M196.08,257.8a3.92,3.92,0,1,0,0-7.83h-1.75l-.07-.93"/><path class="cls-1" d="M185.84,221.85h8.34a2.19,2.19,0,1,1,0,4.37v8.68"/><path class="cls-1" d="M99.39,398.74A9.13,9.13,0,0,1,85,398.68"/><path class="cls-1" d="M201.06,398.74a9.13,9.13,0,0,1-14.41-.06"/><path class="cls-1" d="M181.39,180.55c1-.56,2-1.16,2.91-1.79"/><path class="cls-1" d="M174.24,185.1a42.61,42.61,0,0,0,5.34-2.21"/><path class="cls-1" d="M178.12,177.47A28.73,28.73,0,0,0,184,175"/><line class="cls-1" x1="74.36" y1="390.26" x2="74.38" y2="393.94"/><line class="cls-1" x1="78.66" y1="390.26" x2="78.68" y2="393.94"/><line class="cls-1" x1="82.95" y1="390.26" x2="82.97" y2="393.94"/><line class="cls-1" x1="87.25" y1="390.26" x2="87.27" y2="393.94"/><line class="cls-1" x1="91.54" y1="390.26" x2="91.57" y2="393.94"/><line class="cls-1" x1="121.61" y1="390.26" x2="121.63" y2="393.94"/><line class="cls-1" x1="125.91" y1="390.26" x2="125.93" y2="393.94"/><line class="cls-1" x1="130.2" y1="390.26" x2="130.22" y2="393.94"/><line class="cls-1" x1="134.5" y1="390.26" x2="134.52" y2="393.94"/><line class="cls-1" x1="138.79" y1="390.26" x2="138.82" y2="393.94"/><line class="cls-1" x1="143.09" y1="390.26" x2="143.11" y2="393.94"/><line class="cls-1" x1="147.38" y1="390.26" x2="147.41" y2="393.94"/><line class="cls-1" x1="151.68" y1="390.26" x2="151.7" y2="393.94"/><line class="cls-1" x1="155.97" y1="390.26" x2="156" y2="393.94"/><line class="cls-1" x1="160.27" y1="390.26" x2="160.29" y2="393.94"/><line class="cls-1" x1="190.34" y1="390.26" x2="190.36" y2="393.94"/><line class="cls-1" x1="194.63" y1="390.26" x2="194.66" y2="393.94"/><line class="cls-1" x1="198.93" y1="390.26" x2="198.95" y2="393.94"/><line class="cls-1" x1="203.22" y1="390.26" x2="203.25" y2="393.94"/><line class="cls-1" x1="207.52" y1="390.26" x2="207.54" y2="393.94"/><path class="cls-1" d="M125.12,213.55a3.92,3.92,0,1,0-7.83,0v2.5"/><path class="cls-1" d="M125.34,213.55a3.92,3.92,0,1,1,7.82,0"/><path class="cls-1" d="M133.38,213.55a3.92,3.92,0,1,1,7.83,0"/><path class="cls-1" d="M141.43,213.55a3.92,3.92,0,1,1,7.82,0"/><path class="cls-1" d="M149.47,213.55a3.92,3.92,0,1,1,7.82,0"/><path class="cls-1" d="M157.51,213.55a3.92,3.92,0,1,1,7.83,0"/><path class="cls-1" d="M165.56,213.55a3.92,3.92,0,1,1,7.82,0v2.64"/><line class="cls-2" x1="181.1" y1="347.68" x2="197.63" y2="347.68"/><line class="cls-2" x1="122.41" y1="255.43" x2="141.51" y2="255.43"/><line class="cls-2" x1="87.57" y1="255.43" x2="102.1" y2="255.43"/><line class="cls-2" x1="151.01" y1="255.43" x2="197.63" y2="255.43"/><line class="cls-2" x1="107.67" y1="225.02" x2="137.34" y2="225.02"/><line class="cls-2" x1="148.17" y1="225.02" x2="177.84" y2="225.02"/><line class="cls-2" x1="183.84" y1="225.02" x2="194.06" y2="225.02"/><line class="cls-2" x1="87.57" y1="301.84" x2="92.88" y2="301.84"/><line class="cls-2" x1="194.38" y1="301.84" x2="197.63" y2="301.84"/><line class="cls-1" x1="163.96" y1="376.65" x2="120.25" y2="376.65"/><rect class="cls-1" x="104.08" y="212.1" width="4.23" height="4.37"/><rect class="cls-1" x="179.08" y="212.1" width="4.23" height="4.37"/><line class="cls-1" x1="136.78" y1="87.59" x2="145.13" y2="95.94"/><line class="cls-1" x1="139.9" y1="84.62" x2="149.99" y2="94.71"/><line class="cls-1" x1="144.89" y1="83.53" x2="153.09" y2="91.72"/><line class="cls-1" x1="153.09" y1="87.59" x2="144.74" y2="95.94"/><line class="cls-1" x1="149.97" y1="84.62" x2="139.88" y2="94.71"/><line class="cls-1" x1="144.98" y1="83.53" x2="136.78" y2="91.72"/><circle class="cls-1" cx="158.66" cy="139.39" r="4.69"/><circle class="cls-1" cx="163.11" cy="183.55" r="5.66"/><circle class="cls-1" cx="171.3" cy="163.82" r="1.93"/><circle class="cls-1" cx="171.3" cy="163.82" r="4.18"/><path class="cls-1" d="M166.93,164.67s-3.81-.31-3.55-.36,3.11-1.8,3.11-1.8l-.65-.34.15-5.54,2.39,3a4.33,4.33,0,0,1,1.89-3,3.2,3.2,0,0,1,2.94,2.56l1.08-.78s1,1,.53,1.76a3.17,3.17,0,0,1,2.19,1.27,6.84,6.84,0,0,1-1.58,2.16"/><path class="cls-1" d="M174.55,166.81a2,2,0,0,1-.88,2.82c-1.88.94-3.41-1.14-3.41-1.14s-.56,1.4-4.53.36A3.55,3.55,0,0,1,167,165"/><path class="cls-1" d="M151.42,160.38s4,.9,5.78-.35a31.17,31.17,0,0,1,3.59-2.33c.44-.17.62-1.87.53-2.5s-.35-2.67-.35-2.67a17,17,0,0,1-2.72,3.39,5.26,5.26,0,0,1-1.66,1.07l.53-2.5s-3.07,1.16-3.59,2.14S151.42,160.38,151.42,160.38Z"/><path class="cls-1" d="M155.92,152.44a3.43,3.43,0,0,0,2.17-3,4.82,4.82,0,0,0-1.42-3.16,14.87,14.87,0,0,1-.5,3.33A9.5,9.5,0,0,0,155.92,152.44Z"/><path class="cls-1" d="M142.84,152.69s.08-2.91,1.33-3.91,1.34-3.34,1.34-3.34-1.42-1.16-1.84-.16-.75,2.33-1.25,1.83-.16-2-1.5-2.42-1.83.84-1.58,1.84a6.47,6.47,0,0,1,.08,2.16,6.4,6.4,0,0,0-2.58-1.41,5.06,5.06,0,0,0-2,.08s1.5,2.67,2.75,3.17a4.62,4.62,0,0,1,2,1.91"/><path class="cls-1" d="M128.59,155.86a19.84,19.84,0,0,0,4.25.92,20.39,20.39,0,0,1,4.58,1.16,8.42,8.42,0,0,0,3.17,1.09,4.25,4.25,0,0,1,2.25.66l3-1.41s.67,1.33,0,1.91a8.9,8.9,0,0,1-1.42,1,13.34,13.34,0,0,0,3.42,1.59,26.49,26.49,0,0,0,3.67,0s2.08.33,1.25.91a11.85,11.85,0,0,0-1.42,1.17s2.42.5,2.67,1.33.58,1.84.58,1.84-.58,2.58-1.08,2.33a14.68,14.68,0,0,1-2-2.67s0,.92-.92.34a3.35,3.35,0,0,1-1.17-1.75c.09.25-1.41,2.25-2,1.5s.09-2.84-.58-3.09a12.7,12.7,0,0,0-2.5-.33,6.07,6.07,0,0,1-1.75-1.33c-.83-.92-2.5-2.34-3.33-2.42s-3.5-1.08-4.09-1.08a34.19,34.19,0,0,1-4.5-1,17.19,17.19,0,0,0-3.16-.59c-.5,0-1.67-1.5-.34-2S128.59,155.86,128.59,155.86Z"/><path class="cls-1" d="M129.59,153.86s-2.25-3.17-.75-3,2.83,2,2.83,2,1.25-2,2.75-1.75a19.63,19.63,0,0,1,4.09,1.33c.25.17.91-.16,1.75.34a5.64,5.64,0,0,1,1.5,2.25s1.33-2.59,3.33-3,3-.75,4.25-.09,2.17,1.09,2.17,1.09"/><path class="cls-1" d="M141.26,162.11s-1.84-.58-2.42.75a9.77,9.77,0,0,1-2.17,3l-.41.33s-.75-1.41-1.59-1-1.66,2.17-2.25,2.59a18.49,18.49,0,0,1-3.5,1s-.41,2,.17,2.5,1.67-.34,2.17-.67,3.08-1.83,3.08-1.83,1-1.67,1.67-.75,1.33,1.08,2.16-.25,1.75-3.75,2.67-4.09a6.85,6.85,0,0,1,2-.33"/><path class="cls-1" d="M146.76,157.11s-.59,1.58.25,1.75,2.16-1.17,3.33-1.75,3.5-2.42,3.83-2.5,1-2.17,1-2.17a11.09,11.09,0,0,0-3.66,1.17,15.27,15.27,0,0,0-3.59,2.83Z"/><path class="cls-1" d="M155.09,161.11a2.94,2.94,0,0,1-.33,1.83,5.63,5.63,0,0,1,2.58-.75c.92.17-.5,1.42-1,1.67a20.21,20.21,0,0,0-2.33,2.33"/><path class="cls-1" d="M128.76,158.36a13.25,13.25,0,0,0-.17,4.5,9.82,9.82,0,0,0,1,2.5l.83.17.34,1.33.33.92"/><path class="cls-1" d="M129.26,155.61s-.25-1.42.83-1.83a4.87,4.87,0,0,0,1.58-.92"/><path class="cls-1" d="M133.76,169.44a6.35,6.35,0,0,0,2.58,2.84c1.58.66,6.75,2.75,7.17,3.33a10.19,10.19,0,0,0,1.66,1.5s4.84-4.67,5.34-5.5a19.72,19.72,0,0,0,1.16-3.17"/><line class="cls-1" x1="138.34" y1="123.69" x2="138.34" y2="147.69"/><line class="cls-1" x1="148.26" y1="117.86" x2="148.26" y2="151.53"/><path class="cls-1" d="M138.47,139.78c0,1.23,2.17,2.22,4.85,2.22s4.85-1,4.85-2.22"/><line class="cls-1" x1="138.34" y1="173.57" x2="138.34" y2="195.86"/><line class="cls-1" x1="150.63" y1="171.29" x2="150.63" y2="201.4"/><path class="cls-1" d="M138.5,189.65c0,1.23,2.69,2.23,6,2.23s6-1,6-2.23"/><path class="cls-1" d="M138.5,180.31c0,1.23,2.69,2.23,6,2.23s6-1,6-2.23"/><path class="cls-1" d="M138.47,130.2c0,1.22,2.17,2.22,4.85,2.22s4.85-1,4.85-2.22"/><circle class="cls-1" cx="143.59" cy="137.6" r="1.96"/><circle class="cls-1" cx="143.59" cy="129.45" r="2.59"/><circle class="cls-1" cx="143.59" cy="129.45" r="1.21"/><path class="cls-1" d="M144.05,176c-2,0-3.65,1.16-3.65,2.59s1.63,2.59,3.65,2.59,3.66-1.16,3.66-2.59a2.53,2.53,0,0,0-1.65-2.16"/><ellipse class="cls-1" cx="144.05" cy="178.59" rx="1.71" ry="1.21"/><ellipse class="cls-1" cx="143.63" cy="187.08" rx="1.71" ry="1.21"/><circle class="cls-1" cx="140.97" cy="134.91" r="0.83"/><path class="cls-1" d="M140.16,186.35s.86-2.32,2.64-2.18l1.78.15"/><line class="cls-1" x1="145.69" y1="184.85" x2="146.54" y2="185.67"/><path class="cls-1" d="M147.22,186.53s.71,1.07,0,1.6"/><circle class="cls-1" cx="145.07" cy="195.86" r="1.25"/><line class="cls-1" x1="141.94" y1="194.48" x2="143.07" y2="193.98"/><line class="cls-1" x1="144.82" y1="192.98" x2="146.13" y2="193.05"/><line class="cls-1" x1="147.82" y1="193.23" x2="148.69" y2="194.05"/><line class="cls-1" x1="148.13" y1="195.05" x2="148.69" y2="196.17"/><line class="cls-1" x1="160.94" y1="182.86" x2="166.63" y2="187.73"/><line class="cls-1" x1="159.13" y1="187.11" x2="165.94" y2="183.55"/><line class="cls-1" x1="157.63" y1="184.42" x2="164.82" y2="179.55"/><line class="cls-1" x1="167.01" y1="179.67" x2="166.32" y2="185.86"/><line class="cls-1" x1="156.63" y1="138.11" x2="159.07" y2="143.98"/><line class="cls-1" x1="157.63" y1="137.05" x2="160.63" y2="142.05"/><line class="cls-1" x1="158.94" y1="135.23" x2="161.57" y2="141.61"/><line class="cls-1" x1="156.19" y1="140.61" x2="161.01" y2="137.36"/><line class="cls-1" x1="156.94" y1="141.92" x2="161.82" y2="139.42"/><path class="cls-3" d="M118.67,143.17s-2.67.2-3.27,1.56a9.37,9.37,0,0,0-1.42-2.92s-1,.71-1.15,3a10.65,10.65,0,0,0-2.73-.1c-.7.21-.45.81-.25,1.26s1.06,2.07,1.06,2.07a11.85,11.85,0,0,0-3.23.4c-.9.41-.2,1.52,1,1.72a11.43,11.43,0,0,0,1.71.2,18.26,18.26,0,0,0-.65,3.33c0,.8.4,1,1.41.65a5.79,5.79,0,0,0,2-1.61,2,2,0,0,0-.41,2.62c.86,1.82,1.82,1.56,2,.76a25.45,25.45,0,0,0,.3-3.08l1.62-.35"/><path class="cls-3" d="M117.61,147.24a3.81,3.81,0,0,0-3.18-2.23,3.94,3.94,0,0,0,0,7.85,3.84,3.84,0,0,0,2.35-1"/><path class="cls-3" d="M112.8,152.41s-.9-2.12.45-3.26,2.13-1.69,2.36-2.48a2.4,2.4,0,0,0,.13-1.12"/><path class="cls-3" d="M112.46,145.91s3.3.38,3.89,1.8.81,1.86.81,1.86"/><path class="cls-3" d="M115.34,152.74c0-.06-1.73-3.73-1.42-6.49"/><path class="cls-3" d="M117.07,149.17a6.24,6.24,0,0,1-3.53.67c-1.76-.29-1.89-3.23-1.89-3.23"/><path class="cls-3" d="M115.22,175.18s-1.21,3.16.37,5.38,4.92,2.14,4.92,2.14"/><path class="cls-3" d="M99.63,157.83s6.5,13.08,18.93,19.58"/><path class="cls-3" d="M126,180.84s3.53,2.32,12.25,3.9"/><path class="cls-3" d="M123.57,172.77s4.92,2.78,14.57,4.64"/><path class="cls-3" d="M117,170.26s-13.82-9.09-16.51-19.39"/><line class="cls-1" x1="152.98" y1="178.62" x2="157.07" y2="179.08"/><line class="cls-1" x1="170.15" y1="179.36" x2="174.14" y2="178.99"/><line class="cls-1" x1="152.52" y1="187.15" x2="156.14" y2="187.62"/><line class="cls-1" x1="170.15" y1="186.97" x2="172.65" y2="186.32"/><line class="cls-1" x1="156.63" y1="123.11" x2="157.13" y2="126.86"/><line class="cls-1" x1="157.51" y1="130.48" x2="157.88" y2="133.23"/><line class="cls-1" x1="160.13" y1="125.11" x2="163.01" y2="129.98"/><line class="cls-1" x1="167.88" y1="137.36" x2="168.63" y2="141.73"/><line class="cls-1" x1="169.88" y1="147.61" x2="170.51" y2="153.73"/><line class="cls-1" x1="165.38" y1="143.86" x2="165.88" y2="149.11"/><line class="cls-1" x1="161.01" y1="164.11" x2="161.01" y2="167.23"/><line class="cls-1" x1="158.63" y1="191.86" x2="156.88" y2="194.61"/><line class="cls-1" x1="155.26" y1="196.86" x2="153.51" y2="198.23"/><line class="cls-1" x1="162.63" y1="171.48" x2="162.51" y2="174.73"/><path class="cls-1" d="M131.88,148.23a3,3,0,0,0,1.25-2.87,10.16,10.16,0,0,0-.87-3.63,9.25,9.25,0,0,0-1.38,4C130.76,147.86,131.88,148.23,131.88,148.23Z"/><circle class="cls-1" cx="146.72" cy="303.55" r="9.96"/><circle class="cls-1" cx="146.72" cy="303.55" r="12.46"/><path class="cls-1" d="M141.47,275.84c.55,0,7.07-.18,7.07-.18l-1.09,15h-3.26Z"/><path class="cls-1" d="M141.47,303a7.72,7.72,0,0,1,6.7-3.62"/><path class="cls-1" d="M145.82,309.53c1.09-.18,5.07-2.35,6.34-4.35l1.27-2"/><path class="cls-1" d="M142.74,306.09a6.11,6.11,0,0,1,5.61-3.44"/><ellipse class="cls-1" cx="185.1" cy="307.97" rx="8.42" ry="10.6"/><ellipse class="cls-1" cx="185.1" cy="307.97" rx="10.53" ry="13.26"/><path class="cls-1" d="M180.66,278.48c.46,0,6-.19,6-.19l-.92,16H183Z"/><ellipse class="cls-1" cx="103.59" cy="310.59" rx="7.43" ry="11.31" transform="translate(-22.39 8.39) rotate(-4.18)"/><path class="cls-1" d="M112.82,309.79c-.57-7.71-5.1-13.67-10.14-13.3s-8.65,6.92-8.09,14.63,5.1,13.66,10.14,13.3a7.62,7.62,0,0,0,5.68-3.8"/><path class="cls-1" d="M101.19,278c.36,0,4.69-.23,4.69-.23l-.72,18.7H103Z"/><path class="cls-1" d="M180.66,307.39s1.84-4.05,5.66-3.85"/><path class="cls-1" d="M184.33,314.33a12.24,12.24,0,0,0,5.36-4.62l1.07-2.13"/><path class="cls-1" d="M181.73,310.67S183,307,186.48,307"/><line class="cls-1" x1="97.03" y1="313.63" x2="105.85" y2="321.14"/><line class="cls-1" x1="96.41" y1="310.27" x2="107.86" y2="320.05"/><line class="cls-1" x1="96.62" y1="307.6" x2="109.09" y2="318.28"/><line class="cls-1" x1="97.23" y1="305.35" x2="109.91" y2="316.18"/><line class="cls-1" x1="97.68" y1="302.97" x2="110.57" y2="314.09"/><line class="cls-1" x1="99.2" y1="301.5" x2="110.77" y2="311.58"/><line class="cls-1" x1="100.85" y1="300.02" x2="110.61" y2="308.58"/><line class="cls-1" x1="102.96" y1="299.22" x2="109.79" y2="304.92"/><line class="cls-1" x1="110.16" y1="313.63" x2="101.34" y2="321.14"/><line class="cls-1" x1="110.77" y1="310.27" x2="99.33" y2="320.05"/><line class="cls-1" x1="110.57" y1="307.6" x2="98.1" y2="318.28"/><line class="cls-1" x1="109.95" y1="305.35" x2="97.28" y2="316.18"/><line class="cls-1" x1="109.5" y1="302.97" x2="96.62" y2="314.09"/><line class="cls-1" x1="107.98" y1="301.5" x2="96.41" y2="311.58"/><line class="cls-1" x1="106.34" y1="300.02" x2="96.58" y2="308.58"/><line class="cls-1" x1="104.22" y1="299.22" x2="97.4" y2="304.92"/><path class="cls-1" d="M91.37,278s3.46-1.54,3.46-5S91,267.82,91,267.82s-2.11,2.69-.19,4S91.37,278,91.37,278Z"/><path class="cls-1" d="M97.9,273.2s3.07-2.88,2.88-5.57a7.27,7.27,0,0,0-1.34-4s-3.08,2.69-1.93,4.61S97.9,273.2,97.9,273.2Z"/><path class="cls-1" d="M96.22,286.25a4.63,4.63,0,0,0,2.28-4.66c-.43-3.26-1.41-3.8-1.41-3.8s-2.6.11-2.06,3.47,1.41,2.6,1.41,2.6Z"/><path class="cls-1" d="M94.05,293.52a12.18,12.18,0,0,1,1.3-2.28c1-1.41-1.4-3.47-1.4-3.47l-.44-2.71S88.41,288.74,94.05,293.52Z"/><path class="cls-1" d="M109,267.06a6.54,6.54,0,0,1,1.52,5.31,4.77,4.77,0,0,1-3.26,3.58s1.09-1.63.55-2.82a4.44,4.44,0,0,1-.33-3.69A19,19,0,0,1,109,267.06Z"/><path class="cls-1" d="M115.85,279s3.47,1.41,3,5-4.56,4.45-4.56,4.45A11.58,11.58,0,0,0,115.85,279Z"/><path class="cls-1" d="M121.06,264.56s3.25,3.36,2.06,6.51-2.82,3.69-2.82,3.69a4.38,4.38,0,0,0,0-3.91C119.21,269,118.89,265.75,121.06,264.56Z"/><path class="cls-1" d="M131.25,267.16a5,5,0,0,1,2.38,5.43,9.33,9.33,0,0,1-4.33,5.53l1.3-4.12s-2.28-1.74-1.19-4.12S131.25,267.16,131.25,267.16Z"/><path class="cls-1" d="M127.56,281.7s-2.17,3.36-1.41,5.2a4.81,4.81,0,0,0,2.39,2.5l-.33,2.38s3.15-2.49,2.28-5.31a13.44,13.44,0,0,0-3.36-5.1Z"/><path class="cls-1" d="M129.73,304a3.37,3.37,0,0,0-4.12,2.38c-1.19,3.25-.76,3.36-.76,3.36s4.56,1.3,5.21-1.41A6.06,6.06,0,0,0,129.73,304Z"/><path class="cls-4" d="M136.89,315.86a3.61,3.61,0,0,0-.16.36c-.37.91-1.16,3.26.05,4.3a4.49,4.49,0,0,1,1.63,2.82l2.71,1.19s-1.85-1.52-.87-3.47.76-4.88-1.19-5.2-2.24.13-2.24.13l.29-.46Z"/><path class="cls-4" d="M91.86,334.63s-1-1.57,1-3.23,3-2.85,2.36-5-3.14-2.94-3.14-2.94-1.47,2.85-.79,4.71L92,330S89.51,332.28,91.86,334.63Z"/><path class="cls-4" d="M99.61,330.12s2.55,2.75,1.28,4.81-2,3.43-1.87,4.7.3,1,.3,1,.29-2.46,1.76-3.44,3.53-1.47,3.24-3.82S101.57,329.93,99.61,330.12Z"/><path class="cls-4" d="M91.67,337c.88.09,4.8-.4,4.61,2.64a7.59,7.59,0,0,1-2.85,5l-1.17.39s1.76-2.45,1-4.51A35.28,35.28,0,0,0,91.67,337Z"/><path class="cls-4" d="M93.33,356.4s-2,1.57-.09,4.22a16,16,0,0,0,4,4s-1.18-2.06-.79-3.33.89-3.53-.49-4.51A2.78,2.78,0,0,0,93.33,356.4Z"/><path class="cls-4" d="M129,362.68c-.29.39-3.23,2.45-2.15,4.22s1.47,1.86,1.47,1.86a1.28,1.28,0,0,1-.2,2c-1.18.89-.78.79-.78.79s3.33-1.67,3.23-3.83a30.89,30.89,0,0,0-.59-4.41Z"/><path class="cls-1" d="M156.38,249.71c-1.79-3.2-7.21-5.52-13.61-5.52s-11.89,2.35-13.66,5.58"/><path class="cls-1" d="M156.38,227c-1.79,3.2-7.21,5.52-13.61,5.52s-11.89-2.35-13.66-5.58"/><path class="cls-1" d="M158,229.61c-4.29,1.15-7.4,4.63-7.4,8.74s3.15,7.62,7.48,8.75"/><path class="cls-1" d="M127.5,229.61c4.29,1.15,7.41,4.63,7.41,8.74s-3.15,7.62-7.49,8.75"/><line class="cls-1" x1="200.19" y1="239.44" x2="181.31" y2="225.65"/><line class="cls-1" x1="181.94" y1="252.86" x2="142.82" y2="224.28"/><line class="cls-1" x1="181.37" y1="225.29" x2="142.82" y2="253.5"/><line class="cls-1" x1="200.34" y1="239.22" x2="181.46" y2="253.02"/><line class="cls-1" x1="193.8" y1="229.52" x2="168.64" y2="247.9"/><line class="cls-1" x1="193.8" y1="247.9" x2="168.64" y2="229.52"/><line class="cls-1" x1="85.65" y1="239.44" x2="104.54" y2="225.65"/><line class="cls-1" x1="103.91" y1="252.86" x2="143.02" y2="224.28"/><line class="cls-1" x1="104.48" y1="225.29" x2="143.02" y2="253.5"/><line class="cls-1" x1="85.51" y1="239.22" x2="104.39" y2="253.02"/><line class="cls-1" x1="92.05" y1="229.52" x2="117.2" y2="247.9"/><line class="cls-1" x1="92.05" y1="247.9" x2="117.2" y2="229.52"/><line class="cls-1" x1="194.02" y1="249.89" x2="194.02" y2="244.17"/><line class="cls-2" x1="103.32" y1="277.24" x2="103.32" y2="253.13"/><line class="cls-2" x1="144.15" y1="275.44" x2="144.15" y2="252.59"/><line class="cls-2" x1="184.44" y1="277.6" x2="184.44" y2="251.16"/><path class="cls-2" d="M149.7,265.66s3.41-1.7,3.32-4.59a6,6,0,0,0-2.13-4.42s-2.29,1.1-2.12,2.46a7.19,7.19,0,0,0,1.61,3A3.41,3.41,0,0,1,149.7,265.66Z"/><path class="cls-1" d="M163.23,265.75s-3.4-.51-2.64-2.55,3.83-3.92,3.83-3.92a1.7,1.7,0,0,0-.25,2.22c.85,1.19,2,3.06.68,4.25s-1.36,2.38-3.83,2.47"/><path class="cls-1" d="M155.23,279.62s-.34-1.28,2.22-2.81-.26-5.36-.77-5.61a1.82,1.82,0,0,1-.68-.52,3,3,0,0,0-1.87,3.41c.42,2.64,1,2.55,1,2.55"/><path class="cls-4" d="M167.57,278.51s4.34,1.11,5.28-2.21,1-4,1-4a1.79,1.79,0,0,1,1.87-.93s-3-1.11-4.68,1a11.29,11.29,0,0,0-2.13,4.59Z"/><path class="cls-4" d="M173.61,287.53s2.64-.51,2-2.89-.93-5-.93-5-.51,2.89-1.36,3.66-2.73,1.44-1.79,3.06S173.61,287.53,173.61,287.53Z"/><path class="cls-4" d="M159.74,292.38s-4.08.17-4.17-2.89,2.9-4.85,2.9-4.85-.68,1.87.34,3a3.15,3.15,0,0,1,.85,2.38Z"/><path class="cls-4" d="M147.83,333.82c.34-.17,1.87-3,.77-4.51s-1.53-2.22-1.19-3-2-2-3.32-.85-1.11,1.79-1.11,1.79,1.45,3.74,2.55,3.57S147.83,333.82,147.83,333.82Z"/><path class="cls-4" d="M156.85,327.86c.25-.34,1.28-1.36,3-3.66s-.43-6.46-.43-6.46.09,2.72-1.36,3.14-3.06,2.47-2.64,4.26a4.41,4.41,0,0,0,1.19,2.38Z"/><path class="cls-4" d="M157.45,337s-2.56-3.23.08-5.61a10.47,10.47,0,0,1,4.68-2.72s-.85,2.29-1.28,3.91a5.86,5.86,0,0,1-3.91,4.59"/><path class="cls-4" d="M129.2,342.15s4.08-.85,3.32-4.68a31.75,31.75,0,0,1-.77-5.36,4,4,0,0,0-3.06,3.24,9.76,9.76,0,0,0,.85,5Z"/><path class="cls-4" d="M127,332.63a2.89,2.89,0,0,1,1-4.34c2.89-1.88,3.74-4.17,3.23-6.56l-.51-2.38a6.89,6.89,0,0,0-2.64,6.47s-2.64-.26-2.47-2a4.65,4.65,0,0,0-.08,5.53"/><path class="cls-4" d="M157.45,367.42s.85-1.19-1.11-3.31,1.62-5.45,1.62-5.45,2.8.17,2.29,4.17S157.45,367.42,157.45,367.42Z"/><path class="cls-4" d="M141.28,367s-3.57-2.55-2.47-5.11,3.32.43,3.32,2.39a5.86,5.86,0,0,1-.51,2.8Z"/><path class="cls-4" d="M139,343.69s-4,3.4-4.93,6.46a2.34,2.34,0,0,0,2,3.32,3.73,3.73,0,0,0,2.55-3.91A23,23,0,0,1,139,343.69Z"/><path class="cls-4" d="M156,350.83s3.23-1.36,1.36-4a26.84,26.84,0,0,0-3.06-3.74s2.8-1.79,4.76.68,1.7,5.7.51,6.3A12.61,12.61,0,0,1,156,350.83Z"/><line class="cls-2" x1="138.9" y1="347.68" x2="157.96" y2="347.68"/><line class="cls-2" x1="161.02" y1="347.68" x2="164.25" y2="347.68"/><path class="cls-1" d="M119.07,261.31c-.19-.37-2.58-1.66-1.66-4.51a10.73,10.73,0,0,1,3.77-4.8s.83,6.45.1,7.93A2.43,2.43,0,0,1,119.07,261.31Z"/><path class="cls-1" d="M112.25,254.12s-4.33,1.57-4.33,5.62,5.52,6.18,5.52,6.18a11.15,11.15,0,0,1-1.38-6.18,36.68,36.68,0,0,0,.28-5.25Z"/><path class="cls-1" d="M189.9,277.39c.09-.37-.09-3.4,1.65-4.13s1.93-3.22,1.29-4.69-1.2-1.56-1.2-1.56a14.51,14.51,0,0,1-1.74,3.22,4.71,4.71,0,0,0-1,4.59C189.35,277.11,189.9,277.39,189.9,277.39Z"/><path class="cls-1" d="M189.44,284.18s-1.84,4.87.55,6.71a8.17,8.17,0,0,0,3.95,1.92s-.64-5.69-2-7.25S189.44,284.18,189.44,284.18Z"/><path class="cls-1" d="M193,322.29s3.77,3.21,2,5.42a5.48,5.48,0,0,1-3.67,2.29l-.37-.92a4.25,4.25,0,0,0,1.47-3.48,17.88,17.88,0,0,0-.73-3.31Z"/><path class="cls-1" d="M187.88,326.42s2.3,4.32.64,7.35-4,3.3-4,3.3,2.12-2.2.92-4.13-3.49-2.85-1.1-4.77S187.88,326.42,187.88,326.42Z"/><path class="cls-1" d="M191.55,337s3.95,3.22,2.94,7-3.12,2.75-3.12,2.75-2.3-.64-1.75-4A17.83,17.83,0,0,1,191.55,337Z"/><path class="cls-1" d="M191.37,357.92a4.58,4.58,0,0,0-2.94,4.13,19.45,19.45,0,0,0,.55,6.61s-.55-5.78,1.75-6.79,3.21-1.75,2.48-2.85A2.38,2.38,0,0,0,191.37,357.92Z"/><polyline class="cls-1" points="130.19 42.87 130.19 40.23 159.36 40.23 159.36 42.87"/><path class="cls-1" d="M129.82,35.18s-2.19-1.28-1.58-3.16a6.88,6.88,0,0,1,1.35-2.64,4.46,4.46,0,0,0,.38-2.56,12.22,12.22,0,0,0-.75-2s2.93.68,2.86,2.94-1.58,2.34-1.81,3-.3.07-.3.07,1.66.83,1.51,2.11A3.89,3.89,0,0,1,129.82,35.18Z"/><path class="cls-1" d="M134,37.9s2.71-1.21,3.16-3.62a3.4,3.4,0,0,0-1.88-3.54l-.68-2.57a5.23,5.23,0,0,0-1.35,3.77,5.61,5.61,0,0,0,.82,2.57s-1.43.3-1.5,1.58S134,37.9,134,37.9Z"/><path class="cls-1" d="M140.75,38.73a4.63,4.63,0,0,1,1.5-2.34c1.21-1,1.51-3.32.23-3.69,0,0-1.73-1.44-1.81-2.72a9.31,9.31,0,0,0-.53-2.48,12.56,12.56,0,0,0-.9,5.57c.38,2.49.75,2.79.75,2.79s-.52,1-1.28.91l-.75-.08S137.88,38.73,140.75,38.73Z"/><path class="cls-1" d="M144.14,31.72s2.79.68,1.2-2.57l-.45-3.09s-1.88.61-1.58,2.27.9,1.73.9,1.73Z"/><path class="cls-1" d="M148.21,38.73s-2.11.45-2.41-2.11a2,2,0,0,1,2.11-2.49,4.4,4.4,0,0,1,1.35-3.32l.08,2.87a2.45,2.45,0,0,1,1.73,2.26,2.13,2.13,0,0,1-1.13,2.26l-1.51-.76Z"/><path class="cls-1" d="M154,26.82s-2,1.35-1.21,2.56l.83,1.21-.22,2-1.43-1s0,4,.75,4.74a25.84,25.84,0,0,0,2.41,2s1.58-3.31.91-5.2-.91-2-.91-2l-.53-4.67Z"/><line class="cls-1" x1="133.93" y1="38.12" x2="133.93" y2="40.18"/><line class="cls-1" x1="140.35" y1="38.88" x2="140.35" y2="40.13"/><line class="cls-1" x1="148.34" y1="38.6" x2="148.34" y2="40.13"/><line class="cls-1" x1="155.09" y1="38.36" x2="155.09" y2="40.13"/></svg>