<svg id="art" xmlns="http://www.w3.org/2000/svg" viewBox="0 0 274.52 454.52"><defs><style>.cls-1,.cls-2,.cls-3{fill:none;stroke:#F0DA84;}.cls-1,.cls-2{stroke-miterlimit:10;}.cls-2{stroke-dasharray:4 2;}.cls-3{stroke-linejoin:round;}</style></defs><title>SV-elemental-alters</title><rect class="cls-1" x="121.55" y="42.84" width="48.11" height="58.85"/><circle class="cls-1" cx="144.88" cy="62.63" r="2"/><ellipse class="cls-1" cx="144.88" cy="89.8" rx="8.81" ry="6.37"/><path class="cls-1" d="M150.55,62.63a5.67,5.67,0,0,0-11.34,0"/><circle class="cls-1" cx="134.63" cy="69.76" r="2.38"/><path class="cls-1" d="M155.87,89.8a7.54,7.54,0,0,0-3.1-5.88,1.6,1.6,0,0,0,.38-1,1.57,1.57,0,0,0-1.57-1.57,1.55,1.55,0,0,0-1.47,1,13.92,13.92,0,0,0-10.46,0,1.59,1.59,0,0,0-1.47-1A1.56,1.56,0,0,0,137,83.92a7.12,7.12,0,0,0,0,11.74,1.53,1.53,0,0,0-.36,1,1.57,1.57,0,0,0,3,.59,14,14,0,0,0,10.5,0,1.56,1.56,0,1,0,2.66-1.57A7.53,7.53,0,0,0,155.87,89.8Z"/><circle class="cls-1" cx="154.04" cy="69.76" r="2.38"/><path class="cls-1" d="M121.39,81.68c-1.69,0-3,1.81-3,4s1.36,4,3,4"/><path class="cls-1" d="M169.92,89.76c1.69,0,3.05-1.81,3.05-4s-1.36-4-3.05-4"/><polyline class="cls-1" points="120.01 106.68 115.51 102.51 101.01 102.51 111.87 112.47"/><polyline class="cls-1" points="102.78 104.45 89.73 104.45 104.87 117.34"/><polyline class="cls-1" points="91.43 106.22 80.47 106.22 97.76 122.05"/><path class="cls-1" d="M144.51,103.85H124.58l-30,20.81,12,9.73s1.26-1.07,3.37-2.68c5.32-4.06,16-11.54,25.33-13.89h8.77"/><path class="cls-1" d="M94.62,124.66s-6.78,2.35-13,15.85S66.84,171.18,71.51,190s10.33,30.33,10.33,30.33-9.83-1.33-16,2.84c0,0-.33,22.95,5.33,26.45s13,.34,14.34-3,.33-17.16-1-21.16l-2.74-5.32"/><path class="cls-1" d="M67.65,221.92,56.78,195s-1.4-3.9-1.5-11.38.4-21.45,1.9-28.74c0,0,2.39-12.37,6.28-19.46s21.66-24.85,21.66-24.85"/><path class="cls-1" d="M80,115.86s5.63-1.07,8.39,1.25l2.77,2.33"/><path class="cls-1" d="M77.76,118.72s5.62-1.07,8.39,1.25l2.77,2.32"/><path class="cls-1" d="M74.45,122s5.63-1.08,8.4,1.25l2.77,2.32"/><path class="cls-1" d="M71.24,125.06s5.62-1.07,8.39,1.25"/><path class="cls-1" d="M67.75,129.35s5.63-1.07,8.4,1.25"/><path class="cls-1" d="M64.9,133.55s5.62-1.07,8.39,1.25"/><path class="cls-1" d="M62.22,139s5.62-1.08,8.39,1.25"/><path class="cls-1" d="M60.79,142.75s5.62-1.07,8.39,1.25"/><path class="cls-1" d="M59.09,147.75s5.63-1.07,8.4,1.25"/><path class="cls-1" d="M58,152.66s5.63-1.07,8.39,1.25"/><path class="cls-1" d="M57,157.13s5.62-1.08,8.39,1.25"/><path class="cls-1" d="M56.41,161.23s5.72-1.07,8.75-.26"/><path class="cls-1" d="M56.05,167s5.72-1.07,8.76-.27"/><path class="cls-1" d="M55.54,172.36S60.87,170,64,170.11"/><path class="cls-1" d="M55.2,178s4.95-3.91,8.36-2.64"/><path class="cls-1" d="M55.64,188.7s4.55-6.09,8.84-4.55"/><path class="cls-1" d="M56.49,192.64s4.93-5.79,9.11-4"/><path class="cls-1" d="M55.4,183.7s3.1-6.79,6.47-3"/><path class="cls-1" d="M57.87,197.35a7.1,7.1,0,0,1,6.5-3.18"/><path class="cls-1" d="M60,202.9s2.44-5.48,6.7-4.4"/><path class="cls-1" d="M61.93,207.3s2.44-5.48,6.7-4.4"/><path class="cls-1" d="M63.08,211.23s2.44-5.49,6.7-4.4"/><path class="cls-1" d="M64.91,214.88s2.43-5.48,6.7-4.4"/><path class="cls-1" d="M66.6,218.67s2.44-5.48,6.7-4.4"/><ellipse class="cls-1" cx="54.02" cy="231.83" rx="2.46" ry="3.84"/><line class="cls-1" x1="54.11" y1="227.98" x2="65.76" y2="227.96"/><line class="cls-1" x1="53.97" y1="235.67" x2="66.26" y2="235.67"/><line class="cls-1" x1="86.13" y1="235.67" x2="89.82" y2="235.67"/><polyline class="cls-1" points="166.85 106.68 171.35 102.51 185.85 102.51 174.99 112.47"/><polyline class="cls-1" points="184.08 104.45 197.13 104.45 181.99 117.34"/><polyline class="cls-1" points="195.43 106.22 206.39 106.22 189.09 122.05"/><path class="cls-1" d="M142.34,103.85h19.94l30,20.81-12,9.73s-15.7-13.29-28.71-16.57h-8.76"/><path class="cls-1" d="M192.24,124.66S199,127,205.18,140.51,220,171.18,215.35,190,205,220.34,205,220.34s9.83-1.33,16,2.84c0,0-.24,22.79-5.91,26.29s-13,.34-14.33-3,.23-17,1.57-21l2.74-5.32"/><path class="cls-1" d="M219.2,221.92,230.08,195s1.4-3.9,1.5-11.38-.4-21.45-1.9-28.74c0,0-2.39-12.37-6.29-19.46s-21.65-24.85-21.65-24.85"/><path class="cls-1" d="M206.87,115.86s-5.63-1.07-8.4,1.25l-2.77,2.33"/><path class="cls-1" d="M209.1,118.72s-5.63-1.07-8.39,1.25l-2.77,2.32"/><path class="cls-1" d="M212.4,122s-5.62-1.08-8.39,1.25l-2.77,2.32"/><path class="cls-1" d="M215.62,125.06s-5.63-1.07-8.4,1.25"/><path class="cls-1" d="M219.1,129.35s-5.62-1.07-8.39,1.25"/><path class="cls-1" d="M222,133.55s-5.63-1.07-8.39,1.25"/><path class="cls-1" d="M224.64,139s-5.63-1.08-8.39,1.25"/><path class="cls-1" d="M226.07,142.75s-5.63-1.07-8.4,1.25"/><path class="cls-1" d="M227.77,147.75s-5.63-1.07-8.4,1.25"/><path class="cls-1" d="M228.84,152.66s-5.63-1.07-8.4,1.25"/><path class="cls-1" d="M229.82,157.13s-5.63-1.08-8.39,1.25"/><path class="cls-1" d="M230.45,161.23s-5.72-1.07-8.76-.26"/><path class="cls-1" d="M230.8,167s-5.71-1.07-8.75-.27"/><path class="cls-1" d="M231.31,172.36s-5.32-2.34-8.46-2.25"/><path class="cls-1" d="M231.66,178s-4.95-3.91-8.36-2.64"/><path class="cls-1" d="M231.22,188.7s-4.55-6.09-8.84-4.55"/><path class="cls-1" d="M230.37,192.64s-4.93-5.79-9.11-4"/><path class="cls-1" d="M231.46,183.7s-3.1-6.79-6.47-3"/><path class="cls-1" d="M229,197.35a7.11,7.11,0,0,0-6.5-3.18"/><path class="cls-1" d="M226.82,202.9s-2.43-5.48-6.7-4.4"/><path class="cls-1" d="M224.93,207.3s-2.44-5.48-6.7-4.4"/><path class="cls-1" d="M223.78,211.23s-2.44-5.49-6.7-4.4"/><path class="cls-1" d="M222,214.88s-2.44-5.48-6.7-4.4"/><path class="cls-1" d="M220.26,218.67s-2.44-5.48-6.7-4.4"/><ellipse class="cls-1" cx="232.84" cy="231.83" rx="2.46" ry="3.84"/><line class="cls-1" x1="232.74" y1="227.98" x2="220.86" y2="227.96"/><line class="cls-1" x1="232.89" y1="235.67" x2="220.26" y2="235.67"/><line class="cls-1" x1="201.72" y1="227.98" x2="194.45" y2="227.96"/><line class="cls-1" x1="200.59" y1="235.67" x2="194.14" y2="235.67"/><path class="cls-1" d="M178.89,132.61A41,41,0,0,1,189.51,160c0,16.68-10.2,31.11-25,38.06,0,0-3.15,1.32-4,1.57"/><path class="cls-1" d="M110.84,131.84A41,41,0,0,0,99.51,160c0,16.68,10.19,31.12,25,38.06a32.51,32.51,0,0,0,3.78,1.63,72.85,72.85,0,0,0,32-.13V209.7"/><line class="cls-1" x1="128.61" y1="209.7" x2="128.61" y2="199.37"/><line class="cls-1" x1="130.45" y1="202.31" x2="130.45" y2="209.7"/><line class="cls-1" x1="132.29" y1="204.4" x2="132.29" y2="210.86"/><line class="cls-1" x1="134.63" y1="206.65" x2="134.63" y2="210.29"/><line class="cls-1" x1="158.31" y1="207.3" x2="158.31" y2="199.91"/><line class="cls-1" x1="156.47" y1="204.57" x2="156.47" y2="200.57"/><line class="cls-1" x1="154.14" y1="203.23" x2="154.14" y2="200.85"/><rect class="cls-1" x="98.81" y="216.54" width="90.61" height="5.3"/><path class="cls-1" d="M159,120.68s-16.5,4-28.84-.67"/><path class="cls-1" d="M135.67,121.68s-9.16,10.5-11.16,33.16,2.66,33.34,12,43.34c0,0,1.66,2.2,6.91,3.25"/><path class="cls-1" d="M143.34,122.18A54.68,54.68,0,0,0,130.67,155c-1,20.5,6,34.67,8.84,38.17a24.9,24.9,0,0,0,5.16,5A45.45,45.45,0,0,0,150,201"/><path class="cls-1" d="M145.91,122.22a54.75,54.75,0,0,0-12.66,32.84c-1,20.5,6,34.66,8.83,38.16a24.77,24.77,0,0,0,5.17,5,23.55,23.55,0,0,0,5.92,2.54"/><circle class="cls-1" cx="118.86" cy="117.51" r="2.76"/><circle class="cls-1" cx="108.67" cy="123.86" r="2.76"/><circle class="cls-1" cx="167.52" cy="117.51" r="2.76"/><circle class="cls-1" cx="177.71" cy="123.86" r="2.76"/><rect class="cls-1" x="66.28" y="394.32" width="150.42" height="4.4"/><polyline class="cls-1" points="95.78 390.21 66.28 390.21 66.28 385.81 96.64 385.81"/><polyline class="cls-1" points="96.31 385.8 76.02 385.8 76.02 376.65 98.55 376.65"/><line class="cls-1" x1="164.11" y1="390.21" x2="119.92" y2="390.21"/><polyline class="cls-1" points="187.37 385.81 216.7 385.81 216.7 390.21 188.39 390.21"/><polyline class="cls-1" points="148.13 385.81 148.84 385.81 164.23 385.81"/><polyline class="cls-1" points="120.03 385.81 138.32 385.81 138.5 385.81"/><polyline class="cls-1" points="87.15 376.69 87.15 350.97 88.83 350.97"/><polyline class="cls-1" points="193.34 304.4 196.95 304.4 196.95 343.72"/><polyline class="cls-1" points="87.15 343.62 87.15 304.4 92.01 304.4"/><line class="cls-2" x1="102.25" y1="274.07" x2="102.25" y2="253.58"/><line class="cls-1" x1="119.51" y1="290.51" x2="97.71" y2="394.15"/><polyline class="cls-1" points="95 394.04 116.74 290.51 119.96 290.51 119.96 394.39"/><ellipse class="cls-1" cx="111.95" cy="373.5" rx="5.66" ry="5.3"/><ellipse class="cls-1" cx="113.44" cy="356.32" rx="4.5" ry="4.21"/><ellipse class="cls-1" cx="143.25" cy="384.11" rx="6.36" ry="2.63"/><ellipse class="cls-1" cx="114.96" cy="337.45" rx="3.16" ry="2.96"/><polyline class="cls-1" points="187.91 385.8 208.21 385.8 208.21 376.65 185.67 376.65"/><line class="cls-1" x1="164.72" y1="290.51" x2="186.52" y2="394.15"/><polyline class="cls-1" points="189.23 394.04 167.49 290.51 164.27 290.51 164.27 394.39"/><ellipse class="cls-1" cx="172.27" cy="373.5" rx="5.66" ry="5.3"/><ellipse class="cls-1" cx="170.79" cy="356.32" rx="4.5" ry="4.21"/><ellipse class="cls-1" cx="169.26" cy="337.45" rx="3.16" ry="2.96"/><path class="cls-1" d="M86.74,351a3.92,3.92,0,1,1,0-7.82"/><line class="cls-1" x1="195.83" y1="257.78" x2="195.83" y2="295.82"/><path class="cls-1" d="M88.07,257.8a3.92,3.92,0,1,1,0-7.83h1.75l.07-.93V225.73"/><path class="cls-1" d="M90,226.22a2.19,2.19,0,1,1,0-4.37h8.34"/><polyline class="cls-1" points="197 376.69 197 350.97 195.67 350.97"/><path class="cls-1" d="M197.41,351a3.92,3.92,0,1,0,0-7.82"/><path class="cls-1" d="M197.41,304.42a3.92,3.92,0,1,0,0-7.82h-1.78s-.06-3.18,0-3.18V257.78"/><path class="cls-1" d="M86.74,304.42a3.92,3.92,0,1,1,0-7.82h1.78s.06-3.18,0-3.18V257.78a11.08,11.08,0,0,0,7.65-1.44c4-2.33,5.67-5.16,11.67-3.5s7.33,4.84,16,4.84,10.83-6,18.67-6.34,14.16,6.67,23,7,6.5-5.83,15.66-5.83,6.82,5.57,14.91,5.29a4.12,4.12,0,0,0,4.18-3.92,4.05,4.05,0,0,0-4.18-3.91h-1.75l-.07-.93V225.73"/><path class="cls-1" d="M194.18,226.22a2.19,2.19,0,1,0,0-4.37h-8.34"/><path class="cls-1" d="M99.39,398.74A9.13,9.13,0,0,1,85,398.68"/><path class="cls-1" d="M201.06,398.74a9.13,9.13,0,0,1-14.41-.06"/><line class="cls-1" x1="144.42" y1="157.18" x2="144.42" y2="165.15"/><line class="cls-1" x1="141.86" y1="161.17" x2="148.41" y2="161.17"/><line class="cls-1" x1="74.36" y1="390.26" x2="74.38" y2="393.94"/><line class="cls-1" x1="78.66" y1="390.26" x2="78.68" y2="393.94"/><line class="cls-1" x1="82.95" y1="390.26" x2="82.97" y2="393.94"/><line class="cls-1" x1="87.25" y1="390.26" x2="87.27" y2="393.94"/><line class="cls-1" x1="91.54" y1="390.26" x2="91.57" y2="393.94"/><line class="cls-1" x1="121.61" y1="390.26" x2="121.63" y2="393.94"/><line class="cls-1" x1="125.91" y1="390.26" x2="125.93" y2="393.94"/><line class="cls-1" x1="130.2" y1="390.26" x2="130.22" y2="393.94"/><line class="cls-1" x1="134.5" y1="390.26" x2="134.52" y2="393.94"/><line class="cls-1" x1="138.79" y1="390.26" x2="138.82" y2="393.94"/><line class="cls-1" x1="143.09" y1="390.26" x2="143.11" y2="393.94"/><line class="cls-1" x1="147.38" y1="390.26" x2="147.41" y2="393.94"/><line class="cls-1" x1="151.68" y1="390.26" x2="151.7" y2="393.94"/><line class="cls-1" x1="155.97" y1="390.26" x2="156" y2="393.94"/><line class="cls-1" x1="160.27" y1="390.26" x2="160.29" y2="393.94"/><line class="cls-1" x1="190.34" y1="390.26" x2="190.36" y2="393.94"/><line class="cls-1" x1="194.63" y1="390.26" x2="194.66" y2="393.94"/><line class="cls-1" x1="198.93" y1="390.26" x2="198.95" y2="393.94"/><line class="cls-1" x1="203.22" y1="390.26" x2="203.25" y2="393.94"/><line class="cls-1" x1="207.52" y1="390.26" x2="207.54" y2="393.94"/><path class="cls-1" d="M125.12,213.55a3.92,3.92,0,1,0-7.83,0v2.5"/><path class="cls-1" d="M125.34,213.55a3.92,3.92,0,1,1,7.82,0"/><path class="cls-1" d="M133.38,213.55a3.92,3.92,0,1,1,7.83,0"/><path class="cls-1" d="M141.43,213.55a3.92,3.92,0,1,1,7.82,0"/><path class="cls-1" d="M149.47,213.55a3.92,3.92,0,1,1,7.82,0"/><path class="cls-1" d="M157.51,213.55a3.92,3.92,0,1,1,7.83,0"/><path class="cls-1" d="M165.56,213.55a3.92,3.92,0,1,1,7.82,0v2.64"/><line class="cls-1" x1="89.66" y1="227.98" x2="84.86" y2="227.96"/><line class="cls-1" x1="163.96" y1="376.65" x2="120.25" y2="376.65"/><rect class="cls-1" x="104.08" y="212.1" width="4.23" height="4.37"/><rect class="cls-1" x="179.08" y="212.1" width="4.23" height="4.37"/><line class="cls-1" x1="136.78" y1="87.59" x2="145.13" y2="95.94"/><line class="cls-1" x1="139.9" y1="84.62" x2="149.99" y2="94.71"/><line class="cls-1" x1="144.89" y1="83.53" x2="153.09" y2="91.72"/><line class="cls-1" x1="153.09" y1="87.59" x2="144.74" y2="95.94"/><line class="cls-1" x1="149.97" y1="84.62" x2="139.88" y2="94.71"/><line class="cls-1" x1="144.98" y1="83.53" x2="136.78" y2="91.72"/><path class="cls-1" d="M129.4,39.58s-4.48-2.65-3-12.44A9.32,9.32,0,0,1,129.4,39.58Z"/><path class="cls-1" d="M154.66,42.24s-1.38-5.4,1.28-10,2.47-6.68,2.47-6.68.27,3.94.73,7.14S159.51,39.22,154.66,42.24Z"/><path class="cls-1" d="M163.53,42.24s3.57-.92,3-6.59a16.84,16.84,0,0,0-3.75-9.15s.27,9.42.46,11.71S163.53,42.24,163.53,42.24Z"/><path class="cls-1" d="M136.72,39.67s2.75-1,1.37-4.48-2.93-5.77-2.47-8.33a18.59,18.59,0,0,0-1.83,9.43C134.34,41.14,136.72,39.67,136.72,39.67Z"/><path class="cls-1" d="M146.05,37.57s-4.21.46-4.48-3.2A12.38,12.38,0,0,1,142.85,28L145,30l.36-7.5s6.5,2.65,7.14,7.05-.09,7-2.2,7.68A9.49,9.49,0,0,1,146.05,37.57Z"/><line class="cls-1" x1="129.22" y1="42.69" x2="129.22" y2="39.58"/><line class="cls-1" x1="136.45" y1="42.69" x2="136.45" y2="39.58"/><line class="cls-1" x1="145.58" y1="42.69" x2="145.58" y2="37.66"/><path class="cls-3" d="M138.79,133.68h23.63a2.1,2.1,0,0,0,2.09-2.09h0a2.09,2.09,0,0,0-2.09-2.08H140.86"/><path class="cls-3" d="M164.47,131.3h3.08a2.09,2.09,0,0,0,2.08-2.08h0a2.09,2.09,0,0,0-2.08-2.09H142.31"/><path class="cls-3" d="M133,125.31h-6.68a3.92,3.92,0,0,0-3.91,3.91h0a3.91,3.91,0,0,0,3.91,3.9h2.83"/><rect class="cls-3" x="141.51" y="141.01" width="7" height="41.75" rx="3.5" ry="3.5"/><line class="cls-3" x1="145" y1="140.92" x2="145" y2="133.77"/><rect class="cls-3" x="167.76" y="177.28" width="3.87" height="8.48" rx="1.94" ry="1.94"/><rect class="cls-3" x="167.76" y="142.28" width="3.87" height="29.54" rx="1.94" ry="1.94"/><line class="cls-3" x1="169.69" y1="142.73" x2="169.69" y2="129.63"/><line class="cls-3" x1="169.69" y1="177.38" x2="169.69" y2="171.88"/><rect class="cls-3" x="151.88" y="183.65" width="3.87" height="8.48" rx="1.94" ry="1.94"/><line class="cls-3" x1="153.82" y1="183.76" x2="153.82" y2="165.13"/><rect class="cls-3" x="160.01" y="147.4" width="3.87" height="28.11" rx="1.94" ry="1.94"/><line class="cls-3" x1="161.94" y1="147.35" x2="161.94" y2="134.26"/><rect class="cls-3" x="151.76" y="136.53" width="3.87" height="28.11" rx="1.94" ry="1.94"/><line class="cls-3" x1="153.69" y1="136.48" x2="153.69" y2="133.76"/><path class="cls-3" d="M109.38,133.51s-.87,6.25,1.75,11.25,5.5,8.37,8.38,10.37a33.33,33.33,0,0,0,4.5,2.75"/><path class="cls-3" d="M107.65,136s-1,6.54,1.92,11.77,6.06,8.76,9.23,10.85a38.42,38.42,0,0,0,5,2.88"/><path class="cls-3" d="M105.06,140.26s-1.13,7.79,2.27,14,7.12,10.43,10.85,12.93a43.34,43.34,0,0,0,5.83,3.42"/><path class="cls-3" d="M135.26,177s2.87,1.62,4.25,2.25"/><path class="cls-3" d="M156.26,182.76a25.61,25.61,0,0,0,6.12.62"/><path class="cls-3" d="M174.26,181.88a60.26,60.26,0,0,0,7-1.5"/><path class="cls-3" d="M134,166.13a19.49,19.49,0,0,0,3.75,2.38"/><path class="cls-3" d="M151.13,173.13a34.74,34.74,0,0,0,6.25,1.63"/><path class="cls-3" d="M167.26,175s3.87.25,6.75.12"/><path class="cls-3" d="M179.51,173.88s3-.37,5.25-.75"/><line class="cls-3" x1="180.51" y1="185.84" x2="184.17" y2="188.18"/><path class="cls-3" d="M202.34,199a17.38,17.38,0,0,0-11.17-4.5c-7.16-.33-7.66-6.5-7.66-6.5s3-2.67,8.33-.5S201.67,194.84,202.34,199Z"/><path class="cls-3" d="M187.8,189.34a6.18,6.18,0,0,1,5.4-1.11"/><path class="cls-3" d="M190.75,190.72c.15,0,3.37-1.84,6.17,0"/><path class="cls-3" d="M194.32,192.68s3.91-.61,5.56,1.3"/><line class="cls-3" x1="190.82" y1="172.2" x2="188.32" y2="170.45"/><path class="cls-3" d="M191,173.32s.31,4.56,7,7,10.93-1,13.25-1.5l2.31-.5s-5.75-.31-7.69-2.75-3.69-6.44-8.19-6.12-5.93,1.5-6.31,2.12A4.27,4.27,0,0,0,191,173.32Z"/><path class="cls-3" d="M192.44,173s4.57-.69,6.69,1.69,6.25,4.37,8.25,4.12,4.38-.5,4.38-.5"/><path class="cls-3" d="M194.57,172.7s.94-2.07,3.94-1.75a22.23,22.23,0,0,1,3.93.62l.5.13"/><path class="cls-3" d="M198.38,173.57s.06-.69,2.06-.56a15.59,15.59,0,0,1,4.69,1.44"/><path class="cls-3" d="M201.76,176.45a5.76,5.76,0,0,1,2.81-.38,10,10,0,0,1,2.19.44l.56.25"/><path class="cls-3" d="M189.57,157.2l2.25.12a4,4,0,0,1,2.12-3.62c2.25-1,5-4.5,8.57-2.75s6.12,6,7.87,7.56l1.75,1.56a32.41,32.41,0,0,0-6.44,1.56c-2.93,1.13-4.87,4.5-8.56,1.57s-3.69-3.94-4.37-4.94,0-1.44,0-1.44,6.37-1.19,10,.19,8.43,2.81,8.43,2.81"/><path class="cls-3" d="M195.76,156s-.07-1,1.93-2.06,4-2,6.44-1.63"/><path class="cls-3" d="M199.88,156.26a6,6,0,0,1,3.81-1.69,14.61,14.61,0,0,1,3.32.19"/><path class="cls-3" d="M204.69,157.38a4.38,4.38,0,0,1,2.5-.56,8.71,8.71,0,0,1,1.75.25"/><path class="cls-3" d="M186.09,142.84s.08-1.58,2.67-3.91a9.83,9.83,0,0,1,9.75-1.67,34.43,34.43,0,0,1,4.33,1.83,9.79,9.79,0,0,1-5.83,5C192.59,145.59,186.09,142.84,186.09,142.84Z"/><path class="cls-3" d="M186.92,142.34s5.09-2.5,9-2.58a51.19,51.19,0,0,0,6.5-.5"/><path class="cls-3" d="M189.26,141a8.16,8.16,0,0,1,3.33-3.83"/><path class="cls-3" d="M193.09,140a5,5,0,0,1,4.5-3.08"/><line class="cls-3" x1="108.32" y1="185.84" x2="104.65" y2="188.18"/><path class="cls-3" d="M86.49,199a17.37,17.37,0,0,1,11.16-4.5c7.17-.33,7.67-6.5,7.67-6.5s-3-2.67-8.33-.5S87.15,194.84,86.49,199Z"/><path class="cls-3" d="M101,189.34a6.2,6.2,0,0,0-5.41-1.11"/><path class="cls-3" d="M98.08,190.72c-.16,0-3.38-1.84-6.18,0"/><path class="cls-3" d="M94.51,192.68S90.6,192.07,89,194"/><line class="cls-3" x1="98.01" y1="172.2" x2="100.51" y2="170.45"/><path class="cls-3" d="M97.82,173.32s-.31,4.56-7,7-10.94-1-13.25-1.5l-2.31-.5s5.75-.31,7.68-2.75,3.69-6.44,8.19-6.12,5.94,1.5,6.31,2.12A4.17,4.17,0,0,1,97.82,173.32Z"/><path class="cls-3" d="M96.38,173s-4.56-.69-6.69,1.69-6.25,4.37-8.25,4.12-4.37-.5-4.37-.5"/><path class="cls-3" d="M94.26,172.7s-.94-2.07-3.94-1.75a22.55,22.55,0,0,0-3.94.62l-.5.13"/><path class="cls-3" d="M90.44,173.57s-.06-.69-2.06-.56a15.59,15.59,0,0,0-4.69,1.44"/><path class="cls-3" d="M87.07,176.45a5.76,5.76,0,0,0-2.81-.38,9.78,9.78,0,0,0-2.19.44l-.56.25"/><path class="cls-3" d="M99.26,157.2l-2.25.12a4.66,4.66,0,0,0-.06-.77,3.62,3.62,0,0,0-2.07-2.85c-2.25-1-5-4.5-8.56-2.75s-6.13,6-7.88,7.56l-1.75,1.56a32.41,32.41,0,0,1,6.44,1.56c2.94,1.13,4.88,4.5,8.56,1.57s3.69-3.94,4.38-4.94,0-1.44,0-1.44-6.38-1.19-10,.19-8.44,2.81-8.44,2.81"/><path class="cls-3" d="M93.07,156s.06-1-1.94-2.06-4-2-6.44-1.63"/><path class="cls-3" d="M88.94,156.26a6,6,0,0,0-3.81-1.69,14.47,14.47,0,0,0-3.31.19"/><path class="cls-3" d="M84.13,157.38a4.35,4.35,0,0,0-2.5-.56,8.71,8.71,0,0,0-1.75.25"/><path class="cls-3" d="M102.74,142.84s-.09-1.58-2.67-3.91a9.83,9.83,0,0,0-9.75-1.67A33.5,33.5,0,0,0,86,139.09a9.75,9.75,0,0,0,5.83,5C96.24,145.59,102.74,142.84,102.74,142.84Z"/><path class="cls-3" d="M101.9,142.34s-5.08-2.5-9-2.58a51.43,51.43,0,0,1-6.5-.5"/><path class="cls-3" d="M99.57,141a8.16,8.16,0,0,0-3.33-3.83"/><path class="cls-3" d="M95.74,140a5,5,0,0,0-4.5-3.08"/><circle class="cls-3" cx="123.29" cy="237.48" r="2.09"/><circle class="cls-3" cx="123.29" cy="233.31" r="2.09"/><rect class="cls-3" x="122.11" y="227.5" width="2.36" height="3.76"/><circle class="cls-3" cx="162.29" cy="237.48" r="2.09"/><circle class="cls-3" cx="162.29" cy="233.31" r="2.09"/><rect class="cls-3" x="161.11" y="227.5" width="2.36" height="3.76"/><path class="cls-3" d="M129.62,237c1.23,4.14,7.21,7.28,14.39,7.28,6.67,0,12.3-2.71,14.05-6.42"/><path class="cls-3" d="M132.88,237.1c1,2.86,5.56,5,11.09,5,5.14,0,9.47-1.87,10.83-4.43"/><polyline class="cls-3" points="134.34 238.78 132.76 231.19 131.39 229.23"/><line class="cls-3" x1="135.77" y1="227.49" x2="135.71" y2="229.29"/><line class="cls-3" x1="135.5" y1="230.66" x2="136.35" y2="240.36"/><line class="cls-3" x1="137.93" y1="227.02" x2="138.09" y2="229.44"/><polyline class="cls-3" points="137.72 230.92 137.98 240.31 137.98 240.84"/><polyline class="cls-3" points="140.99 230.55 140.51 240.04 140.15 241.63"/><line class="cls-3" x1="142.94" y1="227.39" x2="142.99" y2="229.39"/><line class="cls-3" x1="143.1" y1="230.97" x2="142.78" y2="241.79"/><line class="cls-3" x1="144.89" y1="227.49" x2="144.89" y2="229.71"/><line class="cls-3" x1="145.31" y1="231.76" x2="145.37" y2="242.1"/><line class="cls-3" x1="147.26" y1="228.18" x2="147.53" y2="230.97"/><line class="cls-3" x1="148.06" y1="233.14" x2="147.84" y2="241.57"/><line class="cls-3" x1="149.48" y1="227.65" x2="149.53" y2="230.6"/><line class="cls-3" x1="149.95" y1="232.5" x2="149.8" y2="241.05"/><line class="cls-3" x1="152.59" y1="227.28" x2="152.85" y2="229.5"/><line class="cls-3" x1="152.59" y1="231.34" x2="153.8" y2="233.66"/><line class="cls-3" x1="152.06" y1="233.77" x2="152.01" y2="240.2"/><line class="cls-3" x1="153.65" y1="235.03" x2="153.7" y2="238.88"/><path class="cls-3" d="M166.62,236.9c.91,3.55,5.32,6.23,10.63,6.23,4.93,0,9.08-2.31,10.38-5.48"/><path class="cls-3" d="M169,237c.7,2.45,4.1,4.31,8.19,4.31,3.8,0,7-1.61,8-3.8"/><polyline class="cls-3" points="170.11 238.45 168.94 231.95 167.93 230.28"/><line class="cls-3" x1="171.16" y1="228.79" x2="171.12" y2="230.32"/><line class="cls-3" x1="170.97" y1="231.5" x2="171.59" y2="239.8"/><line class="cls-3" x1="172.76" y1="228.38" x2="172.88" y2="230.46"/><polyline class="cls-3" points="172.6 231.72 172.8 239.75 172.8 240.21"/><polyline class="cls-3" points="175.02 231.41 174.67 239.53 174.4 240.88"/><line class="cls-3" x1="176.46" y1="228.7" x2="176.5" y2="230.41"/><line class="cls-3" x1="176.58" y1="231.77" x2="176.34" y2="241.02"/><line class="cls-3" x1="177.9" y1="228.79" x2="177.9" y2="230.68"/><line class="cls-3" x1="178.21" y1="232.44" x2="178.25" y2="241.29"/><line class="cls-3" x1="179.65" y1="229.38" x2="179.85" y2="231.77"/><line class="cls-3" x1="180.24" y1="233.62" x2="180.08" y2="240.84"/><line class="cls-3" x1="181.29" y1="228.93" x2="181.33" y2="231.45"/><line class="cls-3" x1="181.64" y1="233.08" x2="181.52" y2="240.39"/><line class="cls-3" x1="183.59" y1="228.61" x2="183.78" y2="230.5"/><line class="cls-3" x1="183.59" y1="232.08" x2="184.49" y2="234.07"/><line class="cls-3" x1="183.2" y1="234.16" x2="183.16" y2="239.66"/><line class="cls-3" x1="184.37" y1="235.24" x2="184.41" y2="238.54"/><path class="cls-3" d="M97.74,236.9c.92,3.55,5.33,6.23,10.63,6.23,4.93,0,9.09-2.31,10.39-5.48"/><path class="cls-3" d="M100.15,237c.71,2.45,4.11,4.31,8.2,4.31,3.79,0,7-1.61,8-3.8"/><polyline class="cls-3" points="101.23 238.45 100.06 231.95 99.05 230.28"/><line class="cls-3" x1="102.29" y1="228.79" x2="102.25" y2="230.32"/><line class="cls-3" x1="102.09" y1="231.5" x2="102.71" y2="239.8"/><line class="cls-3" x1="103.88" y1="228.38" x2="104" y2="230.46"/><polyline class="cls-3" points="103.73 231.72 103.92 239.75 103.92 240.21"/><polyline class="cls-3" points="106.14 231.41 105.79 239.53 105.52 240.88"/><line class="cls-3" x1="107.58" y1="228.7" x2="107.62" y2="230.41"/><line class="cls-3" x1="107.7" y1="231.77" x2="107.47" y2="241.02"/><line class="cls-3" x1="109.03" y1="228.79" x2="109.03" y2="230.68"/><line class="cls-3" x1="109.34" y1="232.44" x2="109.38" y2="241.29"/><line class="cls-3" x1="110.78" y1="229.38" x2="110.97" y2="231.77"/><line class="cls-3" x1="111.36" y1="233.62" x2="111.21" y2="240.84"/><line class="cls-3" x1="112.42" y1="228.93" x2="112.45" y2="231.45"/><line class="cls-3" x1="112.77" y1="233.08" x2="112.65" y2="240.39"/><line class="cls-3" x1="114.71" y1="228.61" x2="114.91" y2="230.5"/><line class="cls-3" x1="114.71" y1="232.08" x2="115.61" y2="234.07"/><line class="cls-3" x1="114.33" y1="234.16" x2="114.29" y2="239.66"/><line class="cls-3" x1="115.49" y1="235.24" x2="115.53" y2="238.54"/><path class="cls-1" d="M106,279.75c0-3.24-1.65-5.86-3.7-5.86s-3.7,2.62-3.7,5.86a8.48,8.48,0,0,0,.23,2h7A9.05,9.05,0,0,0,106,279.75Z"/><path class="cls-1" d="M100,281.84a2.26,2.26,0,1,0,4.51,0"/><line class="cls-2" x1="93.63" y1="269.57" x2="93.63" y2="258.01"/><path class="cls-1" d="M97.33,275.25c0-3.24-1.66-5.86-3.7-5.86s-3.7,2.62-3.7,5.86a9.05,9.05,0,0,0,.22,2h7A9.05,9.05,0,0,0,97.33,275.25Z"/><path class="cls-1" d="M91.37,277.34a2.26,2.26,0,1,0,4.51,0"/><line class="cls-2" x1="112.38" y1="271.44" x2="112.38" y2="254.63"/><path class="cls-1" d="M116.08,277.13c0-3.24-1.66-5.87-3.7-5.87s-3.7,2.63-3.7,5.87a9,9,0,0,0,.22,2h7A9,9,0,0,0,116.08,277.13Z"/><path class="cls-1" d="M110.12,279.22a2.26,2.26,0,1,0,4.51,0"/><line class="cls-2" x1="123.38" y1="273.07" x2="123.38" y2="257.88"/><path class="cls-1" d="M127.08,278.75c0-3.24-1.66-5.86-3.7-5.86s-3.7,2.62-3.7,5.86a9.05,9.05,0,0,0,.22,2h7A9.05,9.05,0,0,0,127.08,278.75Z"/><path class="cls-1" d="M121.12,280.84a2.26,2.26,0,1,0,4.51,0"/><line class="cls-2" x1="135" y1="267.07" x2="135" y2="254.13"/><path class="cls-1" d="M138.7,272.75c0-3.24-1.65-5.86-3.7-5.86s-3.7,2.62-3.7,5.86a8.48,8.48,0,0,0,.23,2h6.95A9.05,9.05,0,0,0,138.7,272.75Z"/><path class="cls-1" d="M132.75,274.84a2.26,2.26,0,1,0,4.51,0"/><line class="cls-2" x1="145.38" y1="276.57" x2="145.38" y2="251.88"/><path class="cls-1" d="M149.08,282.25c0-3.24-1.66-5.86-3.7-5.86s-3.7,2.62-3.7,5.86a9.05,9.05,0,0,0,.22,2h7A9.05,9.05,0,0,0,149.08,282.25Z"/><path class="cls-1" d="M143.12,284.34a2.26,2.26,0,1,0,4.51,0"/><line class="cls-2" x1="156.38" y1="272.57" x2="156.38" y2="256.13"/><path class="cls-1" d="M160.08,278.25c0-3.24-1.66-5.86-3.7-5.86s-3.7,2.62-3.7,5.86a9.05,9.05,0,0,0,.22,2h7A9.05,9.05,0,0,0,160.08,278.25Z"/><path class="cls-1" d="M154.12,280.34a2.26,2.26,0,1,0,4.51,0"/><line class="cls-2" x1="168.38" y1="273.44" x2="168.38" y2="258.76"/><path class="cls-1" d="M172.08,279.13c0-3.24-1.66-5.87-3.7-5.87s-3.7,2.63-3.7,5.87a9,9,0,0,0,.22,2h7A9,9,0,0,0,172.08,279.13Z"/><path class="cls-1" d="M166.12,281.22a2.26,2.26,0,1,0,4.51,0"/><line class="cls-2" x1="178.88" y1="273.32" x2="178.88" y2="252.83"/><path class="cls-1" d="M182.58,279c0-3.24-1.66-5.86-3.7-5.86s-3.7,2.62-3.7,5.86a9.05,9.05,0,0,0,.22,2h7A9.05,9.05,0,0,0,182.58,279Z"/><path class="cls-1" d="M176.62,281.09a2.26,2.26,0,1,0,4.51,0"/><line class="cls-2" x1="187.13" y1="265.82" x2="187.13" y2="253.88"/><path class="cls-1" d="M190.83,271.5c0-3.24-1.66-5.86-3.7-5.86s-3.7,2.62-3.7,5.86a9.05,9.05,0,0,0,.22,2h7A9.05,9.05,0,0,0,190.83,271.5Z"/><path class="cls-1" d="M184.87,273.59a2.26,2.26,0,1,0,4.51,0"/><path class="cls-1" d="M157,290.48s-3.49,2.93-3.07,9.5,4.05,7,4.05,7,3.07-.28,3.77-6.29S157.74,291,157,290.48Z"/><path class="cls-1" d="M157.88,304.17a54.81,54.81,0,0,0-.84-13.69l-.84-5.59"/><line class="cls-1" x1="156.47" y1="302.66" x2="157.86" y2="300.83"/><path class="cls-1" d="M155.24,299.19c.09-.14,2.37-2.67,2.37-2.67"/><line class="cls-1" x1="160.19" y1="300.73" x2="158.01" y2="298.3"/><line class="cls-1" x1="160.39" y1="298.01" x2="157.61" y2="294.14"/><path class="cls-1" d="M188.17,295.44s-3.82,2.49-4.2,9.06,3.18,7.42,3.18,7.42,3.09.09,4.5-5.78S188.79,296.08,188.17,295.44Z"/><path class="cls-1" d="M187.35,309.13a55,55,0,0,0,.82-13.69L188,289.8"/><line class="cls-1" x1="186.14" y1="307.47" x2="187.73" y2="305.82"/><path class="cls-1" d="M185.32,303.88c.12-.14,2.69-2.37,2.69-2.37"/><line class="cls-1" x1="190.06" y1="306" x2="188.19" y2="303.33"/><line class="cls-1" x1="190.58" y1="303.32" x2="188.29" y2="299.15"/><path class="cls-1" d="M102.17,295s5.67,1.83,6.17-5.17h-2.17S105.67,294,102.17,295Z"/><path class="cls-1" d="M100.51,303.34s6-4.5,8.83-1.33c0,0-3.33-4.33-8-3.33S100.51,303.34,100.51,303.34Z"/><path class="cls-1" d="M99.17,309.68a6.58,6.58,0,0,0,8.17.83s-4.67-.83-4.83-2.83a1.83,1.83,0,0,0-3.17-1.17C98.67,307.51,99.17,309.68,99.17,309.68Z"/><path class="cls-3" d="M93.84,319.18s.17-4.34-2.33-2.84-3.5,5.17-1.67,6.84C89.84,323.18,87.51,318.51,93.84,319.18Z"/><path class="cls-3" d="M100.34,315.18s.33,6.83,4.67,1.33"/><path class="cls-3" d="M93.84,328.51s2.17-3.17,5.33-1.33-.5,6.16-.5,6.16S99.17,327.84,93.84,328.51Z"/><path class="cls-3" d="M135,297.34s3.5-2,5.16,3.5c0,0,2.67-5.66-3-7.16l-2.66.66Z"/><path class="cls-3" d="M138,290s4,5.17,7.5-1l-4.34-.17"/><path class="cls-3" d="M128.67,319.51s2.34-2.83.84-4.67-4.34.84-4.34.84A3.84,3.84,0,0,1,128.67,319.51Z"/><path class="cls-3" d="M128.34,328.34s2.5-5.83,7-1.5c0,0,2.17-3.83-2-4.16S128,323.18,128.34,328.34Z"/><path class="cls-3" d="M129.34,339.84a3.69,3.69,0,0,0,1-4.5c-1.33-2.66-4,.84-3.33,3.17S129.34,339.84,129.34,339.84Z"/><path class="cls-3" d="M158.17,322.68l-.16,2.83s-3.34.67-2.17,3a5.4,5.4,0,0,0,2.67,2.83s-5.67.84-5.84-2.5S158.17,322.68,158.17,322.68Z"/><path class="cls-3" d="M154.84,334.51s-2.33-3-4.17-.67,1.67,6.84,1.67,6.84S151.34,335.34,154.84,334.51Z"/><path class="cls-3" d="M144.34,316.34s-3.5,1.34-2.17,4.5,4.34-.33,4.67-1.66S144.34,316.34,144.34,316.34Z"/><path class="cls-3" d="M140.51,309.18s-4.67,1.66-4.67,3,4.5,1.5,5.67,0,3.16-2.67,3.83-3.34-.33-2.66-1.67-2A18.83,18.83,0,0,0,140.51,309.18Z"/><path class="cls-3" d="M136.34,305.84a5.63,5.63,0,0,0-4,1.5c-1.67,1.67-3.83,4.17-3.83,4.17s3-2.5,5.83-2.83S139.34,306.84,136.34,305.84Z"/><path class="cls-3" d="M175.84,306c-.35.59-.17-5,2.5-5s1.67,4,1.67,4A2.76,2.76,0,0,0,175.84,306Z"/><path class="cls-3" d="M178.84,319.68a3.2,3.2,0,0,1,4.33-2.34c3.67,1,2.34,5.5,2.34,5.5s-.67-3.5-2.84-2.5S179.67,322,178.84,319.68Z"/><path class="cls-3" d="M183.84,326.34s2.5.67,3.67-.33,2.16-2,2.16-2-.16,4.83-1.5,6.17S180.17,330.18,183.84,326.34Z"/><path class="cls-3" d="M178.84,294s.17-1.67-2.33-1.67-4.34-3.66-.5-3.83,4.33.83,4.33,2.67A3.63,3.63,0,0,1,178.84,294Z"/><path class="cls-1" d="M124.52,289.81s-2.16,2.93-1.9,9.5,2.51,7,2.51,7,1.9-.28,2.33-6.28A14.53,14.53,0,0,0,124.52,289.81Z"/><path class="cls-1" d="M125,303.5a87.69,87.69,0,0,0-.52-13.69l-.51-5.59"/><line class="cls-1" x1="124.17" y1="302" x2="125.03" y2="300.16"/><path class="cls-1" d="M123.41,298.53c.06-.15,1.47-2.68,1.47-2.68"/><line class="cls-1" x1="126.47" y1="300.06" x2="125.12" y2="297.64"/><line class="cls-1" x1="126.6" y1="297.34" x2="124.88" y2="293.47"/><path class="cls-1" d="M142.68,371.43a8.26,8.26,0,0,1-3.75-8c.62-5.5,2.75-11.12,2.5-16.75s.5-5.75.5-5.75.87,7,3.75,11.5,2.75,11.38,1.5,13.63S145.18,371.18,142.68,371.43Z"/><path class="cls-1" d="M142.55,376.68l.13-5.25s1.87-8.75,1.37-12.75-2.37-15.37-2.37-15.37"/><path class="cls-1" d="M143.31,365.46a13,13,0,0,1-2.23-3.89c-.8-2.29-1.17-3.53-1.17-3.53"/><path class="cls-1" d="M143.68,360.45s-2.17-2.53-2.41-3.95a21.11,21.11,0,0,0-.56-2.42"/><path class="cls-1" d="M143.56,367.51a7.13,7.13,0,0,0,2.9-3.1l1.55-4.2"/><path class="cls-1" d="M144.17,363.18c.56-.13,1.8-1.18,2.05-3.53a43.48,43.48,0,0,0-.13-6.37"/><path class="cls-1" d="M87.93,341.68c-.25-5.62.5-5.75.5-5.75s.87,7,3.75,11.5,2.75,11.38,1.5,13.63-2,5.12-4.5,5.37a18.32,18.32,0,0,1-2-1.88"/><path class="cls-1" d="M89,376.4l.14-10s1.87-8.75,1.37-12.75-2.37-15.37-2.37-15.37"/><path class="cls-1" d="M89.81,360.46a13,13,0,0,1-2.23-3.89"/><path class="cls-1" d="M90.18,355.45s-2.17-2.53-2.41-3.95"/><path class="cls-1" d="M90.06,362.51a7.13,7.13,0,0,0,2.9-3.1l1.55-4.2"/><path class="cls-1" d="M90.67,358.18c.56-.13,1.8-1.18,2-3.53a43.48,43.48,0,0,0-.13-6.37"/><path class="cls-1" d="M157.84,372.32a6.78,6.78,0,0,1-3.28-6.64c.55-4.56,2.41-9.23,2.19-13.9s.44-4.77.44-4.77.76,5.81,3.28,9.54,2.41,9.45,1.31,11.31S160,372.12,157.84,372.32Z"/><path class="cls-1" d="M157.73,376.68l.11-4.36s1.65-7.26,1.21-10.58S157,349,157,349"/><path class="cls-1" d="M158.39,367.37a10.65,10.65,0,0,1-1.94-3.23c-.71-1.9-1-2.93-1-2.93"/><path class="cls-1" d="M158.72,363.21s-1.9-2.1-2.11-3.28a17.62,17.62,0,0,0-.49-2"/><path class="cls-1" d="M158.61,369.07a6.13,6.13,0,0,0,2.55-2.57c.59-1.54,1.35-3.49,1.35-3.49"/><path class="cls-1" d="M159.15,365.47c.49-.1,1.57-1,1.79-2.93a33,33,0,0,0-.11-5.28"/><path class="cls-1" d="M128.34,372.32a6.78,6.78,0,0,1-3.28-6.64c.55-4.56,2.41-9.23,2.19-13.9s.44-4.77.44-4.77.76,5.81,3.28,9.54,2.41,9.45,1.31,11.31S130.53,372.12,128.34,372.32Z"/><path class="cls-1" d="M128.23,376.68l.11-4.36s1.65-7.26,1.21-10.58S127.47,349,127.47,349"/><path class="cls-1" d="M128.89,367.37a10.65,10.65,0,0,1-1.94-3.23c-.71-1.9-1-2.93-1-2.93"/><path class="cls-1" d="M129.22,363.21s-1.9-2.1-2.11-3.28a17.62,17.62,0,0,0-.49-2"/><path class="cls-1" d="M129.11,369.07a6.13,6.13,0,0,0,2.55-2.57C132.25,365,133,363,133,363"/><path class="cls-1" d="M129.65,365.47c.49-.1,1.57-1,1.79-2.93a33,33,0,0,0-.11-5.28"/><path class="cls-1" d="M99.57,367.13a7.74,7.74,0,0,1-3.28-7.4c.55-5.09,2.41-10.29,2.19-15.5s.43-5.32.43-5.32,2.21,8.46,4.72,12.62"/><path class="cls-1" d="M99.46,372l.11-4.86s1.64-8.09,1.21-11.79-2.08-14.23-2.08-14.23"/><path class="cls-1" d="M100.12,361.61a12.41,12.41,0,0,1-2-3.6c-.7-2.12-1-3.27-1-3.27"/><path class="cls-1" d="M100.45,357s-1.9-2.35-2.12-3.67a20,20,0,0,0-.48-2.23"/><path class="cls-1" d="M101.25,358.72c.49-.11,1.58-1.08,1.79-3.26"/><path class="cls-1" d="M187.2,365.93s-3.52-1.71-3-5.46,2.22-7.58,2-11.42.4-3.92.4-3.92.7,4.78,3,7.84,2.22,7.76,1.21,9.29S189.22,365.76,187.2,365.93Z"/><path class="cls-1" d="M187.63,376.38l-.43-10.45s1.51-6,1.11-8.69-1.91-10.49-1.91-10.49"/><path class="cls-1" d="M187.71,361.86a8.66,8.66,0,0,1-1.79-2.66c-.65-1.56-.95-2.4-.95-2.4"/><path class="cls-1" d="M188,358.44s-1.75-1.72-1.94-2.69a12.73,12.73,0,0,0-.45-1.65"/><path class="cls-1" d="M187.91,363.25a5.37,5.37,0,0,0,2.34-2.11l1.25-2.86"/><path class="cls-1" d="M188.41,360.3a2.66,2.66,0,0,0,1.64-2.4,24.65,24.65,0,0,0-.1-4.35"/><line class="cls-1" x1="187.76" y1="376.63" x2="187.2" y2="365.93"/></svg>
